<?xml version="1.0" encoding="utf-8"?>
<!-- Generator: Adobe Illustrator 15.0.0, SVG Export Plug-In . SVG Version: 6.00 Build 0)  -->
<!DOCTYPE svg PUBLIC "-//W3C//DTD SVG 1.1//EN" "http://www.w3.org/Graphics/SVG/1.1/DTD/svg11.dtd">
<svg version="1.1" id="图层_1" xmlns="http://www.w3.org/2000/svg" xmlns:xlink="http://www.w3.org/1999/xlink" x="0px" y="0px"
	 width="1024px" height="1024px" viewBox="0 0 1024 1024" enable-background="new 0 0 1024 1024" xml:space="preserve">
<path fill="#231815" d="M512,8.973C234.181,8.973,8.967,234.181,8.967,511.989c0,277.824,225.214,503.039,503.032,503.039
	c277.843,0,503.034-225.215,503.034-503.039C1015.034,234.181,789.842,8.973,512,8.973L512,8.973L512,8.973z M732.575,543.646
	H544.198v189.668c-0.024,17.496-14.206,31.688-31.677,31.688c-17.519,0-31.725-14.191-31.725-31.688V543.646H292.42
	c-17.354,0-31.451-14.086-31.451-31.446c0-17.377,14.098-31.427,31.451-31.427h188.376V289.698
	c0-17.513,14.206-31.701,31.725-31.701c17.471,0,31.677,14.188,31.677,31.701v191.057h188.377c17.353,0,31.439,14.068,31.462,31.445
	C764.014,529.561,749.927,543.646,732.575,543.646L732.575,543.646L732.575,543.646z"/>
</svg>
