<?xml version="1.0" encoding="utf-8"?>
<!-- Generator: Adobe Illustrator 16.0.0, SVG Export Plug-In . SVG Version: 6.00 Build 0)  -->
<!DOCTYPE svg PUBLIC "-//W3C//DTD SVG 1.1//EN" "http://www.w3.org/Graphics/SVG/1.1/DTD/svg11.dtd">
<svg version="1.1" id="图层_1" xmlns="http://www.w3.org/2000/svg" xmlns:xlink="http://www.w3.org/1999/xlink" x="0px" y="0px"
	 width="1024px" height="1024px" viewBox="0 0 1024 1024" enable-background="new 0 0 1024 1024" xml:space="preserve">
<g>
	<path stroke="#FFFFFF" stroke-miterlimit="10" d="M578.742,660.51c0,0-70.992,56.806-96.808,71.713
		c-22.716,13.048-44.003,21.748-62.973,27.81c-19.007,6.025-35.659,9.805-49.921,11.375c-14.299,1.567-26.136,2.566-35.513,3.032
		c-0.895,0.426-2.035,0.642-3.354,0.642H319.44c-24.567,0-47.673-2.893-69.315-8.702c-21.679-5.81-40.543-14.403-56.625-25.816
		c-16.081-11.374-28.846-25.671-38.188-42.858c-9.377-17.226-14.084-37.229-14.084-59.979c0.462-19.644,5.81-37.543,16.081-53.592
		c10.271-16.078,23.569-29.703,39.862-40.898c16.298-11.195,34.414-19.647,54.308-25.458c19.864-5.814,39.832-8.274,59.943-7.383
		c19.647,0.895,38.651,3.246,56.979,7.024c18.295,3.816,35.833,8.383,52.597,13.764c16.719,5.353,32.587,11.162,47.565,17.404
		c14.979,6.272,29.133,12.298,42.538,18.113c5.349,2.244,10.947,4.457,16.76,6.699c5.777,2.248,11.803,4.458,18.08,6.705
		c12.942-16.506,23.893-32.695,32.84-48.564c8.911-15.869,16.294-30.381,22.107-43.574c5.812-13.156,10.269-24.209,13.406-33.161
		c3.1-8.915,5.098-15.154,6.025-18.754H329.496v-32.162h137.355v-74.351H275.903v-32.163h190.948v-60.33
		c0-3.996,2.244-7.237,6.702-9.697c4.494-2.463,9.593-4.137,15.407-5.031c6.701-1.356,14.295-2.031,22.786-2.031h51.594v77.089
		h196.292v32.163H563.34v74.351h156.001c0.034-0.216,0.071-0.432,0.107-0.679v0.679h-0.107
		c-3.138,19.894-8.486,40.898-15.977,63.006c-6.239,19.182-15.511,41.077-27.81,65.644c-12.303,24.568-28.491,49.813-48.568,75.737
		c0,0,153.754,73.561,316.07,99.446c26.955-59.796,42.004-126.153,42.004-195.972c0-263.614-213.734-477.311-477.311-477.311
		c-263.614,0-477.311,213.697-477.311,477.311c0,263.577,213.697,477.311,477.311,477.311c163.488,0,307.792-82.229,393.837-207.599
		C814.156,762.421,721.336,723.841,578.742,660.51L578.742,660.51L578.742,660.51L578.742,660.51z M203.521,639.08
		c-1.781,81.91,90.89,87.97,105.153,88.432c47.245,1.427,85.363-16.401,115.066-34.053c29.703-17.65,78.159-63.185,79.944-64.753
		c1.785-1.569,3.604-3.242,5.348-5.028c-12.944-7.167-25.67-13.763-38.188-19.788c-12.481-6.027-76.058-40.149-132.434-45.965
		C231.651,546.835,204.091,614.156,203.521,639.08L203.521,639.08L203.521,639.08L203.521,639.08z M203.521,639.08"/>
</g>
</svg>
