<?xml version="1.0" encoding="utf-8"?>
<!-- Generator: Adobe Illustrator 16.0.0, SVG Export Plug-In . SVG Version: 6.00 Build 0)  -->
<!DOCTYPE svg PUBLIC "-//W3C//DTD SVG 1.1//EN" "http://www.w3.org/Graphics/SVG/1.1/DTD/svg11.dtd">
<svg version="1.1" id="图层_1" xmlns="http://www.w3.org/2000/svg" xmlns:xlink="http://www.w3.org/1999/xlink" x="0px" y="0px"
	 width="1024px" height="1024px" viewBox="0 0 1024 1024" enable-background="new 0 0 1024 1024" xml:space="preserve">
<path stroke="#FFFFFF" stroke-miterlimit="10" d="M1024.499,513.016c0,282.78-229.228,511.985-512,511.985
	c-282.773,0-512-229.205-512-511.985s229.227-512.015,512-512.015C795.271,1.001,1024.499,230.235,1024.499,513.016
	L1024.499,513.016L1024.499,513.016z M490.403,269.944c-1.721,0.777-2.998,1.651-3.747,2.234c-0.444,0.236-0.916,0.485-1.36,0.722
	c-2.721,1.416-6.302,3.358-9.799,6.648l-0.194,0.181l-0.583,0.583c-0.916,0.638-1.804,1.374-2.581,2.137L183.509,581.94
	c-10.326,10.743-15.989,24.789-15.989,39.612c0,15.656,6.19,30.258,17.46,41.083c22.651,21.819,58.848,21.097,80.693-1.499
	l248.491-257.853l244.8,258.741c21.624,22.873,57.793,23.873,80.665,2.276c11.354-10.743,17.849-25.871,17.849-41.472
	c0-14.657-5.552-28.536-15.572-39.168L556.273,281.631c-16.821-17.794-43.303-22.541-65.843-11.729L490.403,269.944L490.403,269.944
	z M490.403,269.944"/>
</svg>
