<?xml version="1.0" encoding="utf-8"?>
<!-- Generator: Adobe Illustrator 16.0.0, SVG Export Plug-In . SVG Version: 6.00 Build 0)  -->
<!DOCTYPE svg PUBLIC "-//W3C//DTD SVG 1.1//EN" "http://www.w3.org/Graphics/SVG/1.1/DTD/svg11.dtd">
<svg version="1.1" id="图层_1" xmlns="http://www.w3.org/2000/svg" xmlns:xlink="http://www.w3.org/1999/xlink" x="0px" y="0px"
	 width="1024px" height="1024px" viewBox="0 0 1024 1024" enable-background="new 0 0 1024 1024" xml:space="preserve">
<path stroke="#FFFFFF" stroke-miterlimit="10" d="M0.499,512.986c0-282.78,229.228-511.985,512-511.985
	c282.773,0,512,229.205,512,511.985s-229.227,512.015-512,512.015C229.727,1025.001,0.499,795.767,0.499,512.986L0.499,512.986
	L0.499,512.986z M534.595,756.058c1.721-0.777,2.998-1.651,3.747-2.234c0.444-0.236,0.916-0.485,1.36-0.722
	c2.721-1.416,6.302-3.358,9.799-6.648l0.194-0.181l0.583-0.583c0.916-0.638,1.804-1.374,2.581-2.137l288.63-299.491
	c10.326-10.743,15.989-24.789,15.989-39.612c0-15.656-6.19-30.258-17.46-41.083c-22.651-21.819-58.848-21.097-80.693,1.499
	L510.834,622.718l-244.8-258.741c-21.624-22.873-57.793-23.873-80.665-2.276c-11.354,10.743-17.849,25.871-17.849,41.472
	c0,14.657,5.552,28.536,15.572,39.168l285.632,302.031c16.821,17.794,43.303,22.541,65.843,11.729L534.595,756.058L534.595,756.058z
	 M534.595,756.058"/>
</svg>
