<?xml version="1.0" encoding="utf-8"?>
<!-- Generator: Adobe Illustrator 16.0.0, SVG Export Plug-In . SVG Version: 6.00 Build 0)  -->
<!DOCTYPE svg PUBLIC "-//W3C//DTD SVG 1.1//EN" "http://www.w3.org/Graphics/SVG/1.1/DTD/svg11.dtd">
<svg version="1.1" id="图层_1" xmlns="http://www.w3.org/2000/svg" xmlns:xlink="http://www.w3.org/1999/xlink" x="0px" y="0px"
	 width="1024px" height="1024px" viewBox="0 0 1024 1024" enable-background="new 0 0 1024 1024" xml:space="preserve">
<path stroke="#FFFFFF" stroke-miterlimit="10" d="M512.484,1025C229.704,1025,0.499,795.772,0.499,513
	c0-282.773,229.205-512,511.985-512s512.015,229.227,512.015,512C1024.499,795.772,795.265,1025,512.484,1025L512.484,1025
	L512.484,1025z M755.556,490.904c-0.777-1.721-1.651-2.998-2.234-3.747c-0.236-0.444-0.485-0.916-0.722-1.36
	c-1.416-2.721-3.358-6.302-6.648-9.799l-0.181-0.194l-0.583-0.583c-0.638-0.916-1.374-1.804-2.137-2.581L443.56,184.01
	c-10.743-10.326-24.789-15.989-39.612-15.989c-15.656,0-30.258,6.19-41.083,17.46c-21.819,22.651-21.097,58.848,1.499,80.693
	l257.853,248.491l-258.741,244.8c-22.873,21.624-23.873,57.793-2.276,80.665c10.743,11.354,25.871,17.849,41.472,17.849
	c14.657,0,28.536-5.552,39.168-15.572l302.031-285.632c17.794-16.821,22.541-43.303,11.729-65.843L755.556,490.904L755.556,490.904z
	 M755.556,490.904"/>
</svg>
