<?xml version="1.0" encoding="utf-8"?>
<!-- Generator: Adobe Illustrator 15.0.0, SVG Export Plug-In . SVG Version: 6.00 Build 0)  -->
<!DOCTYPE svg PUBLIC "-//W3C//DTD SVG 1.1//EN" "http://www.w3.org/Graphics/SVG/1.1/DTD/svg11.dtd">
<svg version="1.1" id="图层_1" xmlns="http://www.w3.org/2000/svg" xmlns:xlink="http://www.w3.org/1999/xlink" x="0px" y="0px"
	 width="1024px" height="1024px" viewBox="0 0 1024 1024" enable-background="new 0 0 1024 1024" xml:space="preserve">
<path fill="#231815" d="M512,12.468c-275.864,0-499.521,223.657-499.521,499.521S236.136,1011.532,512,1011.532
	s499.521-223.679,499.521-499.543S787.865,12.468,512,12.468z M810.231,782.092c0,0-6.113,15.762-14.179,0
	c0,0-90.365-274.651-310.705-205.489v85.27c0,0-3.512,50.126-46.917,17.475L221.798,491.05c0,0-45.92-25.149,2.775-59.622
	l218.931-189.38c0,0,32.911-23.653,40.847,15.111l0.26,92.013C484.632,349.216,895.219,368.988,810.231,782.092z"/>
</svg>
