<?xml version="1.0" encoding="utf-8"?>
<!-- Generator: Adobe Illustrator 15.0.0, SVG Export Plug-In . SVG Version: 6.00 Build 0)  -->
<!DOCTYPE svg PUBLIC "-//W3C//DTD SVG 1.1//EN" "http://www.w3.org/Graphics/SVG/1.1/DTD/svg11.dtd">
<svg version="1.1" id="图层_1" xmlns="http://www.w3.org/2000/svg" xmlns:xlink="http://www.w3.org/1999/xlink" x="0px" y="0px"
	 width="1024px" height="1024px" viewBox="0 0 1024 1024" enable-background="new 0 0 1024 1024" xml:space="preserve">
<path fill="#231815" d="M831.649,386.861H192.422c-48.683,0-88.224,39.503-88.224,88.188v450.797
	c0,48.722,39.541,88.154,88.224,88.154h639.227c48.721,0,88.154-39.433,88.154-88.154V475.048
	C919.803,426.364,880.369,386.861,831.649,386.861L831.649,386.861L831.649,386.861z M547.531,764.295v79.399
	c0,20.969-17.037,38.007-38.04,38.007c-21.02,0-38.059-17.038-38.059-38.007v-81.009c-41.468-16.216-71.007-56.398-71.007-103.651
	c0-61.688,49.989-111.619,111.619-111.619c61.651,0,111.586,49.932,111.586,111.619
	C623.631,708.182,591.698,749.399,547.531,764.295L547.531,764.295L547.531,764.295z M347.206,296.565
	c0-90.867,73.954-164.836,164.839-164.836c90.868,0,164.875,73.97,164.875,164.836v18.932h121.729v-18.932
	C798.649,138.55,670.063,10,512.045,10C354.01,10,225.479,138.55,225.479,296.565v18.932h121.727V296.565L347.206,296.565
	L347.206,296.565z"/>
</svg>
