<?xml version="1.0" encoding="utf-8"?>
<!-- Generator: Adobe Illustrator 16.0.0, SVG Export Plug-In . SVG Version: 6.00 Build 0)  -->
<!DOCTYPE svg PUBLIC "-//W3C//DTD SVG 1.1//EN" "http://www.w3.org/Graphics/SVG/1.1/DTD/svg11.dtd">
<svg version="1.1" id="图层_1" xmlns="http://www.w3.org/2000/svg" xmlns:xlink="http://www.w3.org/1999/xlink" x="0px" y="0px"
	 width="1024px" height="1024px" viewBox="0 0 1024 1024" enable-background="new 0 0 1024 1024" xml:space="preserve">
<g>
	<path stroke="#FFFFFF" stroke-miterlimit="10" d="M482.459,1309.439"/>
	<path stroke="#FFFFFF" stroke-miterlimit="10" d="M189.719,94.789h-104.6c-20.162,0-37.344,7.078-51.719,21.076
		c-14.377,13.998-21.633,31.156-21.633,51.318v671.254c0,20.117,7.256,37.121,21.633,51.318
		c14.375,14.021,31.734,21.053,51.719,21.053h104.6c20.117,0,37.299-7.031,51.719-21.053c14.377-14.02,21.633-31.201,21.633-51.318
		V167.184c0-20.162-7.256-37.121-21.633-51.318C227.018,101.867,209.836,94.789,189.719,94.789L189.719,94.789z M71.145,355.105
		c4.629-5.965,10.637-8.947,18.07-8.947h96.541c7.301,0,13.264,2.982,17.582,8.947c4.273,5.963,6.498,13.797,6.498,23.145
		c0,8.768-2.225,16.223-6.498,22.566c-4.318,6.342-10.281,9.525-17.582,9.525H89.215c-7.256,0-13.441-3.184-18.07-9.525
		c-4.674-6.344-7.123-13.799-7.123-22.566C64.021,368.725,66.471,361.068,71.145,355.105L71.145,355.105z M207.434,652.385
		c-4.273,5.965-10.283,8.947-17.537,8.947H89.215c-7.256,0-13.441-2.982-18.07-8.947c-4.674-5.986-7.123-13.441-7.123-22.031
		c0-9.324,2.449-16.98,7.123-22.566c4.629-5.809,10.637-8.59,18.07-8.59h100.682c7.254,0,13.264,2.781,17.537,8.59
		c4.271,5.785,6.543,13.242,6.543,22.566C213.977,639.121,211.705,646.398,207.434,652.385L207.434,652.385z M207.434,528.85
		c-4.273,5.963-10.283,8.945-17.537,8.945H89.215c-7.256,0-13.441-2.982-18.07-8.945c-4.674-5.988-7.123-13.82-7.123-23.146
		c0-9.324,2.449-17.158,7.123-23.145c4.629-5.965,10.637-8.947,18.07-8.947h100.682c7.254,0,13.264,2.982,17.537,8.947
		c4.271,5.986,6.543,13.82,6.543,23.145C213.977,515.029,211.705,522.861,207.434,528.85L207.434,528.85z M207.434,528.85"/>
	<path stroke="#FFFFFF" stroke-miterlimit="10" d="M908.596,160.107c-3.383-20.162-13.086-36.209-29.154-48.16
		c-16.068-12.129-34.139-16.424-54.301-13.063l-119.51,19.027c-10.104,2.07-19.229,5.607-27.641,10.639
		c-8.412,5.051-15.311,11.395-20.563,19.049c-5.387,7.656-9.125,16.047-11.574,25.193c-2.402,8.945-2.803,18.648-1.469,28.553
		l102.328,649.02c3.338,20.162,13.221,36.053,29.645,47.803c16.469,11.752,34.361,15.846,53.813,12.463l120.621-19.049
		c20.162-3.34,36.053-13.043,47.803-29.109c11.752-16.023,15.846-34.096,12.508-54.303L908.596,160.107L908.596,160.107z
		 M908.596,160.107"/>
	<path stroke="#FFFFFF" stroke-miterlimit="10" d="M505.426,94.789h-113.5c-20.742,0-36.588,7.078-47.27,21.076
		c-10.637,13.998-16.023,31.156-16.023,51.318v671.254c0,20.117,7.078,37.121,21.098,51.318
		c13.977,14.021,31.156,21.053,51.32,21.053h104.598c20.162,0,37.121-7.031,51.32-21.053c14.02-14.02,21.098-31.201,21.098-51.318
		V167.184c0-20.162-7.078-37.121-21.098-51.318C542.592,101.867,525.588,94.789,505.426,94.789L505.426,94.789z M522.65,591.74
		c-4.717,6.344-10.504,9.504-17.225,9.504H400.873c-6.721,0-12.33-3.16-17.182-9.504c-4.674-6.363-7.076-13.998-7.076-22.588
		c0-9.324,2.402-16.98,7.076-23.145c4.674-5.965,10.461-8.969,17.182-8.969h104.553c6.721,0,12.33,3.004,17.225,8.969
		c4.629,5.963,7.078,13.82,7.078,23.145C529.506,577.742,527.279,585.197,522.65,591.74L522.65,591.74z M522.65,464.088
		c-4.717,6.342-10.504,9.523-17.225,9.523H400.873c-6.721,0-12.33-3.182-17.182-9.523c-4.674-6.344-7.076-14.178-7.076-23.703
		c0-9.324,2.402-17.158,7.076-23.145c4.674-5.965,10.461-8.947,17.182-8.947h104.553c6.721,0,12.33,2.982,17.225,8.947
		c4.629,5.986,7.078,13.82,7.078,23.145C529.506,449.732,527.279,457.744,522.65,464.088L522.65,464.088z M522.65,464.088"/>
</g>
</svg>
