<?xml version="1.0" encoding="utf-8"?>
<!-- Generator: Adobe Illustrator 15.0.0, SVG Export Plug-In . SVG Version: 6.00 Build 0)  -->
<!DOCTYPE svg PUBLIC "-//W3C//DTD SVG 1.1//EN" "http://www.w3.org/Graphics/SVG/1.1/DTD/svg11.dtd">
<svg version="1.1" id="图层_1" xmlns="http://www.w3.org/2000/svg" xmlns:xlink="http://www.w3.org/1999/xlink" x="0px" y="0px"
	 width="1024px" height="1024px" viewBox="0 0 1024 1024" enable-background="new 0 0 1024 1024" xml:space="preserve">
<path fill="#231815" d="M953.42,224.02c-0.973-30.626-26.285-59.578-56.273-64.848c0,0-116.334-18.346-181.601-41.631
	C634.051,88.502,553.35,24.779,553.35,24.779c-25.113-18.015-63.703-16.913-86.988,2.557c0,0-57.064,57.639-163.631,91.242
	c-98.364,39.623-177.06,43.636-177.06,43.636c-29.656,3.881-55.212,31.333-55.763,61.938c0,0-4.013,157.611,1.037,295.864
	c1.874,247.398,294.627,492.018,442.539,492.018c145.527,0,397.162-170.399,436.762-488.402
	C960.034,334.863,953.42,224.02,953.42,224.02L953.42,224.02L953.42,224.02z M726.395,441.055L474.674,695.929
	c-10.737,10.894-28.884,12.126-41.21,2.338L302.047,593.749c-24.166-19.183-26.68-52.566-5.337-74.969
	c21.191-22.16,57.639-25.136,82.313-5.819l61.011,47.76l209.627-197.655c21.875-20.595,56.535-19.955,77.878,0.331
	c-0.262-0.265-0.438-0.683-0.703-1.037l1.852,1.809c-0.352-0.354-0.793-0.42-1.148-0.772
	C748.002,385.027,747.739,419.38,726.395,441.055L726.395,441.055L726.395,441.055z"/>
</svg>
