<?xml version="1.0" encoding="utf-8"?>
<!-- Generator: Adobe Illustrator 16.0.0, SVG Export Plug-In . SVG Version: 6.00 Build 0)  -->
<!DOCTYPE svg PUBLIC "-//W3C//DTD SVG 1.1//EN" "http://www.w3.org/Graphics/SVG/1.1/DTD/svg11.dtd">
<svg version="1.1" id="图层_1" xmlns="http://www.w3.org/2000/svg" xmlns:xlink="http://www.w3.org/1999/xlink" x="0px" y="0px"
	 width="1024px" height="1024px" viewBox="0 0 1024 1024" enable-background="new 0 0 1024 1024" xml:space="preserve">
<g>
	<path stroke="#FFFFFF" stroke-miterlimit="10" d="M219.236,452.133l30.945,7.592l4.688,1.135l675.229,165.054l12.867,3.141
		l13.392,3.271c24.392,5.979,40.699-7.678,36.205-30.367l-37.45-189.791c-4.447-22.644-28.074-46.073-52.466-52.007l-152.475-37.303
		l36.923-125.699l35.633-121.247c6.503-22.251-8.084-45.331-32.476-51.266L701.578,2.962c-24.393-5.978-49.693,7.373-56.197,29.624
		l-35.632,121.249l-36.922,125.699L414.948,240.92c-24.395-5.978-57.681,3.534-73.944,21.161L204.506,409.376
		C188.196,426.916,194.844,446.199,219.236,452.133L219.236,452.133z M918.046,687.124L238.704,521.067
		c-14.589,63.221-38.215,137.873-108.043,168.502c-97.713,42.889-90.969,117.625-42.519,158.375l115.313,28.188
		c15.495-11.346,101.729-76.834,144.103-153.928c7.845-16.23,12.867-27.051,12.867-27.051c-3.541,9.119-7.988,18.15-12.867,27.051
		c-24.056,49.738-75.041,151.92-94.553,166.057l83.458,20.375c15.495-11.344,101.729-76.832,144.105-153.973
		c7.843-16.229,12.913-26.961,12.913-26.961c-3.539,9.074-8.034,18.063-12.913,26.961c-24.058,49.783-75.042,152.01-94.556,166.057
		l105.172,25.742c15.497-11.344,101.778-76.832,144.105-153.928c7.842-16.229,12.915-27.049,12.915-27.049
		c-3.542,9.162-8.037,18.15-12.915,27.049c-24.059,49.74-75.041,151.922-94.557,166.057l105.652,25.83
		c15.449-11.344,101.73-76.875,144.104-153.971c7.843-16.23,12.912-27.006,12.912-27.006c-3.538,9.074-8.033,18.105-12.912,27.006
		c-24.059,49.781-75.088,151.963-94.556,166.057l106.226,25.959c0,0,76.813-5.758,87.572-82.373
		C905.037,830.843,916.038,770.763,918.046,687.124L918.046,687.124z M918.046,687.124"/>
</g>
</svg>
