<?xml version="1.0" encoding="utf-8"?>
<!-- Generator: Adobe Illustrator 15.0.0, SVG Export Plug-In . SVG Version: 6.00 Build 0)  -->
<!DOCTYPE svg PUBLIC "-//W3C//DTD SVG 1.1//EN" "http://www.w3.org/Graphics/SVG/1.1/DTD/svg11.dtd">
<svg version="1.1" id="图层_1" xmlns="http://www.w3.org/2000/svg" xmlns:xlink="http://www.w3.org/1999/xlink" x="0px" y="0px"
	 width="1024px" height="1024px" viewBox="0 0 1024 1024" enable-background="new 0 0 1024 1024" xml:space="preserve">
<path fill="#231815" d="M511.997,10C234.739,10,10,234.738,10,512.003C10,789.244,234.739,1014,511.997,1014
	C789.233,1014,1014,789.244,1014,512.003C1014,234.738,789.233,10,511.997,10L511.997,10L511.997,10z M109.088,547.557
	c-19.795,0-35.848-16.021-35.848-35.847c0-19.801,16.053-35.847,35.848-35.847c19.8,0,35.87,16.046,35.87,35.847
	C144.958,531.535,128.889,547.557,109.088,547.557L109.088,547.557L109.088,547.557z M511.997,73.247
	c19.8,0,35.847,16.046,35.847,35.865c0,19.801-16.047,35.854-35.847,35.854s-35.847-16.053-35.847-35.854
	C476.15,89.292,492.197,73.247,511.997,73.247L511.997,73.247L511.997,73.247z M511.997,954.132
	c-19.8,0-35.847-16.048-35.847-35.847c0-19.814,16.046-35.872,35.847-35.872s35.847,16.058,35.847,35.872
	C547.844,938.084,531.797,954.132,511.997,954.132L511.997,954.132L511.997,954.132z M806.665,296.046L613.225,476.838
	c15.33,38.812,7.342,84.733-24.063,116.131c-42.174,42.184-110.573,42.184-152.746,0c-31.519-31.507-39.482-77.667-23.902-116.58
	L279.374,355.898c-16.596-16.579-16.596-43.488,0-60.065c16.596-16.597,43.481-16.597,60.06,0L472.593,416.33
	c25.893-10.373,54.984-10.313,80.835,0.174l193.166-180.515c16.572-16.598,43.475-16.598,60.07,0
	C823.262,252.566,823.262,279.475,806.665,296.046L806.665,296.046L806.665,296.046z M914.877,547.845
	c-19.801,0-35.848-16.048-35.848-35.842c0-19.819,16.047-35.87,35.848-35.87c19.824,0,35.869,16.051,35.869,35.87
	C950.747,531.797,934.702,547.845,914.877,547.845L914.877,547.845L914.877,547.845z"/>
</svg>
