<?xml version="1.0" encoding="utf-8"?>
<!-- Generator: Adobe Illustrator 16.0.0, SVG Export Plug-In . SVG Version: 6.00 Build 0)  -->
<!DOCTYPE svg PUBLIC "-//W3C//DTD SVG 1.1//EN" "http://www.w3.org/Graphics/SVG/1.1/DTD/svg11.dtd">
<svg version="1.1" id="图层_1" xmlns="http://www.w3.org/2000/svg" xmlns:xlink="http://www.w3.org/1999/xlink" x="0px" y="0px"
	 width="1024px" height="1024px" viewBox="0 0 1024 1024" enable-background="new 0 0 1024 1024" xml:space="preserve">
<path fill="none" d="M793.494,6.271H66.506c-91.258,0-165.25,72.941-165.25,162.959v493.523c0,90.018,73.992,162.961,165.25,162.961
	h472.945l313.965,194.014l-81.271-194.014h21.35c91.256,0,165.25-72.943,165.25-162.961V169.23
	C958.744,79.213,884.75,6.271,793.494,6.271L793.494,6.271z M436.186,632.885H105.727c-18.236,0-33.035-16.709-33.035-37.244
	c0-20.58,14.799-37.246,33.035-37.246h330.459c18.236,0,33.033,16.666,33.033,37.246
	C469.219,616.176,454.422,632.885,436.186,632.885L436.186,632.885z M529.141,438.508H99.539c-18.234,0-33.033-16.709-33.033-37.244
	c0-20.582,14.799-37.246,33.033-37.246h429.602c18.236,0,33.035,16.664,33.035,37.246
	C562.176,421.799,547.377,438.508,529.141,438.508L529.141,438.508z M760.459,244.086H99.539c-18.234,0-33.033-16.666-33.033-37.246
	c0-20.535,14.799-37.244,33.033-37.244h660.92c18.236,0,33.035,16.709,33.035,37.244
	C793.494,227.42,778.695,244.086,760.459,244.086L760.459,244.086z M760.459,244.086"/>
<path fill="none" d="M794.494,6.271H67.506c-91.258,0-165.25,72.941-165.25,162.959v493.523c0,90.018,73.992,162.961,165.25,162.961
	h472.945l313.965,194.014l-81.271-194.014h21.35c91.256,0,165.25-72.943,165.25-162.961V169.23
	C959.744,79.213,885.75,6.271,794.494,6.271L794.494,6.271z M437.186,632.885H106.727c-18.236,0-33.035-16.709-33.035-37.244
	c0-20.58,14.799-37.246,33.035-37.246h330.459c18.236,0,33.033,16.666,33.033,37.246
	C470.219,616.176,455.422,632.885,437.186,632.885L437.186,632.885z M530.141,438.508H100.539
	c-18.234,0-33.033-16.709-33.033-37.244c0-20.582,14.799-37.246,33.033-37.246h429.602c18.236,0,33.035,16.664,33.035,37.246
	C563.176,421.799,548.377,438.508,530.141,438.508L530.141,438.508z M761.459,244.086h-660.92
	c-18.234,0-33.033-16.666-33.033-37.246c0-20.535,14.799-37.244,33.033-37.244h660.92c18.236,0,33.035,16.709,33.035,37.244
	C794.494,227.42,779.695,244.086,761.459,244.086L761.459,244.086z M761.459,244.086"/>
<path fill="none" d="M795.494,6.271H68.506c-91.258,0-165.25,72.941-165.25,162.959v493.523c0,90.018,73.992,162.961,165.25,162.961
	h472.945l313.965,194.014l-81.271-194.014h21.35c91.256,0,165.25-72.943,165.25-162.961V169.23
	C960.744,79.213,886.75,6.271,795.494,6.271L795.494,6.271z M438.186,632.885H107.727c-18.236,0-33.035-16.709-33.035-37.244
	c0-20.58,14.799-37.246,33.035-37.246h330.459c18.236,0,33.033,16.666,33.033,37.246
	C471.219,616.176,456.422,632.885,438.186,632.885L438.186,632.885z M531.141,438.508H101.539
	c-18.234,0-33.033-16.709-33.033-37.244c0-20.582,14.799-37.246,33.033-37.246h429.602c18.236,0,33.035,16.664,33.035,37.246
	C564.176,421.799,549.377,438.508,531.141,438.508L531.141,438.508z M762.459,244.086h-660.92
	c-18.234,0-33.033-16.666-33.033-37.246c0-20.535,14.799-37.244,33.033-37.244h660.92c18.236,0,33.035,16.709,33.035,37.244
	C795.494,227.42,780.695,244.086,762.459,244.086L762.459,244.086z M762.459,244.086"/>
<path fill="none" d="M796.494,6.271H69.506c-91.258,0-165.25,72.941-165.25,162.959v493.523c0,90.018,73.992,162.961,165.25,162.961
	h472.945l313.965,194.014l-81.271-194.014h21.35c91.256,0,165.25-72.943,165.25-162.961V169.23
	C961.744,79.213,887.75,6.271,796.494,6.271L796.494,6.271z M439.186,632.885H108.727c-18.236,0-33.035-16.709-33.035-37.244
	c0-20.58,14.799-37.246,33.035-37.246h330.459c18.236,0,33.033,16.666,33.033,37.246
	C472.219,616.176,457.422,632.885,439.186,632.885L439.186,632.885z M532.141,438.508H102.539
	c-18.234,0-33.033-16.709-33.033-37.244c0-20.582,14.799-37.246,33.033-37.246h429.602c18.236,0,33.035,16.664,33.035,37.246
	C565.176,421.799,550.377,438.508,532.141,438.508L532.141,438.508z M763.459,244.086h-660.92
	c-18.234,0-33.033-16.666-33.033-37.246c0-20.535,14.799-37.244,33.033-37.244h660.92c18.236,0,33.035,16.709,33.035,37.244
	C796.494,227.42,781.695,244.086,763.459,244.086L763.459,244.086z M763.459,244.086"/>
<path fill="none" d="M797.494,6.271H70.506c-91.258,0-165.25,72.941-165.25,162.959v493.523c0,90.018,73.992,162.961,165.25,162.961
	h472.945l313.965,194.014l-81.271-194.014h21.35c91.256,0,165.25-72.943,165.25-162.961V169.23
	C962.744,79.213,888.75,6.271,797.494,6.271L797.494,6.271z M440.186,632.885H109.727c-18.236,0-33.035-16.709-33.035-37.244
	c0-20.58,14.799-37.246,33.035-37.246h330.459c18.236,0,33.033,16.666,33.033,37.246
	C473.219,616.176,458.422,632.885,440.186,632.885L440.186,632.885z M533.141,438.508H103.539
	c-18.234,0-33.033-16.709-33.033-37.244c0-20.582,14.799-37.246,33.033-37.246h429.602c18.236,0,33.035,16.664,33.035,37.246
	C566.176,421.799,551.377,438.508,533.141,438.508L533.141,438.508z M764.459,244.086h-660.92
	c-18.234,0-33.033-16.666-33.033-37.246c0-20.535,14.799-37.244,33.033-37.244h660.92c18.236,0,33.035,16.709,33.035,37.244
	C797.494,227.42,782.695,244.086,764.459,244.086L764.459,244.086z M764.459,244.086"/>
<path fill="none" d="M798.494,6.271H71.506c-91.258,0-165.25,72.941-165.25,162.959v493.523c0,90.018,73.992,162.961,165.25,162.961
	h472.945l313.965,194.014l-81.271-194.014h21.35c91.256,0,165.25-72.943,165.25-162.961V169.23
	C963.744,79.213,889.75,6.271,798.494,6.271L798.494,6.271z M441.186,632.885H110.727c-18.236,0-33.035-16.709-33.035-37.244
	c0-20.58,14.799-37.246,33.035-37.246h330.459c18.236,0,33.033,16.666,33.033,37.246
	C474.219,616.176,459.422,632.885,441.186,632.885L441.186,632.885z M534.141,438.508H104.539
	c-18.234,0-33.033-16.709-33.033-37.244c0-20.582,14.799-37.246,33.033-37.246h429.602c18.236,0,33.035,16.664,33.035,37.246
	C567.176,421.799,552.377,438.508,534.141,438.508L534.141,438.508z M765.459,244.086h-660.92
	c-18.234,0-33.033-16.666-33.033-37.246c0-20.535,14.799-37.244,33.033-37.244h660.92c18.236,0,33.035,16.709,33.035,37.244
	C798.494,227.42,783.695,244.086,765.459,244.086L765.459,244.086z M765.459,244.086"/>
<path fill="none" d="M799.494,6.271H72.506c-91.258,0-165.25,72.941-165.25,162.959v493.523c0,90.018,73.992,162.961,165.25,162.961
	h472.945l313.965,194.014l-81.271-194.014h21.35c91.256,0,165.25-72.943,165.25-162.961V169.23
	C964.744,79.213,890.75,6.271,799.494,6.271L799.494,6.271z M442.186,632.885H111.727c-18.236,0-33.035-16.709-33.035-37.244
	c0-20.58,14.799-37.246,33.035-37.246h330.459c18.236,0,33.033,16.666,33.033,37.246
	C475.219,616.176,460.422,632.885,442.186,632.885L442.186,632.885z M535.141,438.508H105.539
	c-18.234,0-33.033-16.709-33.033-37.244c0-20.582,14.799-37.246,33.033-37.246h429.602c18.236,0,33.035,16.664,33.035,37.246
	C568.176,421.799,553.377,438.508,535.141,438.508L535.141,438.508z M766.459,244.086h-660.92
	c-18.234,0-33.033-16.666-33.033-37.246c0-20.535,14.799-37.244,33.033-37.244h660.92c18.236,0,33.035,16.709,33.035,37.244
	C799.494,227.42,784.695,244.086,766.459,244.086L766.459,244.086z M766.459,244.086"/>
<path fill="none" d="M800.494,6.271H73.506c-91.258,0-165.25,72.941-165.25,162.959v493.523c0,90.018,73.992,162.961,165.25,162.961
	h472.945l313.965,194.014l-81.271-194.014h21.35c91.256,0,165.25-72.943,165.25-162.961V169.23
	C965.744,79.213,891.75,6.271,800.494,6.271L800.494,6.271z M443.186,632.885H112.727c-18.236,0-33.035-16.709-33.035-37.244
	c0-20.58,14.799-37.246,33.035-37.246h330.459c18.236,0,33.033,16.666,33.033,37.246
	C476.219,616.176,461.422,632.885,443.186,632.885L443.186,632.885z M536.141,438.508H106.539
	c-18.234,0-33.033-16.709-33.033-37.244c0-20.582,14.799-37.246,33.033-37.246h429.602c18.236,0,33.035,16.664,33.035,37.246
	C569.176,421.799,554.377,438.508,536.141,438.508L536.141,438.508z M767.459,244.086h-660.92
	c-18.234,0-33.033-16.666-33.033-37.246c0-20.535,14.799-37.244,33.033-37.244h660.92c18.236,0,33.035,16.709,33.035,37.244
	C800.494,227.42,785.695,244.086,767.459,244.086L767.459,244.086z M767.459,244.086"/>
<path fill="none" d="M801.494,6.271H74.506c-91.258,0-165.25,72.941-165.25,162.959v493.523c0,90.018,73.992,162.961,165.25,162.961
	h472.945l313.965,194.014l-81.271-194.014h21.35c91.256,0,165.25-72.943,165.25-162.961V169.23
	C966.744,79.213,892.75,6.271,801.494,6.271L801.494,6.271z M444.186,632.885H113.727c-18.236,0-33.035-16.709-33.035-37.244
	c0-20.58,14.799-37.246,33.035-37.246h330.459c18.236,0,33.033,16.666,33.033,37.246
	C477.219,616.176,462.422,632.885,444.186,632.885L444.186,632.885z M537.141,438.508H107.539
	c-18.234,0-33.033-16.709-33.033-37.244c0-20.582,14.799-37.246,33.033-37.246h429.602c18.236,0,33.035,16.664,33.035,37.246
	C570.176,421.799,555.377,438.508,537.141,438.508L537.141,438.508z M768.459,244.086h-660.92
	c-18.234,0-33.033-16.666-33.033-37.246c0-20.535,14.799-37.244,33.033-37.244h660.92c18.236,0,33.035,16.709,33.035,37.244
	C801.494,227.42,786.695,244.086,768.459,244.086L768.459,244.086z M768.459,244.086"/>
<path fill="none" d="M802.494,6.271H75.506c-91.258,0-165.25,72.941-165.25,162.959v493.523c0,90.018,73.992,162.961,165.25,162.961
	h472.945l313.965,194.014l-81.271-194.014h21.35c91.256,0,165.25-72.943,165.25-162.961V169.23
	C967.744,79.213,893.75,6.271,802.494,6.271L802.494,6.271z M445.186,632.885H114.727c-18.236,0-33.035-16.709-33.035-37.244
	c0-20.58,14.799-37.246,33.035-37.246h330.459c18.236,0,33.033,16.666,33.033,37.246
	C478.219,616.176,463.422,632.885,445.186,632.885L445.186,632.885z M538.141,438.508H108.539
	c-18.234,0-33.033-16.709-33.033-37.244c0-20.582,14.799-37.246,33.033-37.246h429.602c18.236,0,33.035,16.664,33.035,37.246
	C571.176,421.799,556.377,438.508,538.141,438.508L538.141,438.508z M769.459,244.086h-660.92
	c-18.234,0-33.033-16.666-33.033-37.246c0-20.535,14.799-37.244,33.033-37.244h660.92c18.236,0,33.035,16.709,33.035,37.244
	C802.494,227.42,787.695,244.086,769.459,244.086L769.459,244.086z M769.459,244.086"/>
<path fill="none" d="M803.494,6.271H76.506c-91.258,0-165.25,72.941-165.25,162.959v493.523c0,90.018,73.992,162.961,165.25,162.961
	h472.945l313.965,194.014l-81.271-194.014h21.35c91.256,0,165.25-72.943,165.25-162.961V169.23
	C968.744,79.213,894.75,6.271,803.494,6.271L803.494,6.271z M446.186,632.885H115.727c-18.236,0-33.035-16.709-33.035-37.244
	c0-20.58,14.799-37.246,33.035-37.246h330.459c18.236,0,33.033,16.666,33.033,37.246
	C479.219,616.176,464.422,632.885,446.186,632.885L446.186,632.885z M539.141,438.508H109.539
	c-18.234,0-33.033-16.709-33.033-37.244c0-20.582,14.799-37.246,33.033-37.246h429.602c18.236,0,33.035,16.664,33.035,37.246
	C572.176,421.799,557.377,438.508,539.141,438.508L539.141,438.508z M770.459,244.086h-660.92
	c-18.234,0-33.033-16.666-33.033-37.246c0-20.535,14.799-37.244,33.033-37.244h660.92c18.236,0,33.035,16.709,33.035,37.244
	C803.494,227.42,788.695,244.086,770.459,244.086L770.459,244.086z M770.459,244.086"/>
<path fill="none" d="M804.494,6.271H77.506c-91.258,0-165.25,72.941-165.25,162.959v493.523c0,90.018,73.992,162.961,165.25,162.961
	h472.945l313.965,194.014l-81.271-194.014h21.35c91.256,0,165.25-72.943,165.25-162.961V169.23
	C969.744,79.213,895.75,6.271,804.494,6.271L804.494,6.271z M447.186,632.885H116.727c-18.236,0-33.035-16.709-33.035-37.244
	c0-20.58,14.799-37.246,33.035-37.246h330.459c18.236,0,33.033,16.666,33.033,37.246
	C480.219,616.176,465.422,632.885,447.186,632.885L447.186,632.885z M540.141,438.508H110.539
	c-18.234,0-33.033-16.709-33.033-37.244c0-20.582,14.799-37.246,33.033-37.246h429.602c18.236,0,33.035,16.664,33.035,37.246
	C573.176,421.799,558.377,438.508,540.141,438.508L540.141,438.508z M771.459,244.086h-660.92
	c-18.234,0-33.033-16.666-33.033-37.246c0-20.535,14.799-37.244,33.033-37.244h660.92c18.236,0,33.035,16.709,33.035,37.244
	C804.494,227.42,789.695,244.086,771.459,244.086L771.459,244.086z M771.459,244.086"/>
<path fill="none" d="M805.494,6.271H78.506c-91.258,0-165.25,72.941-165.25,162.959v493.523c0,90.018,73.992,162.961,165.25,162.961
	h472.945l313.965,194.014l-81.271-194.014h21.35c91.256,0,165.25-72.943,165.25-162.961V169.23
	C970.744,79.213,896.75,6.271,805.494,6.271L805.494,6.271z M448.186,632.885H117.727c-18.236,0-33.035-16.709-33.035-37.244
	c0-20.58,14.799-37.246,33.035-37.246h330.459c18.236,0,33.033,16.666,33.033,37.246
	C481.219,616.176,466.422,632.885,448.186,632.885L448.186,632.885z M541.141,438.508H111.539
	c-18.234,0-33.033-16.709-33.033-37.244c0-20.582,14.799-37.246,33.033-37.246h429.602c18.236,0,33.035,16.664,33.035,37.246
	C574.176,421.799,559.377,438.508,541.141,438.508L541.141,438.508z M772.459,244.086h-660.92
	c-18.234,0-33.033-16.666-33.033-37.246c0-20.535,14.799-37.244,33.033-37.244h660.92c18.236,0,33.035,16.709,33.035,37.244
	C805.494,227.42,790.695,244.086,772.459,244.086L772.459,244.086z M772.459,244.086"/>
<path fill="none" d="M806.494,6.271H79.506c-91.258,0-165.25,72.941-165.25,162.959v493.523c0,90.018,73.992,162.961,165.25,162.961
	h472.945l313.965,194.014l-81.271-194.014h21.35c91.256,0,165.25-72.943,165.25-162.961V169.23
	C971.744,79.213,897.75,6.271,806.494,6.271L806.494,6.271z M449.186,632.885H118.727c-18.236,0-33.035-16.709-33.035-37.244
	c0-20.58,14.799-37.246,33.035-37.246h330.459c18.236,0,33.033,16.666,33.033,37.246
	C482.219,616.176,467.422,632.885,449.186,632.885L449.186,632.885z M542.141,438.508H112.539
	c-18.234,0-33.033-16.709-33.033-37.244c0-20.582,14.799-37.246,33.033-37.246h429.602c18.236,0,33.035,16.664,33.035,37.246
	C575.176,421.799,560.377,438.508,542.141,438.508L542.141,438.508z M773.459,244.086h-660.92
	c-18.234,0-33.033-16.666-33.033-37.246c0-20.535,14.799-37.244,33.033-37.244h660.92c18.236,0,33.035,16.709,33.035,37.244
	C806.494,227.42,791.695,244.086,773.459,244.086L773.459,244.086z M773.459,244.086"/>
<path fill="none" d="M807.494,6.271H80.506c-91.258,0-165.25,72.941-165.25,162.959v493.523c0,90.018,73.992,162.961,165.25,162.961
	h472.945l313.965,194.014l-81.271-194.014h21.35c91.256,0,165.25-72.943,165.25-162.961V169.23
	C972.744,79.213,898.75,6.271,807.494,6.271L807.494,6.271z M450.186,632.885H119.727c-18.236,0-33.035-16.709-33.035-37.244
	c0-20.58,14.799-37.246,33.035-37.246h330.459c18.236,0,33.033,16.666,33.033,37.246
	C483.219,616.176,468.422,632.885,450.186,632.885L450.186,632.885z M543.141,438.508H113.539
	c-18.234,0-33.033-16.709-33.033-37.244c0-20.582,14.799-37.246,33.033-37.246h429.602c18.236,0,33.035,16.664,33.035,37.246
	C576.176,421.799,561.377,438.508,543.141,438.508L543.141,438.508z M774.459,244.086h-660.92
	c-18.234,0-33.033-16.666-33.033-37.246c0-20.535,14.799-37.244,33.033-37.244h660.92c18.236,0,33.035,16.709,33.035,37.244
	C807.494,227.42,792.695,244.086,774.459,244.086L774.459,244.086z M774.459,244.086"/>
<path stroke="#FFFFFF" stroke-miterlimit="10" d="M862.895,31.771H167.617c-87.277,0-158.042,69.271-158.042,154.759v468.688
	c0,85.488,70.765,154.761,158.042,154.761h452.315l300.271,184.251l-77.727-184.251h20.418c87.275,0,158.042-69.272,158.042-154.761
	V186.529C1020.937,101.042,950.17,31.771,862.895,31.771L862.895,31.771z M521.172,626.852H205.127
	c-17.441,0-31.594-15.867-31.594-35.369c0-19.545,14.153-35.372,31.594-35.372h316.045c17.44,0,31.592,15.827,31.592,35.372
	C552.764,610.984,538.612,626.852,521.172,626.852L521.172,626.852z M610.072,442.256H199.209c-17.439,0-31.592-15.868-31.592-35.37
	c0-19.546,14.153-35.372,31.592-35.372h410.863c17.44,0,31.594,15.825,31.594,35.372
	C641.666,426.388,627.513,442.256,610.072,442.256L610.072,442.256z M831.301,257.618H199.209
	c-17.439,0-31.592-15.828-31.592-35.372c0-19.502,14.153-35.37,31.592-35.37h632.091c17.44,0,31.594,15.868,31.594,35.37
	C862.895,241.791,848.741,257.618,831.301,257.618L831.301,257.618z M831.301,257.618"/>
</svg>
