<?xml version="1.0" encoding="utf-8"?>
<!-- Generator: Adobe Illustrator 16.0.0, SVG Export Plug-In . SVG Version: 6.00 Build 0)  -->
<!DOCTYPE svg PUBLIC "-//W3C//DTD SVG 1.1//EN" "http://www.w3.org/Graphics/SVG/1.1/DTD/svg11.dtd">
<svg version="1.1" id="图层_1" xmlns="http://www.w3.org/2000/svg" xmlns:xlink="http://www.w3.org/1999/xlink" x="0px" y="0px"
	 width="1024px" height="1024px" viewBox="0 0 1024 1024" enable-background="new 0 0 1024 1024" xml:space="preserve">
<path stroke="#FFFFFF" stroke-miterlimit="10" d="M990.938,590.239c20.5-25.047,33.063-58.805,33.063-95.789
	c0-76.879-54.253-139.456-120.88-139.456H666.979l7.877-60.184c4.125-30.926,2.374-76.226-4.189-107.295l-19.438-92.052
	C639.728,41.016,594.725,0,546.534,0h-12.938c-54.254,0-98.445,51.252-98.445,114.195v97.64v6.392L298.269,429.333H0V1024h255.953
	v-66.065l79.693,42.688C361.21,1014.271,400.024,1024,428.09,1024h387.148c66.63,0,120.882-62.436,120.882-139.386
	c0-11.903-1.313-23.377-3.75-34.41c20.5-24.9,33.128-58.656,33.128-95.682c0-11.905-1.314-23.375-3.752-34.482
	c20.377-24.898,32.878-58.583,32.878-95.608C994.624,612.599,993.311,601.129,990.938,590.239z M903.12,559.603h-29.316
	c31.313,0,56.817,29.039,56.817,64.828c0,35.935-25.503,65.189-56.817,65.189h-29.44c31.565,0,57.13,29.111,57.13,64.901
	c0,35.863-25.564,65.047-57.13,65.047h-29.124c31.438,0,56.878,29.257,56.878,65.046c0,35.861-25.439,65.048-56.878,65.048H428.09
	c-18.877,0-48.44-7.333-65.63-16.554l-106.506-57.062V503.668h74.192l169.011-260.615v-31.219v-97.64
	c0-21.925,15.439-39.857,34.44-39.857h12.938c18.938,0,38,17.426,42.502,38.769l19.5,92.342c4.5,21.344,6.001,56.479,3.064,78.257
	L591.1,429.333H903.12c31.377,0,56.876,29.183,56.876,65.118C959.996,530.275,934.496,559.603,903.12,559.603z"/>
</svg>
