<?xml version="1.0" encoding="utf-8"?>
<!-- Generator: Adobe Illustrator 15.0.0, SVG Export Plug-In . SVG Version: 6.00 Build 0)  -->
<!DOCTYPE svg PUBLIC "-//W3C//DTD SVG 1.1//EN" "http://www.w3.org/Graphics/SVG/1.1/DTD/svg11.dtd">
<svg version="1.1" id="图层_1" xmlns="http://www.w3.org/2000/svg" xmlns:xlink="http://www.w3.org/1999/xlink" x="0px" y="0px"
	 width="1024px" height="1024px" viewBox="0 0 1024 1024" enable-background="new 0 0 1024 1024" xml:space="preserve">
<image overflow="visible" width="105" height="90" xlink:href="B1194F32.jpg"  transform="matrix(1 0 0 1 459.3599 467.9453)">
</image>
<path fill="#231815" d="M511.997,10.275c-276.671,0-501.724,225.048-501.724,501.72c0,276.677,225.053,501.729,501.724,501.729
	c276.677,0,501.73-225.053,501.73-501.729C1013.727,235.323,788.674,10.275,511.997,10.275L511.997,10.275L511.997,10.275z
	 M511.997,870.776c-29.676,0-53.752-24.098-53.752-53.753c0-29.676,24.076-53.751,53.752-53.751
	c29.677,0,53.751,24.075,53.751,53.751C565.749,846.679,541.674,870.776,511.997,870.776L511.997,870.776L511.997,870.776z
	 M611.194,504.361c-31.17,31.152-63.357,63.333-63.357,92.241v60.612c0,19.789-16.057,35.824-35.839,35.824
	c-19.782,0-35.84-16.035-35.84-35.824v-60.612c0-58.617,44.804-103.428,84.353-142.943c29.008-29.001,58.992-58.969,58.992-82.866
	c0-59.748-48.225-108.338-107.505-108.338c-60.283,0-107.504,46.513-107.504,105.905c0,19.783-16.057,35.84-35.84,35.84
	c-19.788,0-35.846-16.057-35.846-35.84c0-97.904,80.377-177.586,179.19-177.586c98.818,0,179.195,80.755,179.195,180.019
	C691.192,424.4,650.502,465.047,611.194,504.361L611.194,504.361L611.194,504.361z"/>
</svg>
