<?xml version="1.0" encoding="utf-8"?>
<!-- Generator: Adobe Illustrator 16.0.0, SVG Export Plug-In . SVG Version: 6.00 Build 0)  -->
<!DOCTYPE svg PUBLIC "-//W3C//DTD SVG 1.1//EN" "http://www.w3.org/Graphics/SVG/1.1/DTD/svg11.dtd">
<svg version="1.1" id="图层_1" xmlns="http://www.w3.org/2000/svg" xmlns:xlink="http://www.w3.org/1999/xlink" x="0px" y="0px"
	 width="1024px" height="1024px" viewBox="0 0 1024 1024" enable-background="new 0 0 1024 1024" xml:space="preserve">
<g>
	<path stroke="#FFFFFF" stroke-miterlimit="10" d="M514.205,1013.83c276.906-0.953,500.473-226.143,499.613-503.096
		C1012.816,233.877,787.58,10.264,510.746,11.17c-276.809,0.953-500.494,226.143-499.564,503
		C12.16,791.123,237.371,1014.736,514.205,1013.83L514.205,1013.83L514.205,1013.83z M447.891,272.809
		c-0.072-19.656,15.982-35.734,35.566-35.783l56.227-0.189c19.561-0.096,35.639,15.838,35.732,35.494l0.813,247.469
		c0.096,19.609-15.889,35.734-35.545,35.83l-56.152,0.143c-19.586,0.049-35.711-15.887-35.783-35.543L447.891,272.809
		L447.891,272.809L447.891,272.809z M449.297,696.516c-0.07-19.561,16.006-35.734,35.568-35.83l56.152-0.143
		c19.656-0.049,35.783,15.887,35.879,35.543l0.189,56.105c0.096,19.656-15.934,35.734-35.543,35.83l-56.201,0.191
		c-19.584,0.096-35.711-15.936-35.781-35.543L449.297,696.516L449.297,696.516L449.297,696.516z M449.297,696.516"/>
</g>
</svg>
