<?xml version="1.0" encoding="utf-8"?>
<!-- Generator: Adobe Illustrator 15.0.0, SVG Export Plug-In . SVG Version: 6.00 Build 0)  -->
<!DOCTYPE svg PUBLIC "-//W3C//DTD SVG 1.1//EN" "http://www.w3.org/Graphics/SVG/1.1/DTD/svg11.dtd">
<svg version="1.1" id="图层_1" xmlns="http://www.w3.org/2000/svg" xmlns:xlink="http://www.w3.org/1999/xlink" x="0px" y="0px"
	 width="1024px" height="1024px" viewBox="0 0 1024 1024" enable-background="new 0 0 1024 1024" xml:space="preserve">
<path fill="#231815" d="M511.998,11.025c-276.755,0-500.973,224.271-500.973,500.995c0,276.695,224.218,500.955,500.973,500.955
	c276.706,0,500.979-224.26,500.979-500.955C1012.976,235.296,788.657,11.025,511.998,11.025L511.998,11.025L511.998,11.025z
	 M412.157,528.666l226.476-223.374l78.09,80.506L493.323,612.885l-81.166-84.242V528.666L412.157,528.666z M473.801,623.838
	l-123.347,52.494l47.627-126.953l75.72,74.482V623.838L473.801,623.838z M748.08,770.184h-0.047c0,6.779-5.565,12.318-12.308,12.318
	H250.544c-6.833,0-12.32-5.539-12.32-12.318V288.665c0-6.857,5.471-12.327,12.32-12.327h344.822l-50.479,53.616H302.409
	c-5.605,0-10.203,4.698-10.203,10.357v378.357c0,5.656,4.598,10.256,10.203,10.256h381.327c5.659,0,10.303-4.6,10.303-10.256V476.43
	l54.041-50.084V770.184L748.08,770.184L748.08,770.184z M781.087,324.219c-10.609,11.895-45.079,46.683-45.079,46.683l-81.79-81.455
	l40.199-40.153c0,0,18.366-17.5,42.18,0c23.791,17.324,44.443,40.153,44.443,40.153S791.699,312.3,781.087,324.219L781.087,324.219
	L781.087,324.219z"/>
</svg>
