<?xml version="1.0" encoding="utf-8"?>
<!-- Generator: Adobe Illustrator 16.0.0, SVG Export Plug-In . SVG Version: 6.00 Build 0)  -->
<!DOCTYPE svg PUBLIC "-//W3C//DTD SVG 1.1//EN" "http://www.w3.org/Graphics/SVG/1.1/DTD/svg11.dtd">
<svg version="1.1" id="图层_1" xmlns="http://www.w3.org/2000/svg" xmlns:xlink="http://www.w3.org/1999/xlink" x="0px" y="0px"
	 width="1024px" height="1024px" viewBox="0 0 1024 1024" enable-background="new 0 0 1024 1024" xml:space="preserve">
<g>
	<path stroke="#FFFFFF" stroke-miterlimit="10" d="M1013.885,247.9c-2.682,22.543-12.682,44.225-29.682,61.451L586.496,707.877
		c-40.725,40.771-107.268,40.771-147.971,0L40.818,309.352C23.66,292.125,13.707,270.307,11.094,247.9
		c-0.523,4.271-0.842,8.59-0.842,12.998V806.1c0,57.68,47.088,104.857,104.631,104.857h795.234
		c57.543,0,104.631-47.178,104.631-104.857V260.898C1014.748,256.49,1014.385,252.172,1013.885,247.9L1013.885,247.9L1013.885,247.9
		z M586.496,631.518l416.934-417.799c-17.271-34.18-52.725-57.678-93.313-57.678H114.883c-40.588,0-76.064,23.498-93.313,57.678
		l416.955,417.799C479.207,672.334,545.771,672.334,586.496,631.518L586.496,631.518L586.496,631.518z"/>
</g>
</svg>
