<?xml version="1.0" encoding="utf-8"?>
<!-- Generator: Adobe Illustrator 16.0.0, SVG Export Plug-In . SVG Version: 6.00 Build 0)  -->
<!DOCTYPE svg PUBLIC "-//W3C//DTD SVG 1.1//EN" "http://www.w3.org/Graphics/SVG/1.1/DTD/svg11.dtd">
<svg version="1.1" id="图层_1" xmlns="http://www.w3.org/2000/svg" xmlns:xlink="http://www.w3.org/1999/xlink" x="0px" y="0px"
	 width="1024px" height="1024px" viewBox="0 0 1024 1024" enable-background="new 0 0 1024 1024" xml:space="preserve">
<path stroke="#FFFFFF" stroke-miterlimit="10" d="M512,39.14c-259.71,0-470.36,211.053-470.36,471.372S252.265,981.859,512,981.859
	c259.76,0,470.36-210.979,470.36-471.348C982.36,250.243,771.76,39.14,512,39.14L512,39.14z M704.838,641.336
	c8.005,7.973,12.934,19.004,12.934,31.214c0,24.42-19.714,44.177-44.081,44.177c-12.108,0-23.191-4.939-31.147-12.962L512,573.016
	L381.557,703.814c-8.03,8.023-19.038,12.962-31.247,12.962c-24.292,0-44.057-19.756-44.057-44.201
	c0-12.21,4.929-23.217,12.909-31.189l130.519-130.874L319.188,379.738c-7.98-8.023-12.909-19.055-12.909-31.265
	c0-24.395,19.739-44.176,44.106-44.176c12.134,0,23.167,4.914,31.147,12.911l130.442,130.799L642.518,317.26
	c7.981-7.998,19.039-12.938,31.147-12.938c24.343,0,44.106,19.757,44.106,44.177c0,12.234-4.953,23.267-12.959,31.289
	L574.369,510.512L704.838,641.336L704.838,641.336z M704.838,641.336"/>
</svg>
