<?xml version="1.0" encoding="utf-8"?>
<!-- Generator: Adobe Illustrator 16.0.0, SVG Export Plug-In . SVG Version: 6.00 Build 0)  -->
<!DOCTYPE svg PUBLIC "-//W3C//DTD SVG 1.1//EN" "http://www.w3.org/Graphics/SVG/1.1/DTD/svg11.dtd">
<svg version="1.1" id="图层_1" xmlns="http://www.w3.org/2000/svg" xmlns:xlink="http://www.w3.org/1999/xlink" x="0px" y="0px"
	 width="1024px" height="1024px" viewBox="0 0 1024 1024" enable-background="new 0 0 1024 1024" xml:space="preserve">
<g>
	<path stroke="#FFFFFF" stroke-miterlimit="10" d="M992.819,210.379L692.407,512.918l300.412,300.703
		c12.469,12.559,12.469,32.922,0,45.504L856.364,995.613c-12.469,12.555-32.805,12.555-45.33,0l-299.889-300.18l-298.082,300.18
		c-12.586,12.555-32.92,12.555-45.418,0L31.247,859.125c-12.557-12.582-12.557-32.945,0-45.504l298.082-300.18L31.247,215.039
		c-12.557-12.527-12.557-32.918,0-45.477L167.646,33.078c12.498-12.555,32.832-12.555,45.418,0L510.62,330.871L811.034,28.387
		c12.525-12.555,32.861-12.555,45.33,0l136.455,136.516C1005.288,177.457,1005.288,197.82,992.819,210.379L992.819,210.379
		L992.819,210.379z M992.819,210.379"/>
</g>
</svg>
