<?xml version="1.0" encoding="utf-8"?>
<!-- Generator: Adobe Illustrator 16.0.0, SVG Export Plug-In . SVG Version: 6.00 Build 0)  -->
<!DOCTYPE svg PUBLIC "-//W3C//DTD SVG 1.1//EN" "http://www.w3.org/Graphics/SVG/1.1/DTD/svg11.dtd">
<svg version="1.1" id="图层_1" xmlns="http://www.w3.org/2000/svg" xmlns:xlink="http://www.w3.org/1999/xlink" x="0px" y="0px"
	 width="1024px" height="1024px" viewBox="0 0 1024 1024" enable-background="new 0 0 1024 1024" xml:space="preserve">
<path stroke="#FFFFFF" stroke-miterlimit="10" d="M639.522,1021.426c0-61.738,0.16-119.841-0.042-177.898
	c-0.198-47.202-8.198-57.377-45.717-57.604c-55.757-0.272-111.513-0.229-167.271,0c-38.239,0.182-45.476,8.541-46.116,57.014
	c-0.721,58.01-0.162,116.067-0.162,176.762c-10.559,1.454-17.917,3.406-25.318,3.451c-50.557,0.272-101.075,0.773-151.633-0.045
	c-59.957-0.952-74.117-19.488-73.676-92.174c0.359-65.69-0.481-131.378,0.999-196.977c0.279-13.083,5.84-29.482,13.518-38.344
	C244.86,579.77,346.294,464.79,447.93,350.084c40.519-45.793,88.357-46.339,128.996-0.092
	C678.8,465.971,780.075,582.769,880.909,700.109c7.12,8.224,12.039,23.67,12.24,35.936c1.16,68.915,0.96,137.874,0.4,206.791
	c-0.361,45.609-18.559,76.139-52.64,77.729C774.954,1023.606,708.878,1021.426,639.522,1021.426L639.522,1021.426z M500.249-0.445
	c49.636-0.137,75.516,20.214,98.754,48.063c89.516,107.123,179.192,214.105,268.748,321.181
	c41.358,49.425,82.557,99.033,123.834,148.55c4.359,5.269,8.719,10.63,12.758,16.263c22.96,32.165,26.038,66.689,8.479,93.675
	c-18.478,28.483-55.557,35.161-83.154,14.22c-7.32-5.589-13.959-12.857-20.239-20.218
	C807.473,502.178,705.518,382.972,603.764,263.54c-75.317-88.404-104.156-89.131-180.23-1.727
	C322.017,378.429,221.341,496.09,119.068,611.567c-14.441,16.31-35.119,27.53-54.398,33.072
	c-25.318,7.269-46.198-8.63-57.997-37.523c-11.839-28.938-7.16-56.924,9.559-81.045c9.6-13.811,20.88-25.893,31.681-38.341
	C173.345,342.722,298.897,198.077,424.093,52.797C450.332,22.359,478.971-0.082,500.249-0.445L500.249-0.445z"/>
</svg>
