<?xml version="1.0" encoding="utf-8"?>
<!-- Generator: Adobe Illustrator 16.0.0, SVG Export Plug-In . SVG Version: 6.00 Build 0)  -->
<!DOCTYPE svg PUBLIC "-//W3C//DTD SVG 1.1//EN" "http://www.w3.org/Graphics/SVG/1.1/DTD/svg11.dtd">
<svg version="1.1" id="图层_1" xmlns="http://www.w3.org/2000/svg" xmlns:xlink="http://www.w3.org/1999/xlink" x="0px" y="0px"
	 width="1024px" height="1024px" viewBox="0 0 1024 1024" enable-background="new 0 0 1024 1024" xml:space="preserve">
<path stroke="#FFFFFF" stroke-miterlimit="10" d="M845.257,844.104c-8.184,6.177-17.731,9.265-28.643,9.265
	c-13.641,0-25.404-4.973-35.294-14.924c-9.888-9.951-14.832-21.787-14.832-35.509c0-15.096,5.795-27.788,17.39-38.166
	c0.683-0.689,1.365-1.202,2.047-1.544c0.681-0.342,1.364-0.857,2.045-1.545l1.023-1.03c19.093-13.036,36.826-28.476,53.193-46.314
	c16.367-17.837,30.689-37.223,42.965-58.15c12.274-20.927,21.823-43.228,28.643-66.9c6.82-23.737,10.229-48.266,10.229-73.696
	c0-51.462-12.957-98.465-38.872-141.049c-25.914-42.583-58.308-77.578-97.18-105.023c-14.322-10.292-21.482-24.016-21.482-41.168
	c0-13.725,4.943-25.602,14.832-35.551c9.889-9.951,21.652-14.926,35.294-14.926c11.592,0,21.822,3.775,30.687,11.324
	c25.235,17.883,48.765,38.639,70.586,62.311c21.822,23.672,40.576,49.403,56.263,77.192c15.685,27.831,27.959,57.55,36.825,89.113
	c8.866,31.565,13.301,64.155,13.301,97.778c0,34.351-4.435,67.265-13.301,98.913c-8.866,31.563-21.313,61.409-37.337,89.543
	c-16.027,28.132-34.953,54.033-56.776,77.792C895.04,805.509,871.171,826.265,845.257,844.104L845.257,844.104z M787.972,381.747
	c14.321,19.939,25.742,40.011,34.27,60.253c8.525,20.241,12.784,44.771,12.784,73.589c0,27.488-4.434,52.19-13.297,74.211
	c-8.867,21.956-20.12,41.855-33.757,59.694c-5.456,7.548-11.253,14.24-17.391,20.07c-6.139,5.832-13.981,8.751-23.529,8.751
	c-12.274,0-22.674-4.46-31.2-13.383c-8.526-8.919-12.785-19.554-12.785-31.905c0-5.487,1.022-10.975,3.068-16.465h-1.023
	c3.409-7.55,7.502-14.754,12.277-21.615c4.773-6.86,9.376-13.981,13.807-21.163c4.435-7.206,8.184-15.438,11.252-24.703
	c3.07-9.262,4.604-20.454,4.604-33.491c0-12.351-1.533-23.159-4.604-32.421c-3.067-9.261-6.817-17.669-11.252-25.216
	c-4.431-7.547-9.033-14.752-13.807-21.615c-4.775-6.859-8.526-14.066-11.254-21.614c-2.046-4.801-3.068-10.291-3.068-16.468
	c0-12.395,4.26-23.027,12.785-31.947c8.525-8.919,18.926-13.38,31.2-13.38c9.549,0,17.391,2.916,23.529,8.749
	C776.718,367.508,782.517,374.199,787.972,381.747L787.972,381.747z M457.536,993.428c-34.779-31.563-71.605-64.584-110.478-98.891
	c-38.874-34.307-75.016-65.872-108.433-94.688c-38.872-33.022-77.745-65.614-116.617-97.864c-7.502,0.688-15.002,1.03-22.504,1.03
	c-6.138,0.688-12.615,1.03-19.435,1.03H62.677c-18.414,0-33.417-5.662-45.01-16.982C6.073,675.742,0.276,662.191,0.276,646.41
	V386.892h1.022l-1.022-1.029c0-19.211,5.966-34.991,17.9-47.343c11.935-12.395,26.767-18.57,44.5-18.57h58.309
	c62.742-53.521,119.684-101.55,170.832-144.134c21.824-18.527,43.305-36.582,64.447-54.079
	c21.143-17.495,40.237-33.448,57.287-47.859c17.049-14.41,31.371-26.417,42.963-36.022c11.594-9.606,18.756-15.438,21.482-17.541
	c20.46-15.095,36.999-21.957,49.613-20.583c12.615,1.372,22.525,7.545,29.686,18.524c7.159,11.022,12.104,24.401,14.835,40.183
	c2.727,15.783,4.09,30.191,4.09,43.229V932.62v3.086c0,13.036-2.385,26.931-7.158,41.769c-4.775,14.752-12.105,26.416-21.994,34.995
	c-9.909,8.577-22.356,12.179-37.36,10.807C494.702,1021.903,477.313,1011.955,457.536,993.428L457.536,993.428z"/>
</svg>
