<?xml version="1.0" encoding="utf-8"?>
<!-- Generator: Adobe Illustrator 16.0.0, SVG Export Plug-In . SVG Version: 6.00 Build 0)  -->
<!DOCTYPE svg PUBLIC "-//W3C//DTD SVG 1.1//EN" "http://www.w3.org/Graphics/SVG/1.1/DTD/svg11.dtd">
<svg version="1.1" id="图层_1" xmlns="http://www.w3.org/2000/svg" xmlns:xlink="http://www.w3.org/1999/xlink" x="0px" y="0px"
	 width="1024px" height="1024px" viewBox="0 0 1024 1024" enable-background="new 0 0 1024 1024" xml:space="preserve">
<g>
	<path stroke="#FFFFFF" stroke-miterlimit="10" d="M399.558,486.021c-100.004,34.022-170.209,129.668-170.209,240.214
		c0,140.292,114.887,255.095,255.315,255.095c140.411,0,255.315-114.803,255.315-255.095c0-110.546-70.206-204.08-170.209-240.214
		V301.082h170.209V131.023H569.77V45.986H399.558V486.021L399.558,486.021z M569.77,726.234c0,46.758-38.28,85.036-85.106,85.036
		c-46.81,0-85.105-38.278-85.105-85.036c0-46.76,38.296-85.039,85.105-85.039C531.489,641.195,569.77,679.475,569.77,726.234
		L569.77,726.234z M569.77,726.234"/>
</g>
</svg>
