<?xml version="1.0" encoding="utf-8"?>
<!-- Generator: Adobe Illustrator 16.0.0, SVG Export Plug-In . SVG Version: 6.00 Build 0)  -->
<!DOCTYPE svg PUBLIC "-//W3C//DTD SVG 1.1//EN" "http://www.w3.org/Graphics/SVG/1.1/DTD/svg11.dtd">
<svg version="1.1" id="图层_1" xmlns="http://www.w3.org/2000/svg" xmlns:xlink="http://www.w3.org/1999/xlink" x="0px" y="0px"
	 width="1024px" height="1024px" viewBox="0 0 1024 1024" enable-background="new 0 0 1024 1024" xml:space="preserve">
<path stroke="#FFFFFF" stroke-miterlimit="10" d="M512.498,988.9C236.024,988.9,11.1,770.258,11.1,501.5
	c0-268.735,224.924-487.4,501.398-487.4c276.471,0,501.402,218.666,501.402,487.4C1013.9,770.258,788.969,988.9,512.498,988.9
	L512.498,988.9z M512.498,32.856c-265.842,0-482.11,210.229-482.11,468.644c0,258.414,216.273,468.658,482.11,468.658
	c265.838,0,482.13-210.244,482.13-468.658C994.628,243.085,778.336,32.856,512.498,32.856L512.498,32.856z M303.48,745.811h-32.655
	c-68.782,0-124.738-54.395-124.738-121.244c0-66.865,55.956-121.259,124.738-121.259h32.655V745.811L303.48,745.811z
	 M754.191,745.811h-32.675V503.308h32.675c68.762,0,124.719,54.394,124.719,121.259C878.91,691.416,822.953,745.811,754.191,745.811
	L754.191,745.811z M284.208,445.558c0-1.884,2.602-188.368,228.29-188.368c225.709,0,228.314,186.484,228.314,188.368v67.14h-19.296
	v-67.14c-0.023-6.911-2.919-169.611-209.019-169.611c-206.629,0-209.018,162.686-209.018,169.611v100.687l0,0h-19.272
	 M303.48,546.244"/>
</svg>
