<?xml version="1.0" encoding="utf-8"?>
<!-- Generator: Adobe Illustrator 16.0.0, SVG Export Plug-In . SVG Version: 6.00 Build 0)  -->
<!DOCTYPE svg PUBLIC "-//W3C//DTD SVG 1.1//EN" "http://www.w3.org/Graphics/SVG/1.1/DTD/svg11.dtd">
<svg version="1.1" id="图层_1" xmlns="http://www.w3.org/2000/svg" xmlns:xlink="http://www.w3.org/1999/xlink" x="0px" y="0px"
	 width="1024px" height="1024px" viewBox="0 0 1024 1024" enable-background="new 0 0 1024 1024" xml:space="preserve">
<path fill="#FFFFFF" stroke="#000000" stroke-miterlimit="10" d="M512.498,1009.9C237.127,1009.9,13.1,786.323,13.1,511.5
	c0-274.799,224.027-498.4,499.398-498.4c275.368,0,499.402,223.601,499.402,498.4C1011.9,786.323,787.866,1009.9,512.498,1009.9z
	 M753.227,513.349h-13.325v-59.053c0-1.927-2.595-192.62-227.403-192.62c-224.789,0-227.379,190.693-227.379,192.62v59.053h-13.33
	c-68.508,0-124.241,55.622-124.241,123.995c0,68.359,55.733,123.98,124.241,123.98h32.524V557.255v-43.906v-59.053
	c0-7.083,2.38-173.439,208.185-173.439c205.277,0,208.161,166.373,208.185,173.439v59.053v9.602v238.374h32.544
	c68.488,0,124.222-55.621,124.222-123.98C877.448,568.971,821.715,513.349,753.227,513.349z"/>
</svg>
