<?xml version="1.0" encoding="utf-8"?>
<!-- Generator: Adobe Illustrator 15.0.0, SVG Export Plug-In . SVG Version: 6.00 Build 0)  -->
<!DOCTYPE svg PUBLIC "-//W3C//DTD SVG 1.1//EN" "http://www.w3.org/Graphics/SVG/1.1/DTD/svg11.dtd">
<svg version="1.1" id="图层_1" xmlns="http://www.w3.org/2000/svg" xmlns:xlink="http://www.w3.org/1999/xlink" x="0px" y="0px"
	 width="1024px" height="1024px" viewBox="0 0 1024 1024" enable-background="new 0 0 1024 1024" xml:space="preserve">
<path stroke="#FFFFFF" stroke-miterlimit="10" d="M844.953,364.282H741.66v-82.767c0-171.187-76.685-271.85-229.661-271.85
	c-153.015,0-229.659,100.663-229.659,271.85v82.767H167.548c-31.71,0-57.414,38.225-57.414,70.876v461.01
	c0,32.533,24.566,67.265,54.628,77.272l68.679,22.763c30.062,9.967,80.491,18.131,112.083,18.131h332.953
	c31.552,0,82.021-8.164,112.082-18.131l68.68-22.763c30.061-10.008,54.628-44.739,54.628-77.272v-461.01
	C913.866,402.507,876.662,364.282,844.953,364.282L844.953,364.282L844.953,364.282z M397.169,257.89
	c0-85.436,45.799-130.018,114.83-130.018c68.993,0,114.831,44.582,114.831,130.018v106.393H397.169V257.89L397.169,257.89
	L397.169,257.89z"/>
</svg>
