<?xml version="1.0" encoding="utf-8"?>
<!-- Generator: Adobe Illustrator 16.0.0, SVG Export Plug-In . SVG Version: 6.00 Build 0)  -->
<!DOCTYPE svg PUBLIC "-//W3C//DTD SVG 1.1//EN" "http://www.w3.org/Graphics/SVG/1.1/DTD/svg11.dtd">
<svg version="1.1" id="图层_1" xmlns="http://www.w3.org/2000/svg" xmlns:xlink="http://www.w3.org/1999/xlink" x="0px" y="0px"
	 width="1024px" height="1024px" viewBox="0 0 1024 1024" enable-background="new 0 0 1024 1024" xml:space="preserve">
<path stroke="#FFFFFF" stroke-miterlimit="10" d="M1007.756,445.674L866.549,330.062c-27.258-22.34-49.594-11.779-49.594,23.427
	v71.975h-59.626V64.021c0-35.334-28.68-64.02-64.088-64.02H68.286C38.686,0,14.003,20.167,6.661,47.374l-2.462-0.435v17.081v831.936
	v57.198L399.679,1024v-64.021H693.24c35.408,0,64.086-28.643,64.086-64.022V547.031h59.628v71.976
	c0,35.204,22.336,45.724,49.594,23.384l141.208-115.571C1035.013,504.48,1035.013,468.016,1007.756,445.674L1007.756,445.674z
	 M709.271,847.973c0,35.378-28.716,64.021-64.125,64.021H399.678V117.742L78.86,60.328c10.533-7.65,23.451-12.344,37.522-12.344
	h528.766c35.407,0,64.124,28.686,64.124,64.022v313.458H567.337c-17.648,0-32.063,14.387-32.063,32.033v57.545
	c0,17.603,14.414,31.989,32.063,31.989h141.896v300.941H709.271z"/>
</svg>
