<?xml version="1.0" encoding="utf-8"?>
<!-- Generator: Adobe Illustrator 15.0.0, SVG Export Plug-In . SVG Version: 6.00 Build 0)  -->
<!DOCTYPE svg PUBLIC "-//W3C//DTD SVG 1.1//EN" "http://www.w3.org/Graphics/SVG/1.1/DTD/svg11.dtd">
<svg version="1.1" id="图层_1" xmlns="http://www.w3.org/2000/svg" xmlns:xlink="http://www.w3.org/1999/xlink" x="0px" y="0px"
	 width="1024px" height="1024px" viewBox="0 0 1024 1024" enable-background="new 0 0 1024 1024" xml:space="preserve">
<path fill="#231815" d="M583.615,88.585v-77.69L297.154,189.865l286.462,178.927V234.295
	c143.232,32.714,250.611,160.476,250.611,313.442c0,177.674-144.598,322.136-322.227,322.136
	c-177.628,0-322.247-144.462-322.247-322.136c0-39.537-32.009-71.522-71.57-71.522c-39.652,0-71.639,31.985-71.639,71.522
	c0,256.572,208.842,465.368,465.456,465.368c256.614,0,465.458-208.796,465.458-465.368
	C977.457,315.649,806.287,123.163,583.615,88.585L583.615,88.585L583.615,88.585z"/>
</svg>
