<?xml version="1.0" encoding="utf-8"?>
<!-- Generator: Adobe Illustrator 16.0.0, SVG Export Plug-In . SVG Version: 6.00 Build 0)  -->
<!DOCTYPE svg PUBLIC "-//W3C//DTD SVG 1.1//EN" "http://www.w3.org/Graphics/SVG/1.1/DTD/svg11.dtd">
<svg version="1.1" id="图层_1" xmlns="http://www.w3.org/2000/svg" xmlns:xlink="http://www.w3.org/1999/xlink" x="0px" y="0px"
	 width="1024px" height="1024px" viewBox="0 0 1024 1024" enable-background="new 0 0 1024 1024" xml:space="preserve">
<g>
	<path stroke="#FFFFFF" stroke-miterlimit="10" d="M1019.631,289.094c0-130.195-117.068-235.725-261.592-235.725v0.242
		c-1.512,0-3.025-0.242-4.582-0.242c-100.961,0-175.314,64.697-222.969,139.061v-0.08h-0.178c-3.205,5.535-9.924,9.426-17.799,9.426
		l0,0c-7.898,0-14.572-3.891-17.799-9.426h-0.154l-0.045,0.08C446.881,118.066,372.551,53.369,271.545,53.369
		c-1.535,0-3.025,0.242-4.561,0.242v-0.242c-144.479,0-261.613,105.529-261.613,235.725c0,0.361,0.066,0.682,0.066,1.004
		c0,0.279-0.066,0.561-0.066,0.842c0,78.094,25.695,159.838,76.822,245.391c44.162,73.602,107.723,151.293,190.709,233.117
		c56.197,55.512,125.145,117.842,209.93,186.912c7.299,6.898,17.777,11.23,29.59,11.27l0,0h0.09l0,0h0.09l0,0
		c11.791-0.039,22.336-4.412,29.545-11.27c84.854-69.07,153.777-131.4,210.02-186.912c82.941-81.824,146.48-159.516,190.664-233.117
		c51.127-85.553,76.801-167.258,76.801-245.391c0-0.281-0.045-0.563-0.045-0.842
		C1019.586,289.775,1019.631,289.455,1019.631,289.094L1019.631,289.094z M1019.631,289.094"/>
</g>
</svg>
