<?xml version="1.0" encoding="utf-8"?>
<!-- Generator: Adobe Illustrator 15.0.0, SVG Export Plug-In . SVG Version: 6.00 Build 0)  -->
<!DOCTYPE svg PUBLIC "-//W3C//DTD SVG 1.1//EN" "http://www.w3.org/Graphics/SVG/1.1/DTD/svg11.dtd">
<svg version="1.1" id="图层_1" xmlns="http://www.w3.org/2000/svg" xmlns:xlink="http://www.w3.org/1999/xlink" x="0px" y="0px"
	 width="1024px" height="1024px" viewBox="0 0 1024 1024" enable-background="new 0 0 1024 1024" xml:space="preserve">
<path fill="#231815" d="M512,12.475c-275.818,0-499.537,223.671-499.537,499.514c0,275.867,223.719,499.537,499.537,499.537
	c275.819,0,499.537-223.67,499.537-499.537C1011.537,236.146,787.82,12.475,512,12.475L512,12.475L512,12.475z M298.673,584.235
	c-39.563,0-71.76-32.147-71.76-71.76c0-39.588,32.197-71.784,71.76-71.784c39.66,0,71.857,32.196,71.857,71.784
	C370.53,552.088,338.333,584.235,298.673,584.235L298.673,584.235L298.673,584.235z M505.854,584.235
	c-39.612,0-71.809-32.147-71.809-71.76c0-39.588,32.197-71.784,71.809-71.784c39.611,0,71.807,32.196,71.807,71.784
	C577.661,552.088,545.465,584.235,505.854,584.235L505.854,584.235L505.854,584.235z M725.962,584.235
	c-39.612,0-71.809-32.147-71.809-71.76c0-39.588,32.196-71.784,71.809-71.784s71.809,32.196,71.809,71.784
	C797.771,552.088,765.574,584.235,725.962,584.235L725.962,584.235L725.962,584.235z"/>
</svg>
