<?xml version="1.0" encoding="utf-8"?>
<!-- Generator: Adobe Illustrator 15.0.0, SVG Export Plug-In . SVG Version: 6.00 Build 0)  -->
<!DOCTYPE svg PUBLIC "-//W3C//DTD SVG 1.1//EN" "http://www.w3.org/Graphics/SVG/1.1/DTD/svg11.dtd">
<svg version="1.1" id="图层_1" xmlns="http://www.w3.org/2000/svg" xmlns:xlink="http://www.w3.org/1999/xlink" x="0px" y="0px"
	 width="1024px" height="1024px" viewBox="0 0 1024 1024" enable-background="new 0 0 1024 1024" xml:space="preserve">
<path fill="#231815" d="M944.676,1008.457H97.56c-8.953,0-16.794-3.449-23.48-8.32c-0.976,0.09-1.911,0.394-2.853,0.394
	c-7.453,0-14.838-2.536-20.672-7.418c-8.175-6.789-12.391-17.105-11.287-27.558l28.724-272.867
	c0.642-6.313,3.235-12.256,7.396-17.104l405.191-479.753c5.485-6.484,13.383-10.497,21.874-11.18
	c8.653-0.846,16.991,1.99,23.508,7.403l238.067,199.251c13.484,11.287,15.198,31.226,3.811,44.593L363.516,914.603
	c-4.161,4.871-9.669,8.4-15.853,10.093l-77.437,21.704h672.646c22.19,0,42.034-1.15,42.034,20.678
	c0,21.863-17.996,41.38-40.208,41.38H944.676L944.676,1008.457L944.676,1008.457L944.676,1008.457z M836.864,355.311
	L548.719,116.273l46.249-54.171c25.235-29.602,61.968-46.56,100.777-46.56c29.879,0,58.855,10.385,81.563,29.22l91.868,76.185
	c54.122,44.926,60.346,125.717,13.936,180.182l-46.249,54.221V355.311L836.864,355.311L836.864,355.311L836.864,355.311z"/>
</svg>
