<?xml version="1.0" encoding="utf-8"?>
<!-- Generator: Adobe Illustrator 15.0.0, SVG Export Plug-In . SVG Version: 6.00 Build 0)  -->
<!DOCTYPE svg PUBLIC "-//W3C//DTD SVG 1.1//EN" "http://www.w3.org/Graphics/SVG/1.1/DTD/svg11.dtd">
<svg version="1.1" id="图层_1" xmlns="http://www.w3.org/2000/svg" xmlns:xlink="http://www.w3.org/1999/xlink" x="0px" y="0px"
	 width="1024px" height="1024px" viewBox="0 0 1024 1024" enable-background="new 0 0 1024 1024" xml:space="preserve">
<path fill="#231815" d="M843.227,885.656c0,17.966-3.521,34.771-10.804,50.252c-7.203,15.486-17.125,29.169-29.688,41.053
	c-12.563,11.883-27.366,21.284-44.251,28.127c-16.964,6.882-35.129,10.244-54.654,10.244H320.17
	c-19.506,0-37.67-3.362-54.596-10.244c-16.923-6.843-31.707-16.244-44.291-28.127c-12.583-11.884-22.506-25.566-29.688-41.053
	c-7.162-15.481-10.822-32.206-10.822-50.252V139.321c0-17.924,3.601-34.848,10.822-50.712c7.241-15.845,17.104-29.688,29.688-41.57
	c12.584-11.885,27.368-21.267,44.291-28.108c16.926-6.861,35.09-10.263,54.596-10.263H703.83c19.445,0,37.69,3.401,54.575,10.263
	c16.884,6.842,31.688,16.224,44.253,28.108c12.641,11.883,22.563,25.726,29.687,41.57c7.28,15.864,10.883,32.788,10.883,50.712
	V885.656L843.227,885.656L843.227,885.656L843.227,885.656z M755.763,191.216H267.136v641.588h488.547L755.763,191.216
	L755.763,191.216L755.763,191.216L755.763,191.216z M511.46,863.051c-15.166,0-28.309,5.402-39.511,16.246
	c-11.204,10.761-16.725,24.085-16.725,39.929c0,15.164,5.602,28.248,16.725,39.449c11.202,11.205,24.286,16.726,39.511,16.726
	c15.864,0,29.207-5.602,40.008-16.726c10.804-11.201,16.247-24.285,16.247-39.449c0-15.844-5.443-29.168-16.247-39.929
	C540.667,868.412,527.325,863.051,511.46,863.051L511.46,863.051L511.46,863.051L511.46,863.051z M597.962,99.373
	c0-5.783-1.842-10.244-5.441-13.525c-3.602-3.261-7.521-4.841-11.844-4.841H443.322c-3.581,0-7.342,1.641-11.323,4.841
	c-3.961,3.281-5.962,7.803-5.962,13.525c0,5.781,1.82,10.262,5.402,13.522c3.581,3.281,7.542,4.841,11.883,4.841h137.355
	c4.322,0,8.242-1.641,11.844-4.841C596.121,109.694,597.962,105.154,597.962,99.373L597.962,99.373L597.962,99.373L597.962,99.373z"
	/>
</svg>
