<?xml version="1.0" encoding="utf-8"?>
<!-- Generator: Adobe Illustrator 16.0.0, SVG Export Plug-In . SVG Version: 6.00 Build 0)  -->
<!DOCTYPE svg PUBLIC "-//W3C//DTD SVG 1.1//EN" "http://www.w3.org/Graphics/SVG/1.1/DTD/svg11.dtd">
<svg version="1.1" id="图层_1" xmlns="http://www.w3.org/2000/svg" xmlns:xlink="http://www.w3.org/1999/xlink" x="0px" y="0px"
	 width="1024px" height="1024px" viewBox="0 0 1024 1024" enable-background="new 0 0 1024 1024" xml:space="preserve">
<path fill="#FFFFFF" stroke="#000000" stroke-miterlimit="10" d="M865.443,173.711C771.123,81.303,645.66,30.1,512.287,30.1
	c-133.361,0-258.836,50.997-353.151,143.611C65.032,266.327,13.1,389.536,13.1,520.5c0,130.958,51.932,254.174,146.246,346.783
	c94.314,92.621,219.784,143.623,353.151,143.623c133.36,0,258.837-51.002,353.145-143.623
	C959.963,774.674,1011.9,651.458,1011.9,520.5C1011.479,389.536,959.541,266.327,865.443,173.711L865.443,173.711z M862.535,864.438
	c-93.479,91.795-217.915,142.579-350.249,142.579c-132.327,0-256.757-50.589-350.242-142.579
	c-93.479-91.794-145.206-214-145.206-343.938c0-129.949,51.517-252.137,145.206-343.932c93.485-91.8,217.915-142.59,350.242-142.59
	c132.333,0,256.77,50.589,350.249,142.59c93.479,91.795,145.206,213.983,145.206,343.932
	C1007.741,650.438,956.225,772.644,862.535,864.438L862.535,864.438z M674.117,600.468L674.117,600.468l0.21-0.401v0.195
	L674.117,600.468z M789.406,622.286v-0.194l0.21-0.414v0.414L789.406,622.286z M604.107,327.32
	c0-21.423,17.452-38.762,39.262-38.762c21.811,0,39.264,17.139,39.264,38.762v386.152c0,21.418-17.453,38.763-39.264,38.763
	c-21.81,0-39.262-17.126-39.262-38.763V327.32L604.107,327.32z M341.736,327.32c0-21.423,17.453-38.762,39.263-38.762
	s39.263,17.139,39.263,38.762v386.152c0,21.418-17.453,38.763-39.263,38.763s-39.263-17.126-39.263-38.763V327.32L341.736,327.32z
	 M341.736,327.32"/>
</svg>
