<?xml version="1.0" encoding="utf-8"?>
<!-- Generator: Adobe Illustrator 16.0.0, SVG Export Plug-In . SVG Version: 6.00 Build 0)  -->
<!DOCTYPE svg PUBLIC "-//W3C//DTD SVG 1.1//EN" "http://www.w3.org/Graphics/SVG/1.1/DTD/svg11.dtd">
<svg version="1.1" id="图层_1" xmlns="http://www.w3.org/2000/svg" xmlns:xlink="http://www.w3.org/1999/xlink" x="0px" y="0px"
	 width="1024px" height="1024px" viewBox="0 0 1024 1024" enable-background="new 0 0 1024 1024" xml:space="preserve">
<g>
	<g>
		<path fill="#FFFFFF" d="M785.856,609.94l0.208-0.194v-0.395l-0.208,0.395V609.94z M861.057,174.806
			C767.774,85.168,643.693,35.5,511.79,35.5c-131.894,0-255.987,49.467-349.262,139.306C69.46,264.645,18.1,384.161,18.1,511.2
			c0,127.04,51.36,246.554,144.635,336.394C256.011,937.432,380.1,986.9,511.996,986.9c131.894,0,255.986-49.469,349.256-139.307
			C954.534,757.754,1005.9,638.239,1005.9,511.2C1005.484,384.161,954.117,264.645,861.057,174.806z M858.18,844.822
			c-92.449,89.042-215.515,138.316-346.39,138.316c-130.871,0-253.93-49.074-346.387-138.316
			C72.955,755.78,21.797,637.246,21.797,511.2c0-126.053,50.949-244.58,143.606-333.623C257.86,88.528,380.919,39.261,511.79,39.261
			c130.875,0,253.94,49.073,346.39,138.316c92.449,89.043,143.607,207.569,143.607,333.623
			C1001.787,637.246,950.837,755.78,858.18,844.822z M765.499,464.915L450.862,282.886c-43.947-31.753-106.16-1.086-106.16,52.326
			v364.061c0,53.413,62.206,84.067,106.16,52.32l314.637-182.024C801.488,543.548,801.488,490.938,765.499,464.915z"/>
	</g>
	<g>
		<path fill="none" stroke="#000000" stroke-miterlimit="10" d="M785.856,609.94l0.208-0.194v-0.395l-0.208,0.395V609.94z
			 M861.057,174.806C767.774,85.168,643.693,35.5,511.79,35.5c-131.894,0-255.987,49.467-349.262,139.306
			C69.46,264.645,18.1,384.161,18.1,511.2c0,127.04,51.36,246.554,144.635,336.394C256.011,937.432,380.1,986.9,511.996,986.9
			c131.894,0,255.986-49.469,349.256-139.307C954.534,757.754,1005.9,638.239,1005.9,511.2
			C1005.484,384.161,954.117,264.645,861.057,174.806z M858.18,844.822c-92.449,89.042-215.515,138.316-346.39,138.316
			c-130.871,0-253.93-49.074-346.387-138.316C72.955,755.78,21.797,637.246,21.797,511.2c0-126.053,50.949-244.58,143.606-333.623
			C257.86,88.528,380.919,39.261,511.79,39.261c130.875,0,253.94,49.073,346.39,138.316
			c92.449,89.043,143.607,207.569,143.607,333.623C1001.787,637.246,950.837,755.78,858.18,844.822z M765.499,464.915
			L450.862,282.886c-43.947-31.753-106.16-1.086-106.16,52.326v364.061c0,53.413,62.206,84.067,106.16,52.32l314.637-182.024
			C801.488,543.548,801.488,490.938,765.499,464.915z"/>
	</g>
</g>
</svg>
