<?xml version="1.0" encoding="utf-8"?>
<!-- Generator: Adobe Illustrator 15.0.0, SVG Export Plug-In . SVG Version: 6.00 Build 0)  -->
<!DOCTYPE svg PUBLIC "-//W3C//DTD SVG 1.1//EN" "http://www.w3.org/Graphics/SVG/1.1/DTD/svg11.dtd">
<svg version="1.1" id="图层_1" xmlns="http://www.w3.org/2000/svg" xmlns:xlink="http://www.w3.org/1999/xlink" x="0px" y="0px"
	 width="1024px" height="1024px" viewBox="0 0 1024 1024" enable-background="new 0 0 1024 1024" xml:space="preserve">
<path fill="#231815" d="M963.488,470.956H553.06V60.55c0-22.744-18.388-41.093-41.065-41.093c-22.689,0-41.044,18.349-41.044,41.093
	v410.406H60.496c-22.689,0-41.044,18.388-41.044,41.038c0,22.705,18.354,41.115,41.044,41.115h410.455v410.385
	c0,22.705,18.354,41.049,41.044,41.049c22.678,0,41.065-18.344,41.065-41.049V553.109h410.428c22.694,0,41.061-18.41,41.061-41.115
	C1004.548,489.344,986.182,470.956,963.488,470.956"/>
</svg>
