<?xml version="1.0" encoding="utf-8"?>
<!-- Generator: Adobe Illustrator 16.0.0, SVG Export Plug-In . SVG Version: 6.00 Build 0)  -->
<!DOCTYPE svg PUBLIC "-//W3C//DTD SVG 1.1//EN" "http://www.w3.org/Graphics/SVG/1.1/DTD/svg11.dtd">
<svg version="1.1" id="图层_1" xmlns="http://www.w3.org/2000/svg" xmlns:xlink="http://www.w3.org/1999/xlink" x="0px" y="0px"
	 width="1024px" height="1024px" viewBox="0 0 1024 1024" enable-background="new 0 0 1024 1024" xml:space="preserve">
<g>
	<path stroke="#FFFFFF" stroke-miterlimit="10" d="M404.048,861.074c-21.635,0-42.851-8.755-58.016-23.921L46.384,538.455
		c-15.249-15.166-23.976-36.244-23.976-57.822c0-21.635,8.727-42.768,23.976-57.878l81.827-81.575
		c30.416-30.331,85.671-30.331,116.088,0l159.804,159.804l377.515-376.928c30.555-30.388,85.7-30.333,116.09-0.055l81.908,81.63
		c15.166,15.166,23.976,36.298,23.976,57.933c0,21.523-8.81,42.71-23.976,57.767L462.121,837.153
		C446.954,852.319,425.821,861.074,404.048,861.074L404.048,861.074L404.048,861.074z M404.048,861.074"/>
</g>
</svg>
