<?xml version="1.0" encoding="utf-8"?>
<!-- Generator: Adobe Illustrator 15.0.0, SVG Export Plug-In . SVG Version: 6.00 Build 0)  -->
<!DOCTYPE svg PUBLIC "-//W3C//DTD SVG 1.1//EN" "http://www.w3.org/Graphics/SVG/1.1/DTD/svg11.dtd">
<svg version="1.1" id="图层_1" xmlns="http://www.w3.org/2000/svg" xmlns:xlink="http://www.w3.org/1999/xlink" x="0px" y="0px"
	 width="1024px" height="1024px" viewBox="0 0 1024 1024" enable-background="new 0 0 1024 1024" xml:space="preserve">
<path fill="#231815" d="M388.261,1009.949H105.417c-51.846,0-94.274-42.822-94.274-95.133V629.455
	c0-52.32,42.429-95.121,94.274-95.121h282.845c51.857,0,94.273,42.801,94.273,95.121v285.361
	C482.535,967.127,440.118,1009.949,388.261,1009.949L388.261,1009.949z M388.261,486.756H105.417
	c-51.846,0-94.274-42.8-94.274-95.109V106.284c0-52.32,42.429-95.121,94.274-95.121h282.845c51.857,0,94.273,42.801,94.273,95.121
	v285.363C482.535,443.956,440.118,486.756,388.261,486.756L388.261,486.756z M906.79,486.756H623.945
	c-51.856,0-94.251-42.8-94.251-95.109V106.284c0-52.32,42.395-95.121,94.251-95.121H906.79c51.858,0,94.297,42.801,94.297,95.121
	v285.363C1001.086,443.956,958.648,486.756,906.79,486.756L906.79,486.756z M999.799,999.684c-17.393,17.539-45.58,17.539-62.97,0
	l-78.622-79.322c-32.32,20.893-70.513,33.381-111.756,33.381c-114.804,0-207.858-93.877-207.858-209.709
	c0-115.811,93.055-209.699,207.858-209.699c114.781,0,207.838,93.889,207.838,209.699c0,41.615-12.379,80.158-33.09,112.781
	l78.6,79.313C1017.211,953.664,1017.211,982.123,999.799,999.684L999.799,999.684z M746.452,594.254
	c-82.01,0-148.457,67.047-148.457,149.779c0,82.721,66.447,149.789,148.457,149.789c81.988,0,148.458-67.068,148.458-149.789
	C894.91,661.301,828.44,594.254,746.452,594.254L746.452,594.254z"/>
</svg>
