<?xml version="1.0" encoding="utf-8"?>
<!-- Generator: Adobe Illustrator 16.0.0, SVG Export Plug-In . SVG Version: 6.00 Build 0)  -->
<!DOCTYPE svg PUBLIC "-//W3C//DTD SVG 1.1//EN" "http://www.w3.org/Graphics/SVG/1.1/DTD/svg11.dtd">
<svg version="1.1" id="图层_1" xmlns="http://www.w3.org/2000/svg" xmlns:xlink="http://www.w3.org/1999/xlink" x="0px" y="0px"
	 width="1024px" height="1024px" viewBox="0 0 1024 1024" enable-background="new 0 0 1024 1024" xml:space="preserve">
<path stroke="#FFFFFF" stroke-miterlimit="10" d="M474.354,57.072c21.204-43.572,55.904-43.572,77.107,0l91.843,188.632
	c21.203,43.545,78.963,85.139,128.316,92.406l198.421,29.215c49.323,7.252,61.19,41.389,26.32,75.825L849.684,588.047
	c-34.87,34.436-56.804,101.488-48.762,148.965l35.32,208.725c8.042,47.504-21.119,67.297-64.818,44.005l-179.102-95.413
	c-43.673-23.292-115.184-23.292-158.856,0l-179.101,95.413c-43.7,23.292-72.862,3.499-64.819-44.005l35.292-208.725
	c8.07-47.477-13.892-114.529-48.761-148.965L29.426,443.15c-34.842-34.436-23.003-68.573,26.35-75.825l198.421-29.215
	c49.351-7.267,107.055-48.861,128.287-92.406L474.354,57.072L474.354,57.072z M474.354,57.072"/>
</svg>
