<?xml version="1.0" encoding="utf-8"?>
<!-- Generator: Adobe Illustrator 16.0.0, SVG Export Plug-In . SVG Version: 6.00 Build 0)  -->
<!DOCTYPE svg PUBLIC "-//W3C//DTD SVG 1.1//EN" "http://www.w3.org/Graphics/SVG/1.1/DTD/svg11.dtd">
<svg version="1.1" id="图层_1" xmlns="http://www.w3.org/2000/svg" xmlns:xlink="http://www.w3.org/1999/xlink" x="0px" y="0px"
	 width="1024px" height="1024px" viewBox="0 0 1024 1024" enable-background="new 0 0 1024 1024" xml:space="preserve">
<path stroke="#FFFFFF" stroke-miterlimit="10" d="M878.55,154.844c23.776,0,43.348,3.847,58.836,11.543
	c15.447,7.719,27.733,17.339,36.809,28.905c9.12,11.565,15.45,24.083,19.03,37.572s5.372,26.007,5.372,37.573
	c0,5.388-0.21,9.64-0.626,12.719c-0.375,3.079-0.583,5.773-0.583,8.102v6.929h-78.448v606.892c0,15.413-3.164,30.239-9.492,44.499
	c-6.33,14.26-15.45,26.777-27.358,37.572c-11.867,10.796-26.315,19.466-43.345,26.007c-17.032,6.563-36.645,9.844-58.838,9.844
	H249.84c-20.612,0-40.014-3.099-58.212-9.255c-18.239-6.178-33.894-14.826-46.968-26.007c-13.075-11.181-23.36-24.672-30.897-40.47
	c-7.538-15.798-11.285-33.724-11.285-53.756V298.187H28.82c-0.833-0.771-1.207-2.714-1.207-5.793
	c-0.791-3.85-1.209-15.798-1.209-35.831c0-10.027,2.417-21.186,7.163-33.522c4.748-12.336,11.867-23.698,21.361-34.108
	c9.536-10.39,21.778-19.061,36.85-26.007c15.075-6.928,32.895-10.412,53.507-10.412h105.763V82.008
	c0-20.032,7.121-37.188,21.361-51.447c14.282-14.24,31.729-21.37,52.3-21.37h372.003c27.732,0,46.927,7.13,57.628,21.37
	c10.701,14.259,16.03,31.415,16.03,51.447v71.681c16.657,0.77,34.478,1.155,53.507,1.155H878.55L878.55,154.844L878.55,154.844z
	 M324.708,154.844h372.003V82.008H324.708V154.844L324.708,154.844L324.708,154.844z M269.245,932.097
	c27.648,0,41.473-17.236,41.473-51.688V295.552h-80.364v584.856c0,17.662,2.789,30.687,8.411,39.071
	C244.385,927.885,254.545,932.097,269.245,932.097L269.245,932.097z M514.166,930.821c14.657,0,24.608-3.99,29.771-11.971
	c5.205-7.96,7.786-20.78,7.786-38.442V295.552h-80.361v584.856C471.402,914.03,485.643,930.821,514.166,930.821L514.166,930.821z
	 M757.756,928.31c15.573,0,25.94-3.989,31.146-11.971c5.162-7.98,7.743-20.801,7.743-38.442V295.552h-81.612v582.344
	C715.032,911.5,729.272,928.31,757.756,928.31L757.756,928.31L757.756,928.31z M757.756,928.31"/>
</svg>
