<?xml version="1.0" encoding="utf-8"?>
<!-- Generator: Adobe Illustrator 15.0.0, SVG Export Plug-In . SVG Version: 6.00 Build 0)  -->
<!DOCTYPE svg PUBLIC "-//W3C//DTD SVG 1.1//EN" "http://www.w3.org/Graphics/SVG/1.1/DTD/svg11.dtd">
<svg version="1.1" id="图层_1" xmlns="http://www.w3.org/2000/svg" xmlns:xlink="http://www.w3.org/1999/xlink" x="0px" y="0px"
	 width="1024px" height="1024px" viewBox="0 0 1024 1024" enable-background="new 0 0 1024 1024" xml:space="preserve">
<g>
	<path stroke="#FFFFFF" stroke-miterlimit="10" d="M735.924,342.152c-12.049,29.056-29.917,55.714-52.128,78.009
		c-22.294,22.21-48.934,40.058-78.029,52.108c-29.097,12.048-60.571,18.277-92.044,18.277c-31.475,0-62.949-6.229-92.046-18.277
		c-29.097-12.05-55.735-29.897-77.948-52.108c-22.294-22.295-40.161-48.954-52.209-78.009
		c-12.049-29.118-18.279-60.53-18.279-92.044c0-31.495,6.229-62.929,18.279-92.025c12.049-29.056,29.916-55.714,52.209-78.008
		c22.213-22.212,48.851-40.06,77.948-52.109c29.097-12.048,60.572-18.299,92.046-18.299c31.473,0,62.947,6.25,92.044,18.299
		c29.096,12.049,55.735,29.896,78.029,52.109c22.211,22.294,40.079,48.953,52.128,78.008c11.966,29.096,18.277,60.53,18.277,92.025
		C754.201,281.622,747.89,313.034,735.924,342.152L735.924,342.152z"/>
	<path stroke="#FFFFFF" stroke-miterlimit="10" d="M512,1014.334c-3.934,0-7.951,0-11.843-0.084
		c-239.99-3.154-434.652-103.027-449.939-228.758c-0.614-5.289-0.902-10.574-0.902-15.902
		c0-135.158,207.164-244.742,462.684-244.742c255.48,0,462.684,109.545,462.684,244.742
		C974.684,904.789,767.481,1014.334,512,1014.334L512,1014.334z"/>
</g>
</svg>
