<?xml version="1.0" encoding="utf-8"?>
<!-- Generator: Adobe Illustrator 16.0.0, SVG Export Plug-In . SVG Version: 6.00 Build 0)  -->
<!DOCTYPE svg PUBLIC "-//W3C//DTD SVG 1.1//EN" "http://www.w3.org/Graphics/SVG/1.1/DTD/svg11.dtd">
<svg version="1.1" id="图层_1" xmlns="http://www.w3.org/2000/svg" xmlns:xlink="http://www.w3.org/1999/xlink" x="0px" y="0px"
	 width="1024px" height="1024px" viewBox="0 0 1024 1024" enable-background="new 0 0 1024 1024" xml:space="preserve">
<g>
	<path stroke="#FFFFFF" stroke-miterlimit="10" d="M365.158,101.83C167.06,101.83,4.783,236.86,4.783,408.327
		c0,99.015,54.007,180.267,144.188,243.204l-36.046,108.464l125.971-63.227c45.076,8.963,81.252,18.119,126.229,18.119
		c11.318,0,22.538-0.547,33.661-1.45c-7.061-24.118-11.123-49.331-11.123-75.513c0-157.375,135.192-285.151,306.4-285.151
		c11.671,0,23.215,0.87,34.692,2.127C697.576,209.712,542.362,101.83,365.158,101.83L365.158,101.83z M248.085,345.164
		c-26.986,0-54.263-18.121-54.263-45.14c0-27.115,27.277-44.946,54.263-44.946c27.019,0,45.011,17.831,45.011,44.946
		C293.064,327.043,275.104,345.164,248.085,345.164L248.085,345.164z M500.318,345.164c-27.02,0-54.135-18.121-54.135-45.14
		c0-27.115,27.115-44.946,54.135-44.946c27.148,0,45.106,17.831,45.106,44.946C545.425,327.043,527.433,345.164,500.318,345.164
		L500.318,345.164z M500.318,345.164"/>
	<path stroke="#FFFFFF" stroke-miterlimit="10" d="M1023,633.604c0-143.996-144.188-261.454-306.109-261.454
		c-171.466,0-306.529,117.458-306.529,261.454c0,144.316,135.063,261.518,306.529,261.518c35.886,0,72.062-9.027,108.108-18.056
		l98.887,54.104l-27.115-90.055C969.09,786.853,1023,714.887,1023,633.604L1023,633.604z M617.52,588.594
		c-17.959,0-36.079-17.83-36.079-36.048c0-17.99,18.12-36.079,36.079-36.079c27.245,0,45.074,18.089,45.074,36.079
		C662.594,570.764,644.765,588.594,617.52,588.594L617.52,588.594z M815.746,588.594c-17.831,0-35.821-17.83-35.821-36.048
		c0-17.99,17.99-36.079,35.821-36.079c26.986,0,45.107,18.089,45.107,36.079C860.854,570.764,842.732,588.594,815.746,588.594
		L815.746,588.594z M815.746,588.594"/>
</g>
</svg>
