<?xml version="1.0" encoding="utf-8"?>
<!-- Generator: Adobe Illustrator 16.0.0, SVG Export Plug-In . SVG Version: 6.00 Build 0)  -->
<!DOCTYPE svg PUBLIC "-//W3C//DTD SVG 1.1//EN" "http://www.w3.org/Graphics/SVG/1.1/DTD/svg11.dtd">
<svg version="1.1" id="图层_1" xmlns="http://www.w3.org/2000/svg" xmlns:xlink="http://www.w3.org/1999/xlink" x="0px" y="0px"
	 width="1024px" height="1024px" viewBox="0 0 1024 1024" enable-background="new 0 0 1024 1024" xml:space="preserve">
<g>
	<path stroke="#FFFFFF" stroke-miterlimit="10" d="M515.669,7.7C241.375,7.7,19.067,233.472,19.067,512
		c0,278.53,222.307,504.301,496.602,504.301c274.273,0,496.6-225.771,496.6-504.301C1012.269,233.472,789.942,7.7,515.669,7.7
		L515.669,7.7z M239.617,736.49l67.858-153.094l115.051,109.6L239.617,736.49L239.617,736.49z M443.98,669.783L330.391,561.588
		l274.413-261.33l113.609,108.197L443.98,669.783L443.98,669.783z M776.521,358.305l-32.844,29.464l-115.189-109.96l30.87-31.107
		c32.606-31.067,61.739-10.182,94.268,20.885C786.313,298.654,809.128,327.277,776.521,358.305L776.521,358.305z M776.521,358.305"
		/>
</g>
</svg>
