<?xml version="1.0" encoding="utf-8"?>
<!-- Generator: Adobe Illustrator 16.0.0, SVG Export Plug-In . SVG Version: 6.00 Build 0)  -->
<!DOCTYPE svg PUBLIC "-//W3C//DTD SVG 1.1//EN" "http://www.w3.org/Graphics/SVG/1.1/DTD/svg11.dtd">
<svg version="1.1" id="图层_1" xmlns="http://www.w3.org/2000/svg" xmlns:xlink="http://www.w3.org/1999/xlink" x="0px" y="0px"
	 width="1024px" height="1024px" viewBox="0 0 1024 1024" enable-background="new 0 0 1024 1024" xml:space="preserve">
<path stroke="#FFFFFF" stroke-miterlimit="10" d="M511.996,29.979c-275.357,0-498.568,218.209-498.568,487.387
	c0,269.167,223.211,487.387,498.568,487.387c275.366,0,498.576-218.22,498.576-487.387
	C1010.572,248.189,787.362,29.979,511.996,29.979L511.996,29.979z M511.996,974.292c-258.148,0-467.406-204.572-467.406-456.926
	c0-252.352,209.258-456.915,467.406-456.915c258.147,0,467.427,204.563,467.427,456.915
	C979.423,769.72,770.144,974.292,511.996,974.292L511.996,974.292z M654.792,280.434l-22.036-21.541L368.338,517.366
	l264.418,258.475l22.036-21.541L412.408,517.366L654.792,280.434z M654.792,280.434"/>
</svg>
