<?xml version="1.0" encoding="utf-8"?>
<!-- Generator: Adobe Illustrator 15.0.0, SVG Export Plug-In . SVG Version: 6.00 Build 0)  -->
<!DOCTYPE svg PUBLIC "-//W3C//DTD SVG 1.1//EN" "http://www.w3.org/Graphics/SVG/1.1/DTD/svg11.dtd">
<svg version="1.1" id="图层_1" xmlns="http://www.w3.org/2000/svg" xmlns:xlink="http://www.w3.org/1999/xlink" x="0px" y="0px"
	 width="1024px" height="1024px" viewBox="0 0 1024 1024" enable-background="new 0 0 1024 1024" xml:space="preserve">
<path fill="#231815" d="M571.108,541.208l29.118-29.086l-0.066-0.065l0.196-0.163l-29.248-29.248l-0.066,0.098L102.382,12.833
	L73.183,41.984l468.69,469.958L72.728,981.364l29.15,29.25l469.163-469.473L571.108,541.208L571.108,541.208z M424.198,42.584
	l468.707,469.927L423.743,981.983l29.103,29.184l469.18-469.406l0.064,0.098l29.184-29.25l-0.13-0.162l0.13-0.033l-29.118-29.151
	l-0.13,0.049L453.348,13.386L424.198,42.584L424.198,42.584z"/>
</svg>
