<?xml version="1.0" encoding="utf-8"?>
<!-- Generator: Adobe Illustrator 16.0.0, SVG Export Plug-In . SVG Version: 6.00 Build 0)  -->
<!DOCTYPE svg PUBLIC "-//W3C//DTD SVG 1.1//EN" "http://www.w3.org/Graphics/SVG/1.1/DTD/svg11.dtd">
<svg version="1.1" id="图层_1" xmlns="http://www.w3.org/2000/svg" xmlns:xlink="http://www.w3.org/1999/xlink" x="0px" y="0px"
	 width="1024px" height="1024px" viewBox="0 0 1024 1024" enable-background="new 0 0 1024 1024" xml:space="preserve">
<g>
	<path stroke="#FFFFFF" stroke-miterlimit="10" d="M995.507,211.855c0,0-54.881-47.611-110.971-72.682
		c-61.02-30.607-147.246-29.15-147.246-29.15s-60.742-4.713-123.018,25.943c-62.275,30.705-108.225,72.391-108.225,72.391
		s-63.531-50.721-119.715-77.248c-56.137-26.576-137.154-21.086-137.154-21.086s-77.064,4.082-126.736,27.402
		c-49.578,23.271-95.158,78.609-95.158,78.609v714.379c0,0,70.137-63.354,111.994-81.135c41.766-17.783,107.25-17.199,107.25-17.199
		s78.32,9.814,125.016,29.49s134.504,92.746,134.504,92.746s55.902-62.283,100.83-85.701
		c76.182-41.104,151.619-35.127,151.619-35.127s46.416,2.09,110.971,27.402c58.646,22.98,127.248,70.932,127.248,70.932
		L995.507,211.855L995.507,211.855z M482.142,875.611c0,0-120.086-99.16-235.613-96.877
		c-108.924,2.041-150.643,30.898-178.873,60.342c1.021-34.738-0.512-597.049-0.512-597.049s41.857-78.658,183.059-84.975
		c120.039-10.494,223.568,77.979,229.939,94.836C483.165,274.043,482.142,875.611,482.142,875.611L482.142,875.611z
		 M951.138,852.484c-28.277-29.539-103.902-73.75-212.826-75.889C622.737,774.361,531.72,876.68,531.72,876.68
		s-1.023-601.615,2.047-623.721c10.045-16.859,88.738-101.152,229.939-94.838c122.365,5.539,189.012,82.982,189.012,82.982
		S951.229,817.99,951.138,852.484L951.138,852.484z M951.138,852.484"/>
</g>
</svg>
