<?xml version="1.0" encoding="utf-8"?>
<!-- Generator: Adobe Illustrator 15.0.0, SVG Export Plug-In . SVG Version: 6.00 Build 0)  -->
<!DOCTYPE svg PUBLIC "-//W3C//DTD SVG 1.1//EN" "http://www.w3.org/Graphics/SVG/1.1/DTD/svg11.dtd">
<svg version="1.1" id="图层_1" xmlns="http://www.w3.org/2000/svg" xmlns:xlink="http://www.w3.org/1999/xlink" x="0px" y="0px"
	 width="1024px" height="1024px" viewBox="0 0 1024 1024" enable-background="new 0 0 1024 1024" xml:space="preserve">
<path fill="#231815" d="M809.923,899.516H214.205c-12.485,0-23.258-8.886-25.747-21.261l-72.017-357.103
	c-12.866-0.637-25.366-3.606-37.223-8.837c-12.953-5.72-24.57-13.889-34.53-24.272c-9.895-10.333-17.66-22.351-23.072-35.721
	c-5.604-13.805-8.436-28.442-8.436-43.523c0-15.065,2.831-29.707,8.436-43.512c5.412-13.373,13.178-25.396,23.072-35.722
	c9.96-10.391,21.577-18.563,34.53-24.28c13.48-5.949,27.8-8.97,42.553-8.97c14.751,0,29.073,3.021,42.554,8.97
	c12.95,5.718,24.575,13.89,34.529,24.28c9.895,10.326,17.66,22.349,23.086,35.722c5.591,13.805,8.422,28.446,8.422,43.512
	c0,12.407-1.97,24.654-5.782,36.261l132.52,99.901l89.454-218.205c-26.792-20.955-43.146-53.986-43.146-89.789
	c0-15.065,2.837-29.702,8.429-43.512c5.42-13.374,13.184-25.396,23.079-35.721c9.959-10.391,21.576-18.563,34.528-24.28
	c13.48-5.95,27.808-8.97,42.558-8.97s29.066,3.02,42.554,8.97c12.956,5.717,24.564,13.89,34.525,24.28
	c9.896,10.325,17.665,22.347,23.085,35.721c5.595,13.81,8.43,28.446,8.43,43.512c0,35.737-16.321,68.742-43.052,89.713
	l89.485,218.281l132.412-99.817c-3.833-11.639-5.807-23.905-5.807-36.345c0-15.065,2.835-29.707,8.43-43.512
	c5.42-13.373,13.181-25.396,23.077-35.722c9.952-10.391,21.57-18.563,34.526-24.28c13.486-5.949,27.803-8.97,42.561-8.97
	c14.751,0,29.066,3.021,42.554,8.97c12.955,5.718,24.564,13.89,34.525,24.28c9.896,10.326,17.665,22.349,23.077,35.714
	c5.604,13.813,8.438,28.454,8.438,43.52c0,15.081-2.834,29.719-8.438,43.523c-5.412,13.37-13.181,25.388-23.077,35.721
	c-9.961,10.384-21.57,18.557-34.525,24.272c-11.82,5.218-24.269,8.181-37.095,8.829l-72.015,357.11
	C833.175,890.63,822.419,899.516,809.923,899.516L809.923,899.516L809.923,899.516z M235.669,846.374h552.787l72.305-358.536
	c2.891-14.335,16.698-23.604,30.895-20.753c3.477,0.709,7.021,1.063,10.571,1.063c30.895,0,56.04-26.628,56.04-59.35
	s-25.146-59.342-56.04-59.342c-30.902,0-56.04,26.62-56.04,59.342c0,11.119,2.915,21.945,8.438,31.321
	c6.877,11.691,3.905,26.747-6.876,34.888L671.384,607.953c-6.489,4.899-14.862,6.494-22.675,4.32
	c-7.817-2.174-14.201-7.874-17.301-15.442L520.382,326.026c-5.451-13.293,0.548-28.567,13.559-34.437
	c20.709-9.349,34.1-30.79,34.1-54.623c0-32.727-25.146-59.341-56.04-59.341c-30.904,0-56.039,26.614-56.039,59.341
	c0,23.873,13.411,45.323,34.168,54.663c13.022,5.85,19.053,21.136,13.594,34.449L392.718,596.831
	c-3.102,7.568-9.483,13.269-17.298,15.442c-7.811,2.174-16.184,0.579-22.686-4.32L176.296,474.936
	c-10.778-8.125-13.751-23.173-6.89-34.86c5.497-9.359,8.397-20.182,8.397-31.276c0-32.722-25.133-59.342-56.033-59.342
	c-30.901,0-56.035,26.62-56.035,59.342s25.134,59.35,56.035,59.35c3.571,0,7.15-0.363,10.65-1.067
	c14.207-2.895,28.037,6.381,30.937,20.729L235.669,846.374L235.669,846.374L235.669,846.374z"/>
</svg>
