<?xml version="1.0" encoding="utf-8"?>
<!-- Generator: Adobe Illustrator 15.0.0, SVG Export Plug-In . SVG Version: 6.00 Build 0)  -->
<!DOCTYPE svg PUBLIC "-//W3C//DTD SVG 1.1//EN" "http://www.w3.org/Graphics/SVG/1.1/DTD/svg11.dtd">
<svg version="1.1" id="图层_1" xmlns="http://www.w3.org/2000/svg" xmlns:xlink="http://www.w3.org/1999/xlink" x="0px" y="0px"
	 width="1024px" height="1024px" viewBox="0 0 1024 1024" enable-background="new 0 0 1024 1024" xml:space="preserve">
<path fill="#231815" d="M639.938,759.484c-7.788,7.776-18.009,11.683-28.229,11.683c-10.198,0-20.397-3.906-28.19-11.683
	c-15.569-15.573-15.569-40.806,0-56.379l199.444-199.362c15.596-15.569,40.84-15.569,56.413,0c15.575,15.575,15.575,40.806,0,56.37
	L639.938,759.484L639.938,759.484L639.938,759.484z M507.333,847.866c-4.95,2.034-10.139,3.03-15.281,3.03
	c-10.354,0-20.558-4.047-28.196-11.681L184.613,560.113c-15.585-15.564-15.585-40.795,0-56.37c15.591-15.569,40.822-15.569,56.414,0
	l211.137,211.031V53.485c0-22.018,17.864-39.866,39.888-39.866c22.051,0,39.898,17.848,39.898,39.866v757.547
	C531.95,827.159,522.232,841.684,507.333,847.866L507.333,847.866L507.333,847.866z M930.833,1010.381H93.146
	c-22.019,0-39.889-17.853-39.889-39.864c0-22.023,17.87-39.864,39.889-39.864h837.687c22.034,0,39.91,17.841,39.91,39.864
	C970.743,992.528,952.867,1010.381,930.833,1010.381L930.833,1010.381L930.833,1010.381z"/>
</svg>
