<?xml version="1.0" encoding="utf-8"?>
<!-- Generator: Adobe Illustrator 16.0.0, SVG Export Plug-In . SVG Version: 6.00 Build 0)  -->
<!DOCTYPE svg PUBLIC "-//W3C//DTD SVG 1.1//EN" "http://www.w3.org/Graphics/SVG/1.1/DTD/svg11.dtd">
<svg version="1.1" id="图层_1" xmlns="http://www.w3.org/2000/svg" xmlns:xlink="http://www.w3.org/1999/xlink" x="0px" y="0px"
	 width="1024px" height="1024px" viewBox="0 0 1024 1024" enable-background="new 0 0 1024 1024" xml:space="preserve">
<path stroke="#FFFFFF" stroke-miterlimit="10" d="M511.693,1024c23.585,0,47.487-1.671,71.527-5.015
	c279.536-39.114,475.049-297.702,435.756-576.384c-1.631-11.653-12.404-19.781-24.13-18.159
	c-11.677,1.672-19.827,12.423-18.195,24.077c35.987,255.422-143.14,492.419-399.405,528.281
	C321.024,1012.525,83.363,834.023,47.42,578.599c-17.429-123.712,14.532-246.795,89.949-346.569
	C212.787,132.297,322.654,67.756,446.78,50.363C581.002,31.62,714.228,71.41,816.673,158.812l-115.529,16.169
	c-11.677,1.67-19.826,12.422-18.195,24.074c1.492,10.66,10.682,18.338,21.14,18.338c0.995,0,1.99-0.089,2.986-0.181l152.465-21.364
	c11.682-1.67,19.829-12.419,18.155-24.074c-0.138-1.446-0.861-2.621-1.314-3.885L855.331,18.295
	c-1.676-11.606-12.403-19.783-24.172-18.067c-11.682,1.628-19.829,12.377-18.152,24.031l12.039,85.636
	C716.219,25.792,578.92-11.155,440.85,8.178C305.406,27.147,185.535,97.521,103.237,206.375
	C20.937,315.227-13.919,449.557,5.049,584.519C40.945,839.263,260.68,1024,511.693,1024L511.693,1024z M813.548,429.5
	c-2.444-7.769-9.054-13.46-17.111-14.725l-185.421-28.997l-81.124-168.657c-3.531-7.314-10.908-12.013-19.057-12.104h-0.227
	c-8.011,0-15.391,4.474-19.057,11.654l-85.015,166.941l-186.1,24.796c-8.057,1.084-14.802,6.64-17.428,14.318
	c-2.583,7.68-0.589,16.124,5.161,21.86l132.999,132.069l-33.816,184.193c-1.447,7.997,1.764,16.082,8.285,20.958
	c6.566,4.788,15.256,5.555,22.499,1.805l167.132-85.184l165.141,88.889c3.215,1.718,6.655,2.532,10.141,2.532h0.588
	c11.769,0,21.365-9.532,21.365-21.317c0-2.849-0.586-5.559-1.584-8.046l-28.836-180.036l135.807-129.225
	C813.774,445.671,815.947,437.271,813.548,429.5L813.548,429.5z M634.419,557.417c-5.069,4.785-7.468,11.832-6.338,18.742
	l24.536,153.255l-136.983-73.76c-3.168-1.715-6.653-2.572-10.139-2.572c-3.351,0-6.699,0.81-9.778,2.347L357.192,726.16
	l27.978-152.754c1.27-6.867-0.951-13.96-5.931-18.881L269.01,444.995l154.367-20.597c6.97-0.949,13.037-5.198,16.207-11.474
	l70.482-138.439l67.268,139.931c3.081,6.323,9.01,10.749,15.981,11.832l153.732,24.032L634.419,557.417L634.419,557.417z"/>
</svg>
