<?xml version="1.0" encoding="utf-8"?>
<!-- Generator: Adobe Illustrator 15.0.0, SVG Export Plug-In . SVG Version: 6.00 Build 0)  -->
<!DOCTYPE svg PUBLIC "-//W3C//DTD SVG 1.1//EN" "http://www.w3.org/Graphics/SVG/1.1/DTD/svg11.dtd">
<svg version="1.1" id="图层_1" xmlns="http://www.w3.org/2000/svg" xmlns:xlink="http://www.w3.org/1999/xlink" x="0px" y="0px"
	 width="1024px" height="1024px" viewBox="0 0 1024 1024" enable-background="new 0 0 1024 1024" xml:space="preserve">
<path stroke="#FFFFFF" stroke-miterlimit="10" d="M897.573,207.964c-17.362-11.601-42.212-25.695-61.131-35.586
	c-21.042-11.037-41.284-24.007-62.004-35.938c-41.318-23.824-82.269-46.654-122.741-70.726
	c-20.242-12.054-41.379-22.779-61.425-35.32c-18.404-11.518-48.009-20.279-77.664-20.279h-6.053
	c-25.839,0-59.41,11.251-75.275,21.474c-19.826,12.777-41.054,23.051-61.189,35.538c-39.851,24.675-82.004,46.81-122.844,70.618
	c-19.642,11.46-43.123,23.361-61.313,35.415c-19.191,12.712-41.633,22.524-61.202,35.538
	c-31.84,21.133-69.448,71.926-69.448,123.923v358.756c0,52.272,37.618,102.388,69.684,123.696
	c37.461,24.88,82.697,48.094,122.278,71.179c40.849,23.82,83.015,45.932,122.844,70.628c20.117,12.468,41.168,23.231,61.417,35.308
	c17.758,10.593,46.737,21.7,75.048,21.7h13.31c45.79,0,103.503-38.476,134.785-57.492c40.313-24.488,81.215-46.293,122.091-70.144
	c39.101-22.803,84.796-46.207,121.567-70.695c31.233-20.824,70.407-71.147,70.407-121.766V330.211
	C968.716,278.873,929.248,229.141,897.573,207.964L897.573,207.964z M933.206,680.378c0,46.562-36.037,92.824-64.746,111.976
	c-33.818,22.54-75.838,44.051-111.776,65.016c-37.594,21.927-75.211,41.985-112.301,64.507
	c-28.771,17.479-81.827,52.873-123.954,52.873h-12.226c-26.026,0-52.68-10.226-69.004-19.961
	c-18.625-11.107-37.988-21.002-56.497-32.471c-36.628-22.718-75.388-43.039-112.962-64.948
	c-36.401-21.234-78.01-42.574-112.436-65.463c-29.494-19.599-64.094-65.677-64.094-113.74V348.257
	c0-47.828,34.579-94.534,63.858-113.97c18.012-11.953,38.644-20.981,56.288-32.673c16.729-11.089,38.328-22.031,56.383-32.563
	c37.553-21.906,76.322-42.258,112.962-64.948c18.53-11.487,38.037-20.929,56.27-32.686c14.587-9.398,45.459-19.755,69.23-19.755
	h5.557c27.279,0,54.506,8.071,71.439,18.665c18.417,11.521,37.862,21.391,56.476,32.468c37.225,22.145,74.867,43.147,112.864,65.043
	c19.065,10.982,37.69,22.913,57.026,33.043c17.391,9.101,40.255,22.062,56.221,32.726c29.113,19.477,65.42,65.218,65.42,112.417
	V680.378L933.206,680.378L933.206,680.378z M296.918,682.553V406.833c0-9.542,3.603-17.902,9.667-23.863l205.631,187.317
	l205.636-187.317c5.845,5.961,9.668,14.557,9.668,23.863h0.453v275.719h30.327V406.833c0-36.03-27.631-65.38-61.572-65.38H327.266
	c-33.929,0-61.582,29.35-61.582,65.38v275.719H296.918L296.918,682.553z M681.669,374.139l-169.44,156.302l-169.45-156.302H681.669
	L681.669,374.139z"/>
</svg>
