<?xml version="1.0" encoding="utf-8"?>
<!-- Generator: Adobe Illustrator 16.0.0, SVG Export Plug-In . SVG Version: 6.00 Build 0)  -->
<!DOCTYPE svg PUBLIC "-//W3C//DTD SVG 1.1//EN" "http://www.w3.org/Graphics/SVG/1.1/DTD/svg11.dtd">
<svg version="1.1" id="图层_1" xmlns="http://www.w3.org/2000/svg" xmlns:xlink="http://www.w3.org/1999/xlink" x="0px" y="0px"
	 width="1024px" height="1024px" viewBox="0 0 1024 1024" enable-background="new 0 0 1024 1024" xml:space="preserve">
<path fill="#FFFFFF" stroke="#000000" stroke-miterlimit="10" d="M289.208,301.311c-2.818-2.784-2.818-7.305,0-10.088l9.866-9.769
	c2.82-2.79,7.391-2.79,10.212,0l200.552,198.513c2.821,2.789,7.391,2.789,10.214,0L720.6,281.454c2.818-2.79,7.391-2.79,10.209,0
	l9.869,9.769c2.817,2.783,2.817,7.304,0,10.088L540.113,499.836c-2.817,2.796-2.817,7.311,0,10.094l200.564,198.525
	c2.813,2.784,2.817,7.307,0,10.09l-9.869,9.773c-2.823,2.796-7.391,2.796-10.216,0l-200.54-198.507
	c-2.823-2.789-7.397-2.789-10.216,0L309.29,728.325c-2.821,2.789-7.393,2.789-10.214,0l-9.866-9.769
	c-2.818-2.789-2.818-7.307,0-10.095l200.562-198.526c2.818-2.784,2.818-7.304,0-10.088L289.208,301.311z M968.854,696.99
	c-24.733,58.008-60.146,110.108-105.243,154.841c-45.099,44.736-97.627,79.861-156.108,104.397
	c-60.566,25.405-124.883,38.289-191.177,38.289c-66.299,0-130.621-12.884-191.184-38.289
	c-58.483-24.536-111.004-59.661-156.106-104.397c-45.099-44.732-80.512-96.833-105.247-154.841
	c-25.614-60.07-38.603-123.873-38.603-189.631c0-65.759,12.989-129.562,38.603-189.626
	c24.735-58.019,60.148-110.109,105.247-154.852c45.102-44.73,97.623-79.855,156.106-104.392
	C385.706,33.078,450.027,20.2,516.326,20.2c125.659,0,245.218,47.043,336.659,132.453l-22.445,23.643
	C745.197,96.572,633.604,52.669,516.326,52.669c-252.766,0-458.402,203.972-458.402,454.69
	c0,250.711,205.637,454.682,458.402,454.682c252.757,0,458.396-203.971,458.396-454.682c0-44.06-6.339-87.601-18.835-129.428
	l31.386-9.232c13.395,44.827,20.184,91.478,20.184,138.66C1007.457,573.117,994.473,636.92,968.854,696.99z"/>
</svg>
