<?xml version="1.0" encoding="utf-8"?>
<!-- Generator: Adobe Illustrator 15.0.0, SVG Export Plug-In . SVG Version: 6.00 Build 0)  -->
<!DOCTYPE svg PUBLIC "-//W3C//DTD SVG 1.1//EN" "http://www.w3.org/Graphics/SVG/1.1/DTD/svg11.dtd">
<svg version="1.1" id="图层_1" xmlns="http://www.w3.org/2000/svg" xmlns:xlink="http://www.w3.org/1999/xlink" x="0px" y="0px"
	 width="1024px" height="1024px" viewBox="0 0 1024 1024" enable-background="new 0 0 1024 1024" xml:space="preserve">
<path fill-rule="evenodd" clip-rule="evenodd" fill="#231815" d="M511.994,1009C237.51,1009,15,786.49,15,511.993
	C15,237.51,237.51,15,511.994,15C786.491,15,1009,237.51,1009,511.993C1009,786.49,786.491,1009,511.994,1009L511.994,1009z
	 M511.994,70.236c-244.001,0-441.771,197.77-441.771,441.757c0,244,197.77,441.784,441.771,441.784
	c243.973,0,441.783-197.784,441.783-441.784C953.778,268.006,755.967,70.236,511.994,70.236L511.994,70.236z M746.692,622.466
	c-38.127,0-69.028-30.928-69.028-69.055c0-38.128,30.901-69.029,69.028-69.029c38.128,0,69.028,30.901,69.028,69.029
	C815.72,591.538,784.82,622.466,746.692,622.466L746.692,622.466z M525.813,622.466c-38.127,0-69.056-30.928-69.056-69.055
	c0-38.128,30.929-69.029,69.056-69.029c38.115,0,69.016,30.901,69.016,69.029C594.828,591.538,563.928,622.466,525.813,622.466
	L525.813,622.466z M304.921,622.466c-38.128,0-69.042-30.928-69.042-69.055c0-38.128,30.914-69.029,69.042-69.029
	c38.114,0,68.988,30.901,68.988,69.029C373.909,591.538,343.035,622.466,304.921,622.466L304.921,622.466z"/>
</svg>
