<?xml version="1.0" encoding="utf-8"?>
<!-- Generator: Adobe Illustrator 15.0.0, SVG Export Plug-In . SVG Version: 6.00 Build 0)  -->
<!DOCTYPE svg PUBLIC "-//W3C//DTD SVG 1.1//EN" "http://www.w3.org/Graphics/SVG/1.1/DTD/svg11.dtd">
<svg version="1.1" id="图层_1" xmlns="http://www.w3.org/2000/svg" xmlns:xlink="http://www.w3.org/1999/xlink" x="0px" y="0px"
	 width="1023.986px" height="1023.988px" viewBox="0 0 1023.986 1023.988" enable-background="new 0 0 1023.986 1023.988"
	 xml:space="preserve">
<g id="图层_2">
</g>
<g id="图层_3">
</g>
<path d="M511.885,161.163C278.95,163.789,0,455.242,0,511.948c0,56.729,256.918,354.806,511.885,350.854
	c254.966-3.997,511.815-308.627,511.815-350.854C1023.7,469.768,744.727,158.537,511.885,161.163L511.885,161.163L511.885,161.163z
	 M511.885,746.092c-129.285,0-234.098-104.813-234.098-234.144c0-129.262,104.813-234.074,234.098-234.074
	c129.284,0,234.05,104.812,234.05,234.074C745.936,641.279,641.169,746.092,511.885,746.092L511.885,746.092L511.885,746.092z
	 M416.461,512.599L416.461,512.599c0,52.453,42.483,94.982,94.959,94.982c52.407,0,94.889-42.529,94.889-94.982l0,0l0,0
	c0-52.406-42.482-94.959-94.889-94.959C458.944,417.64,416.461,460.192,416.461,512.599
	C416.461,565.052,416.461,512.599,416.461,512.599L416.461,512.599L416.461,512.599z"/>
</svg>
