<?xml version="1.0" encoding="utf-8"?>
<!-- Generator: Adobe Illustrator 16.0.0, SVG Export Plug-In . SVG Version: 6.00 Build 0)  -->
<!DOCTYPE svg PUBLIC "-//W3C//DTD SVG 1.1//EN" "http://www.w3.org/Graphics/SVG/1.1/DTD/svg11.dtd">
<svg version="1.1" id="图层_1" xmlns="http://www.w3.org/2000/svg" xmlns:xlink="http://www.w3.org/1999/xlink" x="0px" y="0px"
	 width="1429px" height="1024px" viewBox="-202.5 0 1429 1024" enable-background="new -202.5 0 1429 1024" xml:space="preserve">
<path stroke="#FFFFFF" stroke-miterlimit="10" d="M138.795,1024C-22.072,1024-153,882.438-153,708.371
	c0-174.071,130.928-315.692,291.795-315.692c160.923,0,291.849,141.621,291.849,315.692C430.644,882.378,299.718,1024,138.795,1024
	L138.795,1024z M138.795,456.581c-128.326,0-232.721,112.922-232.721,251.79c0,138.808,104.395,251.729,232.721,251.729
	c128.328,0,232.722-112.921,232.722-251.729C371.517,569.503,267.123,456.581,138.795,456.581L138.795,456.581z M904.209,1024
	c-160.924,0-291.851-141.563-291.851-315.629c0-174.071,130.926-315.692,291.851-315.692C1065.075,392.679,1196,534.3,1196,708.371
	C1196,882.378,1065.076,1024,904.209,1024L904.209,1024z M904.209,456.581c-128.382,0-232.779,112.922-232.779,251.79
	c0,138.808,104.396,251.729,232.779,251.729c128.269,0,232.718-112.921,232.718-251.729
	C1136.927,569.503,1032.479,456.581,904.209,456.581L904.209,456.581z M-96.957,610.91c-3.194,0-6.39-0.584-9.532-1.759
	c-15.485-5.677-23.713-23.836-18.463-40.527L22.596,99.951c8.612-36.958,33.356-66.771,69.85-83.987
	c34.114-16.168,75.048-19.33,115.276-9.02c15.868,4.1,25.72,21.262,21.931,38.479c-3.736,17.162-19.604,27.821-35.521,23.719
	c-27.832-7.145-55.554-5.211-78.023,5.391c-19.546,9.254-32.488,24.073-36.332,41.701l-0.759,2.929L-69.019,589.239
	C-73.187,602.478-84.722,610.91-96.957,610.91L-96.957,610.91z M1137.958,610.91c-12.292,0-23.771-8.433-27.994-21.669
	L961.169,116.234c-3.791-17.63-16.731-32.449-36.278-41.701c-22.526-10.543-50.196-12.535-78.024-5.391
	c-15.975,4.043-31.785-6.557-35.575-23.779c-3.791-17.159,6.063-34.319,21.984-38.419c40.177-10.311,81.111-7.147,115.223,9.019
	c36.495,17.218,61.294,47.032,69.849,83.988l147.603,468.673c5.252,16.691-3.03,34.851-18.465,40.527
	C1144.291,610.325,1141.095,610.91,1137.958,610.91L1137.958,610.91z M641.868,740.35c-4.492,0-9.097-1.172-13.375-3.516
	c-0.325-0.233-44.779-23.778-109.81-23.778c-63.946,0-102.661,22.843-103.038,23.079c-14.188,8.55-32.216,3.16-40.177-12.126
	c-8.015-15.287-3.196-34.617,10.882-43.399c2.058-1.29,51.602-31.51,132.333-31.51c79.977,0,134.338,29.521,136.611,30.745
	c14.566,8.025,20.304,27.296,12.943,42.992C662.985,733.906,652.642,740.289,641.868,740.35L641.868,740.35z"/>
</svg>
