<?xml version="1.0" encoding="utf-8"?>
<!-- Generator: Adobe Illustrator 16.0.0, SVG Export Plug-In . SVG Version: 6.00 Build 0)  -->
<!DOCTYPE svg PUBLIC "-//W3C//DTD SVG 1.1//EN" "http://www.w3.org/Graphics/SVG/1.1/DTD/svg11.dtd">
<svg version="1.1" id="图层_1" xmlns="http://www.w3.org/2000/svg" xmlns:xlink="http://www.w3.org/1999/xlink" x="0px" y="0px"
	 width="1024px" height="1024px" viewBox="0 0 1024 1024" enable-background="new 0 0 1024 1024" xml:space="preserve">
<path stroke="#FFFFFF" stroke-miterlimit="10" d="M991.172,443.088L602.93,38.904c-24.144-25.081-56.368-38.905-90.975-38.905
	c-34.504,0-66.78,13.824-90.922,38.905L32.84,443.088c-40.097,41.731-34.918,77.782-28.286,92.85
	c4.664,10.685,20.618,40.071,66.521,40.071h56.886v310.918c0,70.6,50.719,137.071,122.782,137.071h65.277h99.989v-73.061V694.926
	c0-35.273-5.389-54.934,30.671-54.934h65.277h65.329c36.005,0,30.724,19.661,30.724,54.934v256.013v73.061h99.934h65.33
	c72.013,0,122.68-66.472,122.68-137.071V576.01h56.936c45.901,0,61.808-29.387,66.575-40.071
	C1026.09,520.871,1031.22,484.82,991.172,443.088L991.172,443.088z M952.886,512h-49.007h-32.691H831.97v374.928
	c0,35.274-22.742,73.062-58.698,73.062H671.988V694.926c0-70.597-22.642-118.916-94.704-118.916h-65.329h-65.276
	c-72.065,0-94.704,48.319-94.704,118.915v265.064H250.742c-36.058,0-58.749-37.787-58.749-73.062V512h-39.269h-32.641H71.075
	c-1.139,0-2.175-4.41-3.109-4.462c2.229-3.891,6.06-13.694,12.383-20.282L468.643,83.357c11.605-12.112,27.976-19.503,43.829-19.348
	c15.852-0.155,31.292,7.236,42.842,19.348l388.298,403.899c6.321,6.588,10.153,16.392,12.331,20.282
	C955.011,507.59,953.976,512,952.886,512L952.886,512z"/>
</svg>
