<?xml version="1.0" encoding="utf-8"?>
<!-- Generator: Adobe Illustrator 16.0.0, SVG Export Plug-In . SVG Version: 6.00 Build 0)  -->
<!DOCTYPE svg PUBLIC "-//W3C//DTD SVG 1.1//EN" "http://www.w3.org/Graphics/SVG/1.1/DTD/svg11.dtd">
<svg version="1.1" id="图层_1" xmlns="http://www.w3.org/2000/svg" xmlns:xlink="http://www.w3.org/1999/xlink" x="0px" y="0px"
	 width="1024px" height="1024px" viewBox="0 0 1024 1024" enable-background="new 0 0 1024 1024" xml:space="preserve">
<g>
	<path stroke="#FFFFFF" stroke-miterlimit="10" d="M622.635,217.461c-113.263,0-226.525,0.104-339.787-0.051
		c-37.865-0.053-44.358-7.312-44.641-48.593c-0.191-21.367,0.473-42.732,0-64.099c-0.617-27.226,12.985-38.429,35.92-39.725
		c5.829-0.362,11.706-0.155,17.582-0.155c222.638,0,445.277,0,667.914,0.051c42.889,0,50.755,8.921,51.277,56.062
		c1.185,107.505,0.332,96.563-86.535,96.563C823.805,217.411,723.243,217.461,622.635,217.461L622.635,217.461z M623.346,561.76
		c-109.282,0-218.564,0.053-327.892,0c-53.361,0-57.058-3.941-57.058-60.884c-0.047-18.15-0.094-36.302-0.047-54.452
		c0.047-23.544,11.327-35.162,32.414-36.198c5.831-0.311,11.707-0.26,17.535-0.26c223.491-0.051,446.935-0.051,670.426,0
		c45.637,0.053,51.654,7.106,52.177,57.411c1.041,100.867,1.279,94.799-85.966,94.487C824.42,561.501,723.858,561.76,623.346,561.76
		L623.346,561.76z M623.866,905.539c-112.315,0-224.629,0.104-336.895-0.051c-43.268-0.053-48.432-6.018-48.67-54.039
		c-0.094-17.113-0.332-34.175-0.094-51.289c0.473-36.77,7.486-45.119,42.034-45.17c229.463-0.261,458.972-0.261,688.435,0.051
		c32.604,0.053,41.229,10.164,42.081,46c0.476,19.188,0.379,38.479,0,57.669c-0.662,37.338-9.145,46.675-44.12,46.778
		C852.381,905.693,738.122,905.539,623.866,905.539L623.866,905.539z M82.529,223.737c-39.902,0-71.226-33.502-71.32-76.234
		c-0.144-42.732,31.088-77.064,70.468-77.479c39.95-0.519,71.987,32.567,72.648,74.887
		C154.989,190.235,124.471,223.737,82.529,223.737L82.529,223.737z M83.525,912.954c-39.333,0.52-71.607-32.982-72.507-75.196
		c-0.9-41.694,31.088-78.307,69.333-79.448c40.044-1.143,73.216,33.709,73.974,77.737
		C155.083,877.845,123.237,912.436,83.525,912.954L83.525,912.954z M11.065,490.298c0.523-41.074,34.074-76.234,72.413-76.026
		c39,0.205,70.894,34.902,70.894,77.062c0.049,43.408-33.789,79.345-73.311,77.895C42.58,567.775,10.545,531.681,11.065,490.298
		L11.065,490.298z M11.065,490.298"/>
</g>
</svg>
