<?xml version="1.0" encoding="utf-8"?>
<!-- Generator: Adobe Illustrator 16.0.0, SVG Export Plug-In . SVG Version: 6.00 Build 0)  -->
<!DOCTYPE svg PUBLIC "-//W3C//DTD SVG 1.1//EN" "http://www.w3.org/Graphics/SVG/1.1/DTD/svg11.dtd">
<svg version="1.1" id="图层_1" xmlns="http://www.w3.org/2000/svg" xmlns:xlink="http://www.w3.org/1999/xlink" x="0px" y="0px"
	 width="1024px" height="1024px" viewBox="0 0 1024 1024" enable-background="new 0 0 1024 1024" xml:space="preserve">
<g>
	<path stroke="#FFFFFF" stroke-miterlimit="10" d="M420.628,673.966c4.088,4.042,6.541,9.583,6.541,15.715
		c0,12.263-9.948,22.21-22.209,22.21c-6.132,0-11.673-2.452-15.715-6.495l-177.679-177.68c-4.042-4.043-6.495-9.584-6.495-15.716
		c0-6.131,2.454-11.672,6.495-15.715l177.679-177.68c4.042-3.997,9.583-6.496,15.715-6.496c12.261,0,22.209,9.948,22.209,22.21
		c0,6.131-2.452,11.673-6.541,15.715L280.92,489.791h701.492c12.264,0,22.209,9.947,22.209,22.209
		c0,12.264-9.945,22.21-22.209,22.21H280.92L420.628,673.966L420.628,673.966z M49.557,23.377h799.598
		c12.261,0,22.209,9.901,22.209,22.211v333.15c0,12.263-9.948,22.21-22.209,22.21c-12.264,0-22.212-9.947-22.212-22.21V67.797
		H71.813v888.404h755.13v-310.94c0-12.264,9.948-22.21,22.212-22.21c12.261,0,22.209,9.946,22.209,22.21v333.15
		c0,12.309-9.948,22.21-22.209,22.21H49.557c-12.262,0-22.164-9.901-22.164-22.21V45.588C27.393,33.278,37.294,23.377,49.557,23.377
		L49.557,23.377z M49.557,23.377"/>
</g>
</svg>
