<?xml version="1.0" encoding="utf-8"?>
<!-- Generator: Adobe Illustrator 16.0.0, SVG Export Plug-In . SVG Version: 6.00 Build 0)  -->
<!DOCTYPE svg PUBLIC "-//W3C//DTD SVG 1.1//EN" "http://www.w3.org/Graphics/SVG/1.1/DTD/svg11.dtd">
<svg version="1.1" id="图层_1" xmlns="http://www.w3.org/2000/svg" xmlns:xlink="http://www.w3.org/1999/xlink" x="0px" y="0px"
	 width="1024px" height="1024px" viewBox="0 0 1024 1024" enable-background="new 0 0 1024 1024" xml:space="preserve">
<g>
	<path stroke="#FFFFFF" stroke-miterlimit="10" d="M163.676,1011.662c-34.887,0-59.408-12.289-72.764-36.402
		c-10.666-19.258-10.865-39.551-10.865-39.705V84.422c3.738-29.846,16.246-50.912,37.129-62.684
		c15.051-8.469,29.355-9.295,30.303-9.295h576.582l-35.783,50.24H129.236v896.52l773.047,0.928V332.832l50.936-38.363v644.391
		c-2.293,28.656-14.553,49.465-36.482,61.959c-15.35,8.676-30.65,10.586-33.193,10.844H163.676L163.676,1011.662z M297.242,576.182
		h426.121c0,0,13.855-3.098,13.256,17.35v34.596c0,0-2.99,9.396-19.336,7.332l-415.754,0.309c0,0-14.553,0.723-15.75-11.359V584.6
		C285.779,584.6,288.172,576.182,297.242,576.182L297.242,576.182z M297.242,732.529h426.121c0,0,13.855-3.098,13.256,17.35v34.594
		c0,0-2.99,9.398-19.336,7.332l-415.754,0.311c0,0-14.553,0.723-15.75-11.359v-39.811
		C285.779,740.945,288.172,732.529,297.242,732.529L297.242,732.529z M914.742,100.943c2.492,1.963,6.18,1.498,8.125-1.135
		L951.125,61.6c1.895-2.582,1.395-6.402-1.096-8.469l-47.248-37.383c-2.492-1.961-6.18-1.445-8.174,1.137L866.4,55.094
		c-1.895,2.633-1.445,6.402,1.096,8.467L914.742,100.943L914.742,100.943L914.742,100.943z M753.564,329.27
		c2.643-1.963,6.379-5.68,8.273-8.365l131.475-177.93c1.895-2.633,1.395-6.402-1.098-8.469l-47.246-37.383
		c-2.492-2.014-6.18-1.498-8.174,1.137L705.92,275.467c-1.945,2.686-4.387,7.383-5.482,10.533l-35.486,105.436
		c-1.096,3.15,0.199,4.131,2.791,2.17L753.564,329.27L753.564,329.27L753.564,329.27z M753.564,329.27"/>
</g>
</svg>
