<?xml version="1.0" encoding="utf-8"?>
<!-- Generator: Adobe Illustrator 15.0.0, SVG Export Plug-In . SVG Version: 6.00 Build 0)  -->
<!DOCTYPE svg PUBLIC "-//W3C//DTD SVG 1.1//EN" "http://www.w3.org/Graphics/SVG/1.1/DTD/svg11.dtd">
<svg version="1.1" id="图层_1" xmlns="http://www.w3.org/2000/svg" xmlns:xlink="http://www.w3.org/1999/xlink" x="0px" y="0px"
	 width="1024px" height="1024px" viewBox="0 0 1024 1024" enable-background="new 0 0 1024 1024" xml:space="preserve">
<path stroke="#FFFFFF" stroke-miterlimit="10" d="M897.572,207.964c-17.361-11.601-42.212-25.695-61.13-35.586
	c-21.039-11.037-41.281-24.008-62.003-35.939c-41.317-23.823-82.267-46.654-122.739-70.725
	c-20.242-12.054-41.38-22.779-61.426-35.32c-18.404-11.518-48.007-20.279-77.664-20.279h-6.053
	c-25.839,0-59.41,11.251-75.274,21.474c-19.826,12.778-41.055,23.052-61.189,35.538c-39.851,24.675-82.005,46.811-122.845,70.618
	c-19.643,11.46-43.135,23.361-61.313,35.416c-19.191,12.712-41.633,22.524-61.201,35.537
	c-31.84,21.134-69.448,71.926-69.448,123.922v358.756c0,52.272,37.617,102.388,69.684,123.696
	c37.461,24.88,82.697,48.094,122.278,71.179c40.85,23.82,83.016,45.932,122.845,70.628c20.117,12.468,41.167,23.231,61.416,35.307
	c17.758,10.594,46.737,21.701,75.048,21.701h13.309c45.791,0,103.504-38.476,134.787-57.491
	c40.312-24.489,81.215-46.294,122.09-70.145c39.1-22.804,84.792-46.207,121.564-70.694c31.234-20.825,70.407-71.148,70.407-121.767
	V330.211C968.714,278.874,929.246,229.141,897.572,207.964L897.572,207.964z M933.204,680.378
	c0,46.563-36.036,92.824-64.746,111.976c-33.817,22.54-75.835,44.051-111.773,65.017c-37.593,21.927-75.21,41.984-112.301,64.506
	c-28.77,17.479-81.826,52.872-123.954,52.872h-12.225c-26.026,0-52.68-10.224-69.005-19.96
	c-18.624-11.107-37.987-21.002-56.496-32.471c-36.628-22.718-75.388-43.039-112.963-64.947
	c-36.4-21.235-78.01-42.574-112.435-65.464c-29.494-19.599-64.094-65.678-64.094-113.74V348.257
	c0-47.828,34.578-94.534,63.857-113.971c18.013-11.953,38.644-20.98,56.288-32.673c16.729-11.089,38.328-22.032,56.383-32.563
	c37.554-21.906,76.323-42.258,112.963-64.948c18.53-11.488,38.037-20.928,56.27-32.686c14.588-9.398,45.46-19.755,69.231-19.755
	h5.555c27.293,0,54.507,8.072,71.441,18.664c18.417,11.522,37.861,21.392,56.474,32.468c37.226,22.145,74.869,43.147,112.866,65.043
	c19.066,10.982,37.689,22.914,57.027,33.044c17.386,9.101,40.249,22.062,56.217,32.725c29.113,19.477,65.419,65.218,65.419,112.417
	V680.378L933.204,680.378L933.204,680.378z M313.133,693.342V419.847c0-15.197,6.002-29.65,16.738-40.365l0.093-0.083
	c10.739-10.737,25.223-16.729,40.429-16.729h285.166c15.23,0,29.653,6.083,40.412,16.82c10.746,10.728,16.86,25.149,16.86,40.356
	v273.495h36.954V419.847c0-25.006-9.998-48.787-27.692-66.452c-17.682-17.654-41.489-27.631-66.534-27.631H370.393
	c-25.027,0-48.776,9.977-66.421,27.558l-0.188,0.187c-17.675,17.654-27.618,41.321-27.618,66.339v273.495H313.133L313.133,693.342z
	 M543.135,414.566H408.553c-6.66,0-12.055,5.382-12.055,12.033v10.025c0,6.651,5.395,12.036,12.055,12.036h134.582
	c6.655,0,12.057-5.385,12.057-12.036v-10.025C555.192,419.948,549.79,414.566,543.135,414.566L543.135,414.566z M615.454,416.572
	h-8.037c-6.655,0-12.047,5.385-12.047,12.033v8.019c0,6.651,5.392,12.036,12.047,12.036h8.037c6.653,0,12.058-5.385,12.058-12.036
	v-8.019C627.512,421.957,622.108,416.572,615.454,416.572L615.454,416.572z"/>
</svg>
