<?xml version="1.0" encoding="utf-8"?>
<!-- Generator: Adobe Illustrator 16.0.0, SVG Export Plug-In . SVG Version: 6.00 Build 0)  -->
<!DOCTYPE svg PUBLIC "-//W3C//DTD SVG 1.1//EN" "http://www.w3.org/Graphics/SVG/1.1/DTD/svg11.dtd">
<svg version="1.1" id="图层_1" xmlns="http://www.w3.org/2000/svg" xmlns:xlink="http://www.w3.org/1999/xlink" x="0px" y="0px"
	 width="1024px" height="1024px" viewBox="0 0 1024 1024" enable-background="new 0 0 1024 1024" xml:space="preserve">
<g>
	<path stroke="#FFFFFF" stroke-miterlimit="10" d="M512.5,16.807c-273.765,0-495.7,221.936-495.7,495.701
		c0,273.765,221.935,495.684,495.7,495.684c273.765,0,495.7-221.919,495.7-495.684C1008.2,238.743,786.265,16.807,512.5,16.807
		L512.5,16.807z M512.5,970.064c-252.714,0-457.573-204.858-457.573-457.557C54.927,259.8,259.786,54.942,512.5,54.942
		c252.715,0,457.558,204.858,457.558,457.566C970.058,765.206,765.215,970.064,512.5,970.064L512.5,970.064z M450.595,309.32
		c-3.501-3.997-8.625-6.535-14.349-6.535c-4.194,0-8.042,1.363-11.18,3.643c-0.93,0.646-1.797,1.355-2.602,2.176
		c-4.699,4.706-6.465,11.25-5.298,17.337v373.734c-1.167,6.087,0.599,12.615,5.298,17.346c7.506,7.537,19.678,7.537,27.184,0
		l247.622-190.258c3.831-3.848,5.708-8.924,5.629-13.955c0.079-5.045-1.798-10.107-5.629-13.955L450.595,309.32L450.595,309.32z
		 M455.294,664.464V361.142l197.384,151.665L455.294,664.464L455.294,664.464z M455.294,664.464"/>
</g>
</svg>
