<?xml version="1.0" encoding="utf-8"?>
<!-- Generator: Adobe Illustrator 15.0.0, SVG Export Plug-In . SVG Version: 6.00 Build 0)  -->
<!DOCTYPE svg PUBLIC "-//W3C//DTD SVG 1.1//EN" "http://www.w3.org/Graphics/SVG/1.1/DTD/svg11.dtd">
<svg version="1.1" id="图层_1" xmlns="http://www.w3.org/2000/svg" xmlns:xlink="http://www.w3.org/1999/xlink" x="0px" y="0px"
	 width="1024px" height="1024px" viewBox="0 0 1024 1024" enable-background="new 0 0 1024 1024" xml:space="preserve">
<image overflow="visible" width="50" height="50" xlink:href="7AF66491.jpg"  transform="matrix(1 0 0 1 463.5002 494.5)">
</image>
<path fill="#231815" d="M428.801,151.622c-114.435,0-166.339,68.271-166.339,166.34h55.458
	c1.854-69.567,47.103-109.146,110.881-110.917c55.98,1.77,80.716,32.28,82.593,83.959c0,26.73-19.313,57.87-57.871,93.599
	c-44.464,39.246-52.475,67.629-52.475,99.673v55.435h55.459v-55.435c0-17.756,9.532-41.79,40.446-70.315
	c46.329-41.029,69.53-81.94,69.53-122.957C566.484,209.042,517.598,151.622,428.801,151.622L428.801,151.622z M401.048,650.629
	h55.459V595.17h-55.459V650.629L401.048,650.629z M872.325,473.627V89.733c0,0-10.459-76.733-83.2-76.733
	c-72.739,0-776.131,0-776.131,0v793.308c0,0,10.436,64.514,110.881,66.082c100.445,1.545,304.926,0,304.926,0
	C416.701,873.935,872.325,473.627,872.325,473.627L872.325,473.627z M401.048,816.956c0,0-256.455-0.785-277.173,0
	C59.8,819.381,68.417,755.08,68.417,755.08V64.214c0,0,684.338,0,720.708,0c36.369,0,27.719,30.404,27.719,51.228v332.655
	L401.048,816.956L401.048,816.956z M993.795,629.424l-96.367-89.95l-17.021-15.832l-16.973,15.832l-72.312,67.464L526.121,854.086
	l-5.195,4.755l-1.449,6.656L484.212,1011l160.003-29.073l7.227-1.305l5.183-4.778l265.002-247.15l72.313-67.439l17.067-15.855
	L993.795,629.424L993.795,629.424z M627.576,939.141l-77.828,14.522l15.499-72.62l242.848-226.445l62.327,58.098L627.576,939.141
	L627.576,939.141z M904.559,680.865l-62.327-58.098l38.271-35.584l62.327,58.12L904.559,680.865L904.559,680.865z"/>
</svg>
