<?xml version="1.0" encoding="utf-8"?>
<!-- Generator: Adobe Illustrator 15.0.0, SVG Export Plug-In . SVG Version: 6.00 Build 0)  -->
<!DOCTYPE svg PUBLIC "-//W3C//DTD SVG 1.1//EN" "http://www.w3.org/Graphics/SVG/1.1/DTD/svg11.dtd">
<svg version="1.1" id="图层_1" xmlns="http://www.w3.org/2000/svg" xmlns:xlink="http://www.w3.org/1999/xlink" x="0px" y="0px"
	 width="1024px" height="1024px" viewBox="0 0 1024 1024" enable-background="new 0 0 1024 1024" xml:space="preserve">
<path fill="#231815" d="M867.305,257.855c0-27.159,144.897-101.282,144.853-126.42c0-5.697-9.927-16.389-16.591-16.389H594.568
	h-41.834v-77.4C552.734,22.943,540.77,11,526.036,11h-28.068c-14.744,0-26.721,11.943-26.721,26.646v77.4H171.761
	c-12.052,0-159.918,110.487-159.918,142.809c0,39.169,147.866,145.648,159.918,145.648h299.486v116.767l-24.896,0.804
	l-309.713,10.163c-5.061,0.168-12.622,10.754-12.517,15.085c0.542,19.94,114.231,70.899,115.047,96.273
	c0.7,20.955-109.35,91.243-108.671,110.63c0.169,4.395,7.86,5.198,12.982,5.072l309.715-10.162l18.052-0.615V1013h81.486V744.869
	l226.998-7.426c9.292-0.342,120.924-91.542,120.116-116.512c-0.978-30.229-117.657-110.848-126.949-110.549l-220.165,7.212V403.504
	h41.834h400.999c6.578,0,16.38-10.63,16.424-16.26C1012.157,361.433,867.305,290.717,867.305,257.855L867.305,257.855
	L867.305,257.855z M750.922,553.747c8.104-0.279,92.963,42.152,93.853,68.647c0.678,21.852-78.237,74.379-86.385,74.657
	l-205.656,6.809l-81.486,2.714l-233.637,7.724c-4.488,0.169-4.89,0.597-5.026-3.243c-0.267-8.296,56.949-50.771,56.346-69.119
	c-0.713-22.235-64.844-60.038-64.239-68.46c0.276-3.777,1.761-2.333,6.173-2.502l240.384-7.958l81.486-2.695L750.922,553.747
	L750.922,553.747L750.922,553.747z M883.472,356.27H594.568h-81.483H201.483c-10.565,0-126.959-63.975-126.959-98.246
	c0-28.313,113.127-97.813,123.682-97.813h314.879h81.483h288.904c5.77,0,40.393-2.757,40.393,2.199
	c0,10.764-108.918,70.846-108.918,94.603c0,28.78,105.395,86.365,104.25,97.196C918.643,359.099,889.198,356.27,883.472,356.27
	L883.472,356.27L883.472,356.27z"/>
</svg>
