<?xml version="1.0" encoding="utf-8"?>
<!-- Generator: Adobe Illustrator 15.0.0, SVG Export Plug-In . SVG Version: 6.00 Build 0)  -->
<!DOCTYPE svg PUBLIC "-//W3C//DTD SVG 1.1//EN" "http://www.w3.org/Graphics/SVG/1.1/DTD/svg11.dtd">
<svg version="1.1" xmlns="http://www.w3.org/2000/svg" xmlns:xlink="http://www.w3.org/1999/xlink" x="0px" y="0px"
	 width="1023.987px" height="1023.988px" viewBox="0 0 1023.987 1023.988" enable-background="new 0 0 1023.987 1023.988"
	 xml:space="preserve">
<g id="图层_1">
	<path d="M918.246,229.093c-22.273-30.302-53.354-65.788-87.287-99.749c-34.059-33.965-69.543-64.98-99.846-87.189
		C679.443,4.373,654.447,0,640.074,0H143.62C99.425,0,63.524,35.874,63.524,79.97v864.048c0,44.097,35.9,79.97,80.096,79.97h736.681
		c44.164,0,80.162-35.873,80.162-79.97V320.006C960.463,305.628,956.063,280.572,918.246,229.093L918.246,229.093L918.246,229.093z
		 M785.504,174.668c30.82,30.694,54.912,58.373,72.783,81.296H704.045V102.082C727.102,119.922,754.813,143.942,785.504,174.668
		L785.504,174.668L785.504,174.668L785.504,174.668z M896.359,944.018c0,8.609-7.25,16.059-16.059,16.059H143.62
		c-8.741,0-16.026-7.449-16.026-16.059V79.97c0-8.61,7.285-15.994,16.026-15.994h496.454v224.007
		c0,17.644,14.373,32.022,32.115,32.022h224.17V944.018L896.359,944.018L896.359,944.018z M791.721,836.919L611.098,656.324
		c30.398-37.879,48.529-86.052,48.529-138.436c0-122.644-99.588-222.196-222.358-222.196c-122.865,0-222.386,99.553-222.386,222.196
		c0,122.638,99.521,222.229,222.386,222.229c48.339,0,87.479-9.844,123.97-36.005l181.789,181.565
		c6.736,6.734,17.873,6.734,24.604,0l24.09-24.156C798.586,854.723,798.586,843.653,791.721,836.919L791.721,836.919
		L791.721,836.919z M437.269,663.125c-80.39,0-145.463-64.945-145.463-145.236c0-80.293,65.073-145.273,145.463-145.273
		c80.292,0,145.339,64.98,145.339,145.273C582.607,598.179,517.561,663.125,437.269,663.125L437.269,663.125L437.269,663.125z"/>
</g>
<g id="图层_2">
</g>
<g id="图层_3">
</g>
</svg>
