<?xml version="1.0" encoding="utf-8"?>
<!-- Generator: Adobe Illustrator 16.0.0, SVG Export Plug-In . SVG Version: 6.00 Build 0)  -->
<!DOCTYPE svg PUBLIC "-//W3C//DTD SVG 1.1//EN" "http://www.w3.org/Graphics/SVG/1.1/DTD/svg11.dtd">
<svg version="1.1" id="图层_1" xmlns="http://www.w3.org/2000/svg" xmlns:xlink="http://www.w3.org/1999/xlink" x="0px" y="0px"
	 width="1024px" height="1024px" viewBox="0 0 1024 1024" enable-background="new 0 0 1024 1024" xml:space="preserve">
<g>
	<path stroke="#FFFFFF" stroke-miterlimit="10" d="M674.348,263.107c0-16.877-13.719-30.561-30.615-30.561H212.379
		c-16.932,0-30.615,13.684-30.615,30.561c0,16.879,13.684,30.58,30.615,30.58h431.426
		C660.701,293.688,674.348,279.986,674.348,263.107L674.348,263.107z M959.703,773.4l-126.828-82.025
		c7.4-20.867,11.59-43.215,11.59-66.572c0-110.584-90.076-200.551-200.732-200.551c-110.689,0-200.73,89.967-200.73,200.551
		c0,110.545,90.041,200.514,200.73,200.514c65.346,0,123.328-31.555,160.008-79.932l122.641,79.391
		c5.127,3.285,10.902,4.873,16.607,4.873c10.037,0,19.82-4.873,25.668-13.898C977.936,801.488,973.855,782.57,959.703,773.4
		L959.703,773.4z M643.732,764.158c-76.934,0-139.5-62.529-139.5-139.355c0-76.898,62.566-139.393,139.5-139.393
		c76.936,0,139.502,62.494,139.502,139.393C783.307,701.629,720.668,764.158,643.732,764.158L643.732,764.158z M181.691,571.479
		c0,16.859,13.719,30.578,30.615,30.578h190.982c2.021-21.299,6.787-41.842,14.008-61.156H212.379
		C195.41,540.9,181.691,554.619,181.691,571.479L181.691,571.479z M604.381,386.723H212.379c-16.932,0-30.615,13.684-30.615,30.58
		c0,16.877,13.684,30.561,30.615,30.561h267.305C513.654,416.418,556.689,394.576,604.381,386.723L604.381,386.723z M744.352,860.77
		c0,30.939-25.164,56.139-56.104,56.139H167.863c-30.975,0-56.139-25.162-56.139-56.139V163.176
		c0-30.922,25.164-56.068,56.139-56.068h520.385c30.939,0,56.104,25.146,56.104,56.068v242.303
		c22.455,10.344,43.105,23.973,61.23,40.326V163.176c0-64.643-52.639-117.279-117.406-117.279H167.863
		c-64.695,0-117.404,52.582-117.404,117.279v697.666c0,64.623,52.637,117.262,117.404,117.262h520.385
		c64.695,0,117.406-52.566,117.406-117.262v-57.078c-18.16,16.354-38.775,30-61.23,40.326v16.68H744.352z"/>
</g>
</svg>
