<?xml version="1.0" encoding="utf-8"?>
<!-- Generator: Adobe Illustrator 16.0.0, SVG Export Plug-In . SVG Version: 6.00 Build 0)  -->
<!DOCTYPE svg PUBLIC "-//W3C//DTD SVG 1.1//EN" "http://www.w3.org/Graphics/SVG/1.1/DTD/svg11.dtd">
<svg version="1.1" id="图层_1" xmlns="http://www.w3.org/2000/svg" xmlns:xlink="http://www.w3.org/1999/xlink" x="0px" y="0px"
	 width="1024px" height="1024px" viewBox="0 0 1024 1024" enable-background="new 0 0 1024 1024" xml:space="preserve">
<g>
	<path stroke="#FFFFFF" stroke-miterlimit="10" d="M258.611,84.203c49.094,0,95.271,18.51,129.961,52.188
		s53.822,78.41,53.779,126.055v166.203c0,6.641-5.525,12.039-12.373,12.039H258.611c-49.139,0-95.273-18.553-130.006-52.229
		c-34.732-33.678-53.822-78.41-53.822-126.014c0-47.602,19.09-92.377,53.822-126.055S209.473,84.203,258.611,84.203 M258.611,47.869
		c-122.229,0-221.301,96.063-221.301,214.576c0,118.473,99.072,214.576,221.301,214.576h171.367
		c27.574,0,49.889-21.68,49.889-48.373V262.445C479.912,143.932,380.84,47.869,258.611,47.869L258.611,47.869L258.611,47.869z
		 M429.979,584.311c6.893,0,12.461,5.398,12.461,12.039v166.203c0,47.604-19.135,92.377-53.867,126.055
		c-34.732,33.635-80.91,52.188-129.961,52.188c-49.139,0-95.273-18.553-130.006-52.188c-34.732-33.678-53.822-78.451-53.822-126.055
		c0-47.602,19.09-92.377,53.822-126.012c34.732-33.678,80.867-52.23,130.006-52.23H429.979 M429.979,547.977H258.611
		c-122.229,0-221.301,96.063-221.301,214.576s99.072,214.576,221.301,214.576c122.184,0,221.301-96.063,221.301-214.576V596.35
		C479.912,569.656,457.553,547.977,429.979,547.977L429.979,547.977L429.979,547.977z M774.391,84.203
		c49.139,0,95.273,18.51,130.006,52.188s53.822,78.41,53.822,126.012c0,47.604-19.09,92.379-53.822,126.057
		c-34.732,33.633-80.867,52.186-130.006,52.186H602.98c-6.85,0-12.418-5.398-12.418-11.996V262.445
		c0-47.602,19.178-92.377,53.867-126.055C679.162,102.713,725.34,84.203,774.391,84.203 M774.391,47.869
		c-122.184,0-221.301,96.063-221.301,214.576v166.203c0,26.693,22.359,48.33,49.891,48.33h171.41
		c122.229,0,221.301-96.061,221.301-214.576C995.691,143.932,896.619,47.869,774.391,47.869L774.391,47.869L774.391,47.869z
		 M774.391,584.311c49.139,0,95.273,18.553,130.006,52.23s53.822,78.41,53.822,126.012c0,47.604-19.09,92.377-53.822,126.055
		c-34.732,33.635-80.867,52.188-130.006,52.188c-49.094,0-95.273-18.553-129.961-52.188
		c-34.732-33.678-53.867-78.451-53.867-126.055V596.35c0-6.641,5.568-12.039,12.461-12.039H774.391 M774.391,547.977H602.98
		c-27.531,0-49.891,21.637-49.891,48.373v166.203c0,118.514,99.072,214.576,221.301,214.576s221.301-96.063,221.301-214.576
		C995.691,644.082,896.619,547.977,774.391,547.977L774.391,547.977L774.391,547.977z M774.391,547.977"/>
</g>
</svg>
