<?xml version="1.0" encoding="utf-8"?>
<!-- Generator: Adobe Illustrator 16.0.0, SVG Export Plug-In . SVG Version: 6.00 Build 0)  -->
<!DOCTYPE svg PUBLIC "-//W3C//DTD SVG 1.1//EN" "http://www.w3.org/Graphics/SVG/1.1/DTD/svg11.dtd">
<svg version="1.1" id="图层_1" xmlns="http://www.w3.org/2000/svg" xmlns:xlink="http://www.w3.org/1999/xlink" x="0px" y="0px"
	 width="1024px" height="1024px" viewBox="0 0 1024 1024" enable-background="new 0 0 1024 1024" xml:space="preserve">
<g>
	<path stroke="#FFFFFF" stroke-miterlimit="10" d="M798.895,953.689c-11.256,0-23.619-5.023-37.666-15.324l-214.023-156.93
		c-17.902-13.146-52.465-13.146-70.457,0l-213.936,156.93c-14.092,10.301-26.41,15.324-37.754,15.324
		c-10.635,0-20.117-4.563-26.055-12.477c-8.242-11.137-8.463-26.545-0.621-47.104l91.77-240.797
		c8.064-21.102-2.082-50.703-21.713-63.307L44.4,446.181c-29.289-18.801-31.063-36.219-27.428-47.48
		c3.588-11.012,14.799-24.16,47.943-24.16l4.078,0.084l270.654,8.123h0.09c24.947,0,50.426-17.963,56.939-39.191L472.186,97.82
		c9.969-32.533,27.162-39.314,39.836-39.314c12.629,0,29.82,6.781,39.791,39.314l75.508,245.779
		c6.514,21.229,31.992,39.148,55.654,39.148l276.15-8.207c33.057,0,44.311,13.148,47.855,24.16
		c3.723,11.262,1.951,28.68-27.383,47.48L755.557,590.006c-19.629,12.645-29.777,42.205-21.713,63.307L825.57,894.15
		c7.887,20.518,7.666,35.926-0.621,47.063C819.1,949.127,809.617,953.689,798.895,953.689L798.895,953.689z M85.035,419.091
		l209.549,134.571c37.443,24.033,54.725,74.361,39.393,114.557L248.102,893.48l200.154-146.797
		c17.238-12.645,39.836-19.596,63.766-19.596c23.883,0,46.527,6.951,63.719,19.596L775.896,893.48l-85.832-225.262
		c-15.332-40.195,1.949-90.564,39.35-114.557l209.594-134.571l-256.033,7.619c-44.045,0-88.092-31.15-100.32-70.844l-70.633-229.91
		l-70.633,229.869c-12.23,39.734-56.32,70.885-100.367,70.885l-2.836-0.041L85.035,419.091L85.035,419.091z M85.035,419.091"/>
</g>
</svg>
