<?xml version="1.0" encoding="utf-8"?>
<!-- Generator: Adobe Illustrator 16.0.0, SVG Export Plug-In . SVG Version: 6.00 Build 0)  -->
<!DOCTYPE svg PUBLIC "-//W3C//DTD SVG 1.1//EN" "http://www.w3.org/Graphics/SVG/1.1/DTD/svg11.dtd">
<svg version="1.1" id="图层_1" xmlns="http://www.w3.org/2000/svg" xmlns:xlink="http://www.w3.org/1999/xlink" x="0px" y="0px"
	 width="1024px" height="1024px" viewBox="0 0 1024 1024" enable-background="new 0 0 1024 1024" xml:space="preserve">
<g>
	<path stroke="#FFFFFF" stroke-miterlimit="10" d="M868.976,124.82H491.094L265.393,19.486c-12.413-5.781-25.514-8.742-38.969-8.742
		c-50.766,0-92.104,41.374-92.104,92.223v23.524c-67.23,10.091-119.003,68.036-119.003,138.038v595.006
		c0,77.073,62.682,139.721,139.72,139.721H512h356.976c77.062,0,139.709-62.647,139.709-139.721V264.529
		C1008.685,187.467,946.037,124.809,868.976,124.82L868.976,124.82z M175.764,102.967c0-31.365,26.331-50.766,50.66-50.766
		c7.344,0,14.546,1.634,21.439,4.844l243.42,113.603v751.546L205.009,788.633c-17.755-8.362-29.245-26.331-29.245-45.992V102.967
		L175.764,102.967z M56.772,859.535v-595.03c0-47.083,33.295-86.431,77.547-95.966v574.125c0,35.664,20.835,68.438,53.135,83.505
		l282.117,131.606H155.036C100.835,957.775,56.772,913.701,56.772,859.535L56.772,859.535z M967.227,859.535
		c0,54.179-44.073,98.264-98.251,98.264H532.337c0.154-1.03,0.392-2.037,0.392-3.079V166.265h336.247
		c54.178,0,98.251,44.074,98.251,98.264V859.535L967.227,859.535z M967.227,859.535"/>
</g>
</svg>
