<?xml version="1.0" encoding="utf-8"?>
<!-- Generator: Adobe Illustrator 15.0.0, SVG Export Plug-In . SVG Version: 6.00 Build 0)  -->
<!DOCTYPE svg PUBLIC "-//W3C//DTD SVG 1.1//EN" "http://www.w3.org/Graphics/SVG/1.1/DTD/svg11.dtd">
<svg version="1.1" id="图层_1" xmlns="http://www.w3.org/2000/svg" xmlns:xlink="http://www.w3.org/1999/xlink" x="0px" y="0px"
	 width="1355px" height="1024px" viewBox="0 0 1355 1024" enable-background="new 0 0 1355 1024" xml:space="preserve">
<path stroke="#FFFFFF" stroke-miterlimit="10" d="M1229.534,18.226C1210.681,16.11,1063.68-0.002,936.619-0.002
	c-110.131,0-183.988,22.845-211.22,36.779c-8.135,3.675-29.099,13.993-47.896,30.164c-18.799-16.171-39.764-26.489-47.896-30.164
	C602.376,22.842,528.518-0.002,418.389-0.002c-127.058,0-274.057,16.111-292.915,18.228c-53.077,1.179-95.973,44.424-95.973,97.404
	v788.745c0,53.213,43.196,96.574,96.575,97.43c0.424,0,0.844,0,1.266,0c1.688,0,3.375-0.092,5.063-0.298
	c14.158-1.821,89.102-11.052,172.42-16.818c146.639-10.108,202.545-1.501,222.849,4.561c0.062,0.03,0.182,0.03,0.3,0.059
	c0.362,0.118,0.726,0.21,1.087,0.296c0.238,0.061,0.48,0.119,0.721,0.178c0.242,0.086,0.604,0.146,0.843,0.201
	c0.362,0.062,0.726,0.117,1.025,0.18c0.12,0.026,0.18,0.06,0.298,0.06c9.644,1.587,23.979,6.291,39.103,11.259
	c30.662,10.025,68.859,22.521,106.452,22.521c31.627,0,66.633-9.938,100.367-19.553c23.797-6.76,48.321-13.76,61.813-13.76
	c4.338,0,8.555-0.793,12.41-2.232c169.17-23.635,366.775,12.379,368.823,12.761l3.134,0.589h3.253
	c54.161,0,98.197-43.69,98.197-97.431V115.628C1325.504,62.649,1282.613,19.404,1229.534,18.226L1229.534,18.226z M545.746,922.216
	c-98.499-27.871-361.411,2.82-419.85,10.142c-14.762-0.881-26.508-13.113-26.508-27.984V115.628
	c0-15.465,12.711-28.048,28.315-28.048h1.988l1.988-0.236c1.565-0.175,157.6-17.962,286.708-17.962
	c96.092,0,159.348,19.081,179.591,29.282l0.663,0.354l1.266,0.588c19.1,8.585,39.883,24.165,42.653,31.841v813.467
	c0,1.79,0.121,3.56,0.36,5.286c-16.748-3.789-33.979-9.4-50.002-14.641C576.052,930.068,560.026,924.832,545.746,922.216
	L545.746,922.216z M1255.621,904.372c0,14.638-11.328,26.659-25.783,27.928c-30.668-5.41-224.114-37.194-395.454-11.438
	c-1.325,0.203-2.65,0.5-3.854,0.854c-21.328,1.674-46.029,8.67-71.875,16.05c-15.121,4.293-31.389,8.907-46.568,12.231
	c0.238-1.645,0.36-3.354,0.36-5.086V131.447c2.771-7.673,23.558-23.255,42.533-31.811l0.844-0.324l1.203-0.646
	c20.185-10.172,83.5-29.283,179.593-29.283c129.107,0,285.144,17.788,286.708,17.963l1.99,0.237h1.988
	c15.602,0,28.314,12.583,28.314,28.047L1255.621,904.372L1255.621,904.372z M182.649,390.252
	c37.712-9.346,107.78-26.693,226.281-26.724c62.656,0.734,101.997,9.732,144.953,33.134c5.36,2.912,11.084,4.265,16.809,4.265
	c12.351,0,24.278-6.5,30.662-17.994c9.279-16.813,3.134-37.895-13.856-47.096C534.002,306.67,484.119,295,409.535,294.146h-0.423
	c-127.18,0-202.726,18.728-243.331,28.781c-18.736,4.645-30.123,23.491-25.425,42.072
	C144.995,383.58,163.972,394.899,182.649,390.252L182.649,390.252z M589.187,619.396c-3.855-1.734-95.791-42.188-180.074-42.188
	c-124.347,0-171.52,12.758-217.126,25.072c-7.047,1.916-13.673,3.706-20.725,5.471c-18.734,4.736-30.002,23.638-25.242,42.188
	c4.757,18.58,23.737,29.782,42.471,25.05c7.592-1.91,14.821-3.881,21.871-5.761c43.015-11.646,83.739-22.639,198.749-22.639
	c69.162,0,150.675,35.748,151.519,36.104c4.638,2.059,9.52,3.058,14.217,3.058c13.376,0,26.146-7.646,31.931-20.524
	C614.729,647.737,606.777,627.215,589.187,619.396L589.187,619.396z M1185.615,314.812
	c-94.583-18.668-163.386-30.487-252.066-24.782c-96.994,0.293-163.806,36.043-166.641,37.572
	c-16.868,9.231-23.135,30.312-13.854,47.097c6.389,11.525,18.374,18.023,30.726,18.023c5.661,0,11.446-1.381,16.748-4.263
	c0.543-0.294,55.547-29.046,134.167-29.046h1.144l1.205-0.06c80.668-5.352,145.375,5.823,234.899,23.521
	c18.975,3.733,37.29-8.468,41.086-27.283C1216.822,336.804,1204.531,318.546,1185.615,314.812L1185.615,314.812z"/>
</svg>
