<?xml version="1.0" encoding="utf-8"?>
<!-- Generator: Adobe Illustrator 15.0.0, SVG Export Plug-In . SVG Version: 6.00 Build 0)  -->
<!DOCTYPE svg PUBLIC "-//W3C//DTD SVG 1.1//EN" "http://www.w3.org/Graphics/SVG/1.1/DTD/svg11.dtd">
<svg version="1.1" id="图层_1" xmlns="http://www.w3.org/2000/svg" xmlns:xlink="http://www.w3.org/1999/xlink" x="0px" y="0px"
	 width="1024px" height="1024px" viewBox="0 0 1024 1024" enable-background="new 0 0 1024 1024" xml:space="preserve">
<path fill="#231815" d="M1011.908,227.27c-0.14-5.882-2.415-11.508-6.369-15.798c-2.185-2.36-54.311-58.112-143.357-86.255
	c-33.153-10.462-67.376-15.787-101.739-15.787c-102.438,0-191.388,47.766-248.407,88.255
	c-57.904-41.338-147.972-90.103-250.537-90.103c-34.387,0-68.585,5.439-101.564,16.123
	c-88.732,28.794-139.683,85.744-141.833,88.186c-3.803,4.277-5.953,9.833-6.057,15.6v573.541l63.412,75.537
	c3.696,9.462,13.043,15.738,23.366,15.483c3.836,0.255,7.8-0.512,11.461-2.209c20.925-5.253,126.744-30.734,211.118-30.734
	c38.709,0,67.888,5.464,84.337,15.786c7.765,4.929,12.055,10.275,13.822,17.46c0.231,13.16,10.798,23.645,24.19,23.924
	c0.954,0,9.834,0.139,23.436,0.139c25.771,0,64.634-0.51,103.54-2.928v0.045c1.813,0.396,3.72,0.628,5.627,0.628
	c11.345,0,21.159-7.694,23.811-18.716c2.415-10.159,8.505-17.786,19.156-23.923c17.48-10.045,44.917-15.159,81.558-15.159
	c82.117,0,180.648,25.365,209.199,33.247c3.673,1.767,7.765,2.65,11.763,2.487c0.141,0,0.328,0,0.513,0
	c9.577,0,18.554-5.812,22.366-14.509l67.237-76.234V228.596L1011.908,227.27L1011.908,227.27L1011.908,227.27z M962.947,238.104
	V756.37c-38.363-14.276-96.532-33.294-160.795-45.197c-39.013-7.207-75.651-10.858-109.084-10.858
	c-63.612,0-116.247,12.973-156.61,38.594V240.138c74.958-54.392,150.331-81.977,224.173-81.977c29.246,0,58.218,4.475,86.208,13.275
	C906.544,190.175,947.461,223.794,962.947,238.104L962.947,238.104L962.947,238.104z M331.27,753.696
	c74.469,0,129.186,18.482,162.653,54.938l0.141,0.116c2.186,2.069,2.186,2.069,2.301,2.14l1.546,1.232
	c0.522,0.324,1.07,0.697,1.628,0.999c0.477,0.278,1.883,1.023,1.883,1.023l1.268,0.558c0.395,0.141,2.209,0.768,2.731,0.931
	l1.291,0.325c0.557,0.115,1.15,0.232,1.662,0.303c0.487,0.022,1.302,0.139,1.522,0.139l2.104,0.116c0.592,0,1.185,0,1.696-0.07
	c0.407,0,2.116-0.232,2.441-0.301c0.594-0.071,1.15-0.187,1.813-0.374c0.593-0.138,2.44-0.742,2.919-0.928
	c0.418-0.141,0.858-0.326,1.323-0.536c0,0,1.232-0.604,1.744-0.907c0.373-0.185,0.744-0.396,1.07-0.627
	c0.441-0.255,0.858-0.535,1.559-1.023c0.138-0.115,0.858-0.628,0.858-0.628l3.257-3.185l0.138-0.139
	c32.702-38.989,86.825-58.729,160.852-58.729c41.895,0,130.337,6.929,254.536,53.032l-33.386,37.852
	c-22.041-5.789-64.82-16.229-111.924-23.553c-37.246-5.766-70.819-8.719-99.787-8.719c-45.522,0-81.279,7.323-106.343,21.785
	c-15.903,9.16-27.807,21.296-35.339,36.013c-35.049,1.906-69.435,2.325-92.242,2.325c-1.628,0-3.174,0-4.661,0
	c-6.208-13.693-16.484-25.108-30.608-33.989c-24.668-15.485-62.191-23.32-111.62-23.32c-80.723,0-173.931,20.413-211.676,29.619
	l-31.143-37.082C132.057,784.082,234.773,753.696,331.27,753.696L331.27,753.696L331.27,753.696z M329.829,704.964
	c-33.316,0-69.842,3.396-108.587,10.092c-64.192,11.089-122.048,28.807-160.247,42.127V237.766
	c15.042-14.495,54.903-48.625,114.132-67.806c27.888-9.068,56.902-13.647,86.232-13.647c73.828,0,149.923,28.179,226.159,83.779
	v501.375C446.774,717.24,393.753,704.964,329.829,704.964L329.829,704.964L329.829,704.964z"/>
</svg>
