<?xml version="1.0" encoding="utf-8"?>
<!-- Generator: Adobe Illustrator 16.0.0, SVG Export Plug-In . SVG Version: 6.00 Build 0)  -->
<!DOCTYPE svg PUBLIC "-//W3C//DTD SVG 1.1//EN" "http://www.w3.org/Graphics/SVG/1.1/DTD/svg11.dtd">
<svg version="1.1" id="图层_1" xmlns="http://www.w3.org/2000/svg" xmlns:xlink="http://www.w3.org/1999/xlink" x="0px" y="0px"
	 width="1024px" height="1024px" viewBox="0 0 1024 1024" enable-background="new 0 0 1024 1024" xml:space="preserve">
<path stroke="#FFFFFF" stroke-miterlimit="10" d="M919.504,389.997c-6.447-2.665-14.189-2.014-19.917,1.729L664.906,545.762
	c-4.617,3.051-7.312,7.73-7.312,12.673v79.441c0,6.062,4.089,11.674,10.585,14.358c2.645,1.078,5.484,1.63,8.323,1.63
	c4.137,0,8.226-1.122,11.643-3.339l234.681-154.075c4.615-3.034,7.264-7.711,7.264-12.634v-79.418
	C930.09,398.256,926,392.683,919.504,389.997L919.504,389.997z M892.275,475.946L695.409,605.204v-38.955L892.275,437.01V475.946
	L892.275,475.946z M987.051,177.293c-22.081-9.113-49.843-6.652-69.421,6.143c-2.888,1.953-6.446,4.252-9.862,6.49
	c-48.16,1.648-81.499-20.303-93.433-29.702v-21.461c0-13.081-9.619-30.393-27.95-38.083c-9.719-4.047-29.778-8.502-54.075,7.202
	c-5.29,3.072-63.841,36.902-130.858,75.817V86.93c0-5.919-3.847-11.332-10.007-14.117c-6.158-2.788-13.564-2.462-19.437,0.793
	c-0.624,0.366-14.432,8.136-35.696,20.077c-85.298,5.473-148.081-19.02-169.587-29.191V16.016c0-5.858-3.8-11.271-9.862-14.057
	c-6.109-2.849-13.472-2.542-19.293,0.61c-2.354,1.282-234.869,128.485-273.744,147.302c-68.46,32.976-64.275,97.34-63.502,104.948
	v484.524c0,21.076,12.844,39.955,37.14,54.561c33.051,19.874,86.5,30.777,138.65,30.777c29.492,0,58.6-3.496,83.325-10.842
	c2.12-0.611,4.042-1.546,5.726-2.728l63.745-44.102v121.651c0,84.727,110.607,135.339,217.505,135.339
	c44.647,0,85.205-8.727,117.34-25.284c55.854-28.665,319.737-202.065,329.456-208.555C1012.5,779.846,1024,762.208,1024,742.987
	V227.336C1024,206.159,1009.468,186.508,987.051,177.293L987.051,177.293z M754.439,133.841c3.031-1.995,10.631-6.367,15.156-4.455
	c4.185,1.77,6.928,7.465,6.928,9.377v28.074c0,3.886,1.683,7.629,4.665,10.558c1.636,1.567,32.62,30.169,83.52,40.788
	c-89.485,58.607-231.554,150.415-269.078,169.476c-31.369,15.949-64.179,24.004-97.375,24.004c-17.414,0-31.366-2.298-40.024-4.272
	c-28.052-6.287-45.802-16.397-52.922-30.026c-8.465-16.192-0.338-34.215,2.5-39.646c4.235-3.114,8.517-6.227,13.615-9.44
	C464.724,301.263,750.785,135.977,754.439,133.841L754.439,133.841z M82.539,177.638C114.293,162.321,264.49,80.563,328.91,45.39
	v28.154c0,5.249,3.079,10.192,8.18,13.163c2.791,1.628,57.105,32.021,143.079,38.488
	c-90.399,50.653-220.056,122.953-257.482,141.932C156.052,300.935,99.331,311.473,67,295.972
	c-23.861-11.454-28.867-35.214-28.867-53.136c0-0.042-0.048-0.102-0.048-0.143C39.195,226.645,46.122,195.255,82.539,177.638
	L82.539,177.638z M243.9,784.523c-56.624,15.523-143.608,7.834-184.549-16.7c-14.096-8.481-21.217-18.022-21.217-28.48V318.065
	c3.226,2.075,6.641,3.986,10.248,5.756c45.079,21.563,113.924,11.229,193.739-29.252c45.994-23.334,222.94-122.404,306.699-169.476
	c0.626-0.022,1.107,0,1.733-0.063c5.483-0.508,10.053-3.011,13.083-6.53v81.961c0,1.627,0.532,3.092,1.06,4.577
	c-72.308,42.049-145.05,84.564-165.736,97.461c-29.06,18.188-45.656,35.966-55.665,52.648
	c-8.131,12.226-14.384,26.262-14.384,40.563v330.002L243.9,784.523L243.9,784.523z M986.186,743.004
	c0,8.199-4.959,15.688-14.722,20.995c-2.693,1.79-273.406,179.629-327.339,207.373c-26.22,13.49-60.041,20.629-97.712,20.629
	c-88.326,0-179.643-38.65-179.643-103.339V420.449c0-0.06,0-0.08,0-0.161v-3.825c0-9.501,0-19.163,2.502-29.213
	c0.388,0.854,0.819,1.75,1.204,2.625c11.884,23.19,38.152,39.484,78.035,48.477c15.54,3.479,32.715,5.31,49.743,5.31
	c40.173,0,79.525-9.603,116.862-28.541c48.348-24.616,251.567-157.413,325.701-206.439c8.418-5.471,20.062-6.631,29.635-2.623
	c9.717,3.965,15.733,12.124,15.733,21.277V743.004L986.186,743.004z"/>
</svg>
