<?xml version="1.0" encoding="utf-8"?>
<!-- Generator: Adobe Illustrator 16.0.0, SVG Export Plug-In . SVG Version: 6.00 Build 0)  -->
<!DOCTYPE svg PUBLIC "-//W3C//DTD SVG 1.1//EN" "http://www.w3.org/Graphics/SVG/1.1/DTD/svg11.dtd">
<svg version="1.1" id="图层_1" xmlns="http://www.w3.org/2000/svg" xmlns:xlink="http://www.w3.org/1999/xlink" x="0px" y="0px"
	 width="1024px" height="1024px" viewBox="0 0 1024 1024" enable-background="new 0 0 1024 1024" xml:space="preserve">
<g>
	<path stroke="#FFFFFF" stroke-miterlimit="10" d="M880.229,8.218H145.773c-60.29,0-109.333,42.672-109.333,95.109v550.502v3.393
		v226.81c0,52.437,49.043,95.108,109.333,95.108h245.708v21.086c0,9.039,5.911,17.325,15.221,21.31
		c9.313,4.008,20.455,3.074,28.719-2.414l82.444-54.827l71.406,53.897c5.072,3.824,11.455,5.803,17.892,5.803
		c3.87,0,7.741-0.684,11.351-2.141c9.783-3.845,16.008-12.318,16.008-21.628V979.14h245.707c60.264,0,109.331-42.672,109.331-95.108
		v-226.81v-3.393V103.327C989.56,50.89,940.492,8.218,880.229,8.218L880.229,8.218z M934.896,103.327v550.502v3.393
		c0,26.208-24.536,47.546-54.667,47.546H348.48c-0.339,0-0.706,0-1.045,0.021l-3.613,0.115V55.763h536.406
		C910.359,55.763,934.896,77.121,934.896,103.327L934.896,103.327z M91.106,884.031v-226.81v-3.393V103.327
		c0-26.206,24.535-47.564,54.667-47.564h143.386v650.961c-78.913,4.415-143.911,65.644-143.911,137.62
		c0,33.357,14.203,63.847,37.561,87.229h-37.036C115.641,931.573,91.106,910.237,91.106,884.031L91.106,884.031z M880.229,931.573
		H634.521V826.718c0-13.136-12.242-23.77-27.358-23.77H418.812c-15.091,0-27.331,10.634-27.331,23.77v104.855H308.07
		c-3.034-1.002-6.303-1.639-9.757-1.639c-54.246,0-98.397-38.39-98.397-85.591c0-48.978,45.064-90.351,98.397-90.351
		c0.34,0,0.706,0,1.046-0.024l12.268-0.408c1.596,0.25,3.192,0.433,4.865,0.433c2.328,0,4.552-0.343,6.72-0.818l25.79-0.845h531.226
		c19.931,0,38.554-4.733,54.667-12.889v144.59C934.896,910.237,910.359,931.573,880.229,931.573L880.229,931.573z M498.249,268.84
		h291.792c47.712,0,86.419-33.698,86.419-75.165c0-41.437-38.707-75.139-86.419-75.139H498.249
		c-47.63,0-86.368,33.702-86.368,75.139C411.881,235.143,450.619,268.84,498.249,268.84L498.249,268.84z M498.249,166.103h291.792
		c17.525,0,31.757,12.387,31.757,27.598c0,15.211-14.231,27.598-31.757,27.598H498.249c-17.474,0-31.7-12.387-31.7-27.598
		C466.549,178.469,480.775,166.103,498.249,166.103L498.249,166.103z M498.249,166.103"/>
</g>
</svg>
