<?xml version="1.0" encoding="utf-8"?>
<!-- Generator: Adobe Illustrator 16.0.0, SVG Export Plug-In . SVG Version: 6.00 Build 0)  -->
<!DOCTYPE svg PUBLIC "-//W3C//DTD SVG 1.1//EN" "http://www.w3.org/Graphics/SVG/1.1/DTD/svg11.dtd">
<svg version="1.1" id="图层_1" xmlns="http://www.w3.org/2000/svg" xmlns:xlink="http://www.w3.org/1999/xlink" x="0px" y="0px"
	 width="1024px" height="1024px" viewBox="0 0 1024 1024" enable-background="new 0 0 1024 1024" xml:space="preserve">
<path stroke="#FFFFFF" stroke-miterlimit="10" d="M1011.338,937.039l0.145-0.326L720.067,652.052
	c57.346-67.598,90.349-151.604,93.072-237.148c5.406-104.23-35.392-211.857-109.094-287.869
	C641.104,60.647,552.623,16.062,461.319,4.578C443.625,2.208,425.497,1,407.418,1c-90.346,0-178.396,29.334-247.891,82.521
	C78.986,143.539,23.363,233.591,6.958,330.571c-16.31,90.376,1.338,187.403,48.305,266.019
	c32.142,54.672,77.913,101.628,132.291,135.751c49.932,31.612,107.375,52.255,166.059,59.6c17.602,2.373,35.68,3.581,53.663,3.581
	c83.363,0,165.817-25.431,232.874-71.733l291.078,284.427l5.357,4.928l0.143-0.092c9.613,7.672,21.762,11.949,34.341,11.949
	c29.747,0,53.948-23.712,53.948-52.859C1025.017,959.215,1020.09,946.708,1011.338,937.039 M715.906,548.797
	c-47.684,95.212-143.482,164.854-250.185,181.778c-49.932,8.461-102.544,5.856-151.568-7.624
	c-95.703-25.617-177.582-93.494-219.146-181.687c-48.114-97.908-42.137-221.249,15.306-314.274
	C161.392,141.074,251.5,80.729,351.174,65.62l7.077-1.068c3.684-0.558,7.46-1.116,11.098-1.581c12.337-1.208,24.87-1.86,37.257-1.86
	c50.89,0,101.156,10.695,145.49,31.01c81.07,36.309,145.731,103.812,177.3,185.264C764.069,364.322,759.047,465.764,715.906,548.797
	"/>
</svg>
