<?xml version="1.0" encoding="utf-8"?>
<!-- Generator: Adobe Illustrator 16.0.0, SVG Export Plug-In . SVG Version: 6.00 Build 0)  -->
<!DOCTYPE svg PUBLIC "-//W3C//DTD SVG 1.1//EN" "http://www.w3.org/Graphics/SVG/1.1/DTD/svg11.dtd">
<svg version="1.1" id="图层_1" xmlns="http://www.w3.org/2000/svg" xmlns:xlink="http://www.w3.org/1999/xlink" x="0px" y="0px"
	 width="1024px" height="1024px" viewBox="0 0 1024 1024" enable-background="new 0 0 1024 1024" xml:space="preserve">
<g>
	<path stroke="#FFFFFF" stroke-miterlimit="10" d="M209.73,122.288c0-31.677,21.967-57.335,49.074-57.335h515.629
		c27.107,0,49.074,25.659,49.074,57.335l36.864,287.005h47.295l-35.086-286.949c0-63.468-43.931-114.893-98.147-114.893H258.804
		c-54.217,0-98.147,51.425-98.147,114.893l-35.085,286.949h47.341L209.73,122.288L209.73,122.288z M258.804,337.5
		c0,23.798,16.534,43.098,36.818,43.098h441.947c20.33,0,36.864-19.299,36.864-43.098c0-23.745-16.534-14.349-36.864-14.349H295.622
		C275.338,323.151,258.804,313.755,258.804,337.5L258.804,337.5z M713.008,237.067c20.38,0,36.817-19.299,36.817-43.042
		c0-23.745-16.438-14.404-36.817-14.404H320.23c-20.38,0-36.818-9.341-36.818,14.404c0,23.743,16.438,43.042,36.818,43.042H713.008
		L713.008,237.067z M897.189,466.684H136.048c-54.214,0-98.145,51.425-98.145,114.835l24.512,315.645
		c0,63.409,43.978,114.837,98.241,114.837h711.924c54.264,0,98.241-51.428,98.241-114.837l24.513-315.645
		C995.335,518.108,951.406,466.684,897.189,466.684L897.189,466.684z M921.702,897.163c0,31.677-22.014,57.446-49.121,57.446
		H160.657c-27.107,0-49.121-25.77-49.121-57.446l-24.562-315.7c0-31.622,21.966-57.391,49.074-57.391h761.141
		c27.061,0,49.074,25.769,49.074,57.391L921.702,897.163L921.702,897.163z M651.678,796.73c0-23.799-16.534-43.098-36.864-43.098
		H418.425c-20.331,0-36.865,19.299-36.865,43.098c0,23.745,16.534,42.986,36.815,42.986l0,0l0,0h196.488
		C635.144,839.717,651.678,820.476,651.678,796.73L651.678,796.73z M651.678,796.73"/>
</g>
</svg>
