<?xml version="1.0" encoding="utf-8"?>
<!-- Generator: Adobe Illustrator 15.0.0, SVG Export Plug-In . SVG Version: 6.00 Build 0)  -->
<!DOCTYPE svg PUBLIC "-//W3C//DTD SVG 1.1//EN" "http://www.w3.org/Graphics/SVG/1.1/DTD/svg11.dtd">
<svg version="1.1" id="图层_1" xmlns="http://www.w3.org/2000/svg" xmlns:xlink="http://www.w3.org/1999/xlink" x="0px" y="0px"
	 width="1024px" height="1024px" viewBox="0 0 1024 1024" enable-background="new 0 0 1024 1024" xml:space="preserve">
<path fill="#231815" d="M338.543,290.703v-57.689h477.458v57.689H338.543L338.543,290.703z M338.543,517.16v-57.672h477.458v57.672
	H338.543L338.543,517.16z M338.285,743.636v-57.69h232.309v57.69H338.285L338.285,743.636z M148.56,305.117v-86.535h83.642v86.535
	H148.56L148.56,305.117z M148.56,531.598v-86.54h83.642v86.54H148.56L148.56,531.598z M148.302,758.049v-86.518h83.641v86.518
	H148.302L148.302,758.049z M963.496,578.043c0,15.518-12.161,28.089-27.138,28.089c-15.001,0-27.16-12.571-27.16-28.089
	c0-0.142,0.046-0.293,0.046-0.445h-0.046V95.913c0-14.126-4.085-25.553-17.724-25.553H85.237c-13.651,0-17.735,11.427-17.735,25.553
	v832.494c0,14.109,4.084,25.528,17.735,25.528h414.768c15.225,0,27.549,12.771,27.549,28.523c0,15.739-12.324,28.486-27.549,28.486
	H41.068c-15.375,0-27.865-12.899-27.865-28.851V42.203c0-15.928,12.489-28.845,27.865-28.845h894.538
	c15.4,0,27.89,12.917,27.89,28.845v535.395h-0.048C963.471,577.75,963.496,577.901,963.496,578.043L963.496,578.043z
	 M1002.932,742.016l0.048,0.047l-201.017,208l0.563,0.575l-39.437,40.813l-0.54-0.599l-0.564,0.599l-39.438-40.813l0.563-0.575
	l-80.542-83.313h0.023c-5.047-5.212-8.169-12.418-8.169-20.399c0-15.928,12.489-28.839,27.865-28.839
	c7.746,0,14.742,3.274,19.789,8.521l80.473,83.241l200.43-207.378c0.163-0.176,0.328-0.352,0.517-0.54l0.069-0.069h0.023
	c5.001-5.012,11.809-8.135,19.344-8.135c15.376,0,27.865,12.923,27.865,28.852C1010.797,729.786,1007.792,736.816,1002.932,742.016
	L1002.932,742.016z"/>
</svg>
