<?xml version="1.0" encoding="utf-8"?>
<!-- Generator: Adobe Illustrator 16.0.0, SVG Export Plug-In . SVG Version: 6.00 Build 0)  -->
<!DOCTYPE svg PUBLIC "-//W3C//DTD SVG 1.1//EN" "http://www.w3.org/Graphics/SVG/1.1/DTD/svg11.dtd">
<svg version="1.1" id="图层_1" xmlns="http://www.w3.org/2000/svg" xmlns:xlink="http://www.w3.org/1999/xlink" x="0px" y="0px"
	 width="1024px" height="1024px" viewBox="0 0 1024 1024" enable-background="new 0 0 1024 1024" xml:space="preserve">
<path fill="#FFFFFF" stroke="#000000" stroke-miterlimit="10" d="M1000.985,440.75L852.849,590.7
	c-35.244,35.636-57.396,105.026-49.274,154.159l35.671,216.002c8.122,49.16-21.329,69.644-65.463,45.54L592.93,907.66
	c-44.133-24.104-116.327-24.104-160.461,0l-180.881,98.741c-44.105,24.104-73.584,3.62-65.462-45.54l35.67-216.002
	c8.124-49.133-14.058-118.523-49.245-154.159L24.442,440.75c-35.217-35.635-23.259-70.962,26.582-78.468l200.393-30.234
	c49.842-7.52,108.148-50.563,129.562-95.641l92.783-195.195c21.415-45.092,56.46-45.092,77.874,0l92.784,195.195
	c21.413,45.077,79.719,88.121,129.562,95.641l200.392,30.234C1024.187,369.788,1036.172,405.115,1000.985,440.75z M918.907,380.24
	L742.57,353.64c-43.85-6.622-95.169-44.488-114.027-84.164l-81.622-171.78c-18.856-39.676-49.7-39.676-68.53,0l-81.65,171.78
	c-18.858,39.676-70.149,77.542-114.027,84.164L106.376,380.24c-43.85,6.608-54.386,37.698-23.401,69.055l130.328,131.949
	c30.985,31.371,50.495,92.428,43.339,135.668L225.26,906.986c-7.157,43.269,18.801,61.282,57.625,40.098l159.183-86.9
	c38.824-21.213,102.355-21.213,141.178,0l159.183,86.9c38.824,21.185,64.726,3.171,57.597-40.098l-31.41-190.074
	c-7.13-43.24,12.354-104.297,43.367-135.668l130.357-131.949C973.294,417.938,962.758,386.849,918.907,380.24z"/>
</svg>
