<?xml version="1.0" encoding="utf-8"?>
<!-- Generator: Adobe Illustrator 16.0.0, SVG Export Plug-In . SVG Version: 6.00 Build 0)  -->
<!DOCTYPE svg PUBLIC "-//W3C//DTD SVG 1.1//EN" "http://www.w3.org/Graphics/SVG/1.1/DTD/svg11.dtd">
<svg version="1.1" id="图层_1" xmlns="http://www.w3.org/2000/svg" xmlns:xlink="http://www.w3.org/1999/xlink" x="0px" y="0px"
	 width="1024px" height="1024px" viewBox="0 0 1024 1024" enable-background="new 0 0 1024 1024" xml:space="preserve">
<g>
	<path stroke="#FFFFFF" stroke-miterlimit="10" d="M858.998,752.977H401.685c-63.166,0-114.364-54.656-114.364-122.085V142.65
		c0-67.378,51.198-122.034,114.364-122.034h457.313c63.117,0,114.362,54.656,114.362,122.034v488.242
		C973.36,698.32,922.115,752.977,858.998,752.977L858.998,752.977z M916.203,142.65c0-33.666-25.624-61.017-57.205-61.017H401.685
		c-31.583,0-57.159,27.352-57.159,61.017v488.242c0,33.714,25.529,61.017,57.159,61.017h457.313
		c31.581,0,57.205-27.303,57.205-61.017V142.65L916.203,142.65z M115.799,386.821v488.189c0,33.715,25.624,61.067,57.159,61.067
		h457.359c31.583,0,57.158-27.353,57.158-61.067v-61.018h57.158v61.018c0,67.38-51.151,122.084-114.316,122.084H172.958
		c-63.119,0-114.317-54.704-114.317-122.084V386.821c0-67.431,51.198-122.087,114.317-122.087h57.205v61.068h-57.205
		C141.423,325.802,115.799,353.105,115.799,386.821L115.799,386.821z M115.799,386.821"/>
</g>
</svg>
