<?xml version="1.0" encoding="utf-8"?>
<!-- Generator: Adobe Illustrator 16.0.0, SVG Export Plug-In . SVG Version: 6.00 Build 0)  -->
<!DOCTYPE svg PUBLIC "-//W3C//DTD SVG 1.1//EN" "http://www.w3.org/Graphics/SVG/1.1/DTD/svg11.dtd">
<svg version="1.1" id="图层_1" xmlns="http://www.w3.org/2000/svg" xmlns:xlink="http://www.w3.org/1999/xlink" x="0px" y="0px"
	 width="1024px" height="1024px" viewBox="0 0 1024 1024" enable-background="new 0 0 1024 1024" xml:space="preserve">
<g>
	<path stroke="#FFFFFF" stroke-miterlimit="10" d="M548.104,235.525c-5.036-7.611-12.244-13.274-20.661-16.252
		c-4.41-1.769-9.201-2.709-14.439-2.709h-0.224l-1.365-0.156c-0.694,0-1.231,0.111-1.902,0.179c-5.037,0-9.761,0.918-13.924,2.574
		c-8.708,3.022-15.939,8.775-20.506,16.028L172.52,540.774c-7.073,7.119-10.924,16.79-10.924,27.222
		c0,11.596,4.88,23.102,13.297,31.586c8.35,8.372,19.14,13.006,30.355,13.006c10.364,0,20.079-3.984,27.422-11.327
		c0.291-0.381,0.649-0.672,1.008-1.03c0.761-0.648,1.656-1.477,2.037-2.148l232.832-234.221l0.447,563.579
		c-0.179,1.231-0.179,2.351-0.089,3.425l0.066,1.321c0,21.199,18.424,37.81,41.929,37.81c23.751,0,42.936-16.969,42.936-37.81
		l0.447-568.325l232.519,233.907c0.762,0.94,1.59,1.746,2.485,2.507l1.007,0.985c7.275,7.343,16.991,11.327,27.333,11.327
		c11.215,0,22.005-4.634,30.354-13.006c16.768-16.856,17.842-43.204,2.373-58.808L548.104,235.525L548.104,235.525z M965.752,53.441
		H57.145c-21.087,0-38.167,17.259-38.167,38.413c0,21.222,17.08,38.459,38.167,38.459h908.607c21.043,0,38.146-17.237,38.146-38.459
		C1003.897,70.7,986.795,53.441,965.752,53.441"/>
</g>
</svg>
