<?xml version="1.0" encoding="utf-8"?>
<!-- Generator: Adobe Illustrator 15.0.0, SVG Export Plug-In . SVG Version: 6.00 Build 0)  -->
<!DOCTYPE svg PUBLIC "-//W3C//DTD SVG 1.1//EN" "http://www.w3.org/Graphics/SVG/1.1/DTD/svg11.dtd">
<svg version="1.1" id="图层_1" xmlns="http://www.w3.org/2000/svg" xmlns:xlink="http://www.w3.org/1999/xlink" x="0px" y="0px"
	 width="1024px" height="1024px" viewBox="0 0 1024 1024" enable-background="new 0 0 1024 1024" xml:space="preserve">
<path fill="#231815" d="M638.806,263.358c-7.712-7.841-17.83-11.748-27.946-11.748c-10.141,0-20.235,3.906-27.97,11.748
	c-15.446,15.62-15.446,40.993,0,56.63l197.694,200.291c15.47,15.648,40.47,15.648,55.916,0c15.445-15.637,15.445-40.987,0-56.625
	L638.806,263.358L638.806,263.358L638.806,263.358z M507.357,174.544c-4.9-2.057-10.016-3.046-15.119-3.046
	c-10.286,0-20.381,4.058-27.969,11.73L187.5,463.655c-15.456,15.638-15.456,40.987,0,56.625c15.446,15.66,40.459,15.66,55.917,0
	L452.69,308.258v664.417c0,22.124,17.717,40.065,39.548,40.065s39.525-17.941,39.525-40.065V211.552
	C531.763,195.341,522.152,180.749,507.357,174.544L507.357,174.544L507.357,174.544z M927.174,11.26H96.836
	C74.995,11.26,57.3,29.19,57.3,51.297c0,22.135,17.694,40.071,39.536,40.071h830.338c21.81,0,39.526-17.936,39.526-40.071
	C966.701,29.19,948.984,11.26,927.174,11.26L927.174,11.26L927.174,11.26z"/>
</svg>
