<?xml version="1.0" encoding="utf-8"?>
<!-- Generator: Adobe Illustrator 15.0.0, SVG Export Plug-In . SVG Version: 6.00 Build 0)  -->
<!DOCTYPE svg PUBLIC "-//W3C//DTD SVG 1.1//EN" "http://www.w3.org/Graphics/SVG/1.1/DTD/svg11.dtd">
<svg version="1.1" id="图层_1" xmlns="http://www.w3.org/2000/svg" xmlns:xlink="http://www.w3.org/1999/xlink" x="0px" y="0px"
	 width="1024px" height="1024px" viewBox="0 0 1024 1024" enable-background="new 0 0 1024 1024" xml:space="preserve">
<path fill="#231815" d="M924.497,1013H99.504c-48.88,0-88.51-39.63-88.51-88.499V99.493C10.995,50.625,50.625,11,99.504,11h622.693
	l290.809,290.78v622.721C1013.006,973.37,973.375,1013,924.497,1013L924.497,1013z M962.426,322.743L701.649,61.959v199.532
	c0,34.866,28.354,63.232,63.231,63.232h197.546V322.743L962.426,322.743z M962.426,375.304H764.88
	c-62.767,0-113.79-51.059-113.79-113.813V61.563h-0.419H99.504c-20.922,0-37.93,17.002-37.93,37.93v825.008
	c0,20.912,17.008,37.93,37.93,37.93h824.992c20.921,0,37.93-17.018,37.93-37.93V375.304L962.426,375.304z M667.959,585.523
	L455.42,708.235c-13.664,7.91-27.224,11.905-40.295,11.905c-29.04,0-58.338-21.282-58.338-68.834V405.871
	c0-47.575,29.298-68.864,58.338-68.864c13.071,0,26.631,4.013,40.295,11.913L667.982,471.63
	c24.254,14.002,38.186,34.754,38.186,56.952C706.167,550.763,692.236,571.521,667.959,585.523L667.959,585.523z M646.781,508.365
	l-212.55-122.717c-8.9-5.155-15.296-6.221-19.105-6.221c-13.839,0-15.913,16.571-15.913,26.444v245.413
	c0,9.89,2.074,26.443,15.913,26.443c3.81,0,10.205-1.071,19.105-6.221l212.55-122.712c10.601-6.151,16.961-13.699,16.961-20.212
	C663.742,522.042,657.381,514.493,646.781,508.365L646.781,508.365z M101.251,204.97v-83.449h83.478v83.449H101.251L101.251,204.97z
	 M101.251,374.826v-83.472h83.478v83.472H101.251L101.251,374.826z M101.251,544.658v-83.472h83.478v83.472H101.251L101.251,544.658
	z M101.251,714.491v-83.454h83.478v83.454H101.251L101.251,714.491z M101.251,884.348v-83.467h83.478v83.467H101.251
	L101.251,884.348z M821.145,544.658v-83.472h83.478v83.472H821.145L821.145,544.658z M821.145,714.491v-83.454h83.478v83.454
	H821.145L821.145,714.491z M821.145,884.348v-83.467h83.478v83.467H821.145L821.145,884.348z"/>
</svg>
