<?xml version="1.0" encoding="utf-8"?>
<!-- Generator: Adobe Illustrator 16.0.0, SVG Export Plug-In . SVG Version: 6.00 Build 0)  -->
<!DOCTYPE svg PUBLIC "-//W3C//DTD SVG 1.1//EN" "http://www.w3.org/Graphics/SVG/1.1/DTD/svg11.dtd">
<svg version="1.1" id="图层_1" xmlns="http://www.w3.org/2000/svg" xmlns:xlink="http://www.w3.org/1999/xlink" x="0px" y="0px"
	 width="1024px" height="1024px" viewBox="0 0 1024 1024" enable-background="new 0 0 1024 1024" xml:space="preserve">
<path fill="#FFFFFF" stroke="#000000" stroke-miterlimit="10" d="M979.992,369.6c13.342,46.037,20.104,93.946,20.104,142.4
	c0,67.532-12.934,133.056-38.451,194.742c-24.635,59.577-59.909,113.085-104.829,159.021
	c-44.923,45.944-97.243,82.017-155.493,107.214c-60.329,26.091-124.394,39.322-190.43,39.322s-130.104-13.231-190.429-39.322
	c-58.253-25.197-110.569-61.27-155.493-107.214c-44.921-45.937-80.195-99.444-104.833-159.021
	C34.624,645.056,21.686,579.532,21.686,512s12.938-133.056,38.451-194.742c24.639-59.584,59.912-113.079,104.833-159.028
	c44.924-45.938,97.24-82.01,155.493-107.208C380.788,24.925,444.856,11.7,510.893,11.7c125.168,0,244.257,48.312,335.339,136.026
	l-22.357,24.28C738.867,90.133,627.713,45.044,510.893,45.044C259.124,45.044,54.296,254.518,54.296,512
	c0,257.476,204.828,466.949,456.597,466.949c251.767,0,456.598-209.474,456.598-466.949c0-45.249-6.313-89.965-18.762-132.92
	L979.992,369.6L979.992,369.6z M209.026,466.881l-22.667,23.467l273.142,277.379l542.813-595.25l-24.739-23.629L458.079,718.572
	L209.026,466.881L209.026,466.881z M209.026,466.881"/>
</svg>
