<?xml version="1.0" encoding="utf-8"?>
<!-- Generator: Adobe Illustrator 16.0.0, SVG Export Plug-In . SVG Version: 6.00 Build 0)  -->
<!DOCTYPE svg PUBLIC "-//W3C//DTD SVG 1.1//EN" "http://www.w3.org/Graphics/SVG/1.1/DTD/svg11.dtd">
<svg version="1.1" id="图层_1" xmlns="http://www.w3.org/2000/svg" xmlns:xlink="http://www.w3.org/1999/xlink" x="0px" y="0px"
	 width="1024px" height="1024px" viewBox="0 0 1024 1024" enable-background="new 0 0 1024 1024" xml:space="preserve">
<g>
	<path stroke="#FFFFFF" stroke-miterlimit="10" d="M220.941,812.304c34.953,0,67.785-13.679,92.51-38.502l493.287-495.855
		c24.711-24.844,38.306-57.872,38.306-92.993c0-35.149-13.595-68.142-38.306-92.986C782.041,67.144,749.195,53.5,714.264,53.5
		c-34.931,0-67.806,13.616-92.518,38.439L205.534,510.364l-8.365,8.399l-68.737,69.107c-24.704,24.837-38.299,57.851-38.299,92.965
		c0,27.665,8.729,53.875,24.389,75.996L20.536,851.31l30.808,30.983l94.015-94.49C167.368,803.539,193.416,812.304,220.941,812.304
		L220.941,812.304z M652.59,122.944c16.465-16.563,38.362-25.649,61.674-25.649s45.181,9.107,61.674,25.649
		c16.465,16.535,25.537,38.586,25.537,62.009c0,23.402-9.102,45.425-25.537,62.009L359.696,665.324L236.37,541.361L652.59,122.944
		L652.59,122.944z M159.29,618.869l46.272-46.51l123.325,123.963l-46.271,46.496c-32.938,33.11-90.361,33.11-123.325,0
		c-16.493-16.593-25.53-38.614-25.53-62.011C133.759,657.414,142.796,635.391,159.29,618.869L159.29,618.869z M983.665,928.649
		H133.423c-12.041,0-21.799,9.801-21.799,21.952c0,12.056,9.758,21.897,21.799,21.897h850.242c12.055,0,21.8-9.843,21.8-21.897
		C1005.465,938.422,995.72,928.649,983.665,928.649L983.665,928.649z"/>
</g>
</svg>
