<?xml version="1.0" encoding="utf-8"?>
<!-- Generator: Adobe Illustrator 16.0.0, SVG Export Plug-In . SVG Version: 6.00 Build 0)  -->
<!DOCTYPE svg PUBLIC "-//W3C//DTD SVG 1.1//EN" "http://www.w3.org/Graphics/SVG/1.1/DTD/svg11.dtd">
<svg version="1.1" id="图层_1" xmlns="http://www.w3.org/2000/svg" xmlns:xlink="http://www.w3.org/1999/xlink" x="0px" y="0px"
	 width="1024px" height="1024px" viewBox="0 0 1024 1024" enable-background="new 0 0 1024 1024" xml:space="preserve">
<g>
	<path stroke="#FFFFFF" stroke-miterlimit="10" d="M1001.604,388.555L781.211,140.982L195.021,604.264L51.396,924.018
		l363.926-72.139L1001.604,388.555L1001.604,388.555z M108.436,879.334L223.4,646.217l152.275,171.158L108.436,879.334
		L108.436,879.334z M415.789,798.777L250.518,613.121l393.801-311.248L809.59,487.574L415.789,798.777L415.789,798.777z
		 M677.232,275.918l98.648-78l165.271,185.701l-98.695,77.955L677.232,275.918L677.232,275.918z M395.873,682.748l295.852-233.822
		l-27.537-30.936L368.336,651.77L395.873,682.748z M395.873,682.748"/>
</g>
</svg>
